G04*
G04 #@! TF.GenerationSoftware,Altium Limited,Altium Designer,20.0.10 (225)*
G04*
G04 Layer_Physical_Order=2*
G04 Layer_Color=16711680*
%FSLAX25Y25*%
%MOIN*%
G70*
G01*
G75*
%ADD25C,0.03000*%
%ADD28C,0.06000*%
G04:AMPARAMS|DCode=29|XSize=60mil|YSize=60mil|CornerRadius=15mil|HoleSize=0mil|Usage=FLASHONLY|Rotation=0.000|XOffset=0mil|YOffset=0mil|HoleType=Round|Shape=RoundedRectangle|*
%AMROUNDEDRECTD29*
21,1,0.06000,0.03000,0,0,0.0*
21,1,0.03000,0.06000,0,0,0.0*
1,1,0.03000,0.01500,-0.01500*
1,1,0.03000,-0.01500,-0.01500*
1,1,0.03000,-0.01500,0.01500*
1,1,0.03000,0.01500,0.01500*
%
%ADD29ROUNDEDRECTD29*%
%ADD30O,0.03937X0.07874*%
%ADD31O,0.03937X0.07874*%
%ADD32C,0.10827*%
%ADD33C,0.05315*%
%ADD34R,0.05315X0.05315*%
%ADD35C,0.05906*%
%ADD36R,0.05906X0.05906*%
%ADD37R,0.05906X0.05906*%
%ADD38C,0.05512*%
%ADD39C,0.02000*%
G36*
X1998Y113977D02*
X318981Y113476D01*
X318980Y1020D01*
X59057D01*
X58865Y1481D01*
X59918Y2534D01*
X60475Y2645D01*
X61302Y3198D01*
X73056Y14951D01*
X134500D01*
X135476Y15145D01*
X136302Y15698D01*
X143728Y23124D01*
X144242Y23892D01*
X144517Y24006D01*
X145353Y24647D01*
X145994Y25483D01*
X146397Y26456D01*
X146535Y27500D01*
X146397Y28544D01*
X145994Y29517D01*
X145353Y30353D01*
X144517Y30994D01*
X143544Y31397D01*
X142500Y31534D01*
X141456Y31397D01*
X140483Y30994D01*
X139647Y30353D01*
X139006Y29517D01*
X138603Y28544D01*
X138465Y27500D01*
X138603Y26456D01*
X138969Y25573D01*
X133444Y20049D01*
X72000D01*
X71025Y19855D01*
X70198Y19302D01*
X57698Y6802D01*
X57145Y5976D01*
X57034Y5418D01*
X55655Y4039D01*
X50838D01*
X50678Y4513D01*
X50853Y4647D01*
X51494Y5483D01*
X51897Y6456D01*
X52034Y7500D01*
X51897Y8544D01*
X51494Y9517D01*
X50853Y10353D01*
X50017Y10994D01*
X49044Y11397D01*
X48000Y11535D01*
X46956Y11397D01*
X45983Y10994D01*
X45223Y10411D01*
X44892Y10788D01*
X46556Y12451D01*
X59500D01*
X60475Y12645D01*
X61302Y13198D01*
X78149Y30044D01*
X78610Y29798D01*
X78451Y29000D01*
Y26000D01*
X78645Y25025D01*
X79198Y24198D01*
X80024Y23645D01*
X81000Y23451D01*
X84000D01*
X84975Y23645D01*
X85802Y24198D01*
X86355Y25025D01*
X86549Y26000D01*
Y29000D01*
X86355Y29976D01*
X85802Y30802D01*
X84975Y31355D01*
X84000Y31549D01*
X81000D01*
X80202Y31390D01*
X79956Y31851D01*
X98056Y49951D01*
X113286D01*
X113479Y49451D01*
X113103Y48544D01*
X112966Y47500D01*
X113103Y46456D01*
X113506Y45483D01*
X114147Y44647D01*
X114983Y44006D01*
X115956Y43603D01*
X117000Y43466D01*
X118044Y43603D01*
X119017Y44006D01*
X119853Y44647D01*
X120494Y45483D01*
X120897Y46456D01*
X121035Y47500D01*
X120897Y48544D01*
X120521Y49451D01*
X120713Y49951D01*
X133286D01*
X133479Y49451D01*
X133103Y48544D01*
X132966Y47500D01*
X133103Y46456D01*
X133506Y45483D01*
X134147Y44647D01*
X134983Y44006D01*
X135956Y43603D01*
X137000Y43466D01*
X138044Y43603D01*
X139017Y44006D01*
X139853Y44647D01*
X140494Y45483D01*
X140897Y46456D01*
X141034Y47500D01*
X140897Y48544D01*
X140521Y49451D01*
X140714Y49951D01*
X146571D01*
X147547Y50145D01*
X148373Y50698D01*
X170127Y72451D01*
X210000D01*
X210976Y72645D01*
X211802Y73198D01*
X222120Y83516D01*
X222500Y83465D01*
X223544Y83603D01*
X224517Y84006D01*
X225353Y84647D01*
X225994Y85483D01*
X226397Y86456D01*
X226535Y87500D01*
X226397Y88544D01*
X225994Y89517D01*
X225353Y90353D01*
X224517Y90994D01*
X223544Y91397D01*
X222500Y91535D01*
X221456Y91397D01*
X220483Y90994D01*
X219647Y90353D01*
X219006Y89517D01*
X218603Y88544D01*
X218465Y87500D01*
X218515Y87120D01*
X215788Y84392D01*
X215411Y84723D01*
X215586Y84952D01*
X215994Y85483D01*
X216397Y86456D01*
X216534Y87500D01*
X216397Y88544D01*
X215994Y89517D01*
X215353Y90353D01*
X214517Y90994D01*
X213544Y91397D01*
X212500Y91535D01*
X211456Y91397D01*
X210483Y90994D01*
X209647Y90353D01*
X209006Y89517D01*
X208603Y88544D01*
X208466Y87500D01*
X208603Y86456D01*
X209006Y85483D01*
X209647Y84647D01*
X210483Y84006D01*
X211456Y83603D01*
X212500Y83465D01*
X213544Y83603D01*
X214517Y84006D01*
X215048Y84413D01*
X215277Y84589D01*
X215608Y84212D01*
X208944Y77549D01*
X186974D01*
X186823Y78049D01*
X187045Y78198D01*
X192335Y83487D01*
X192500Y83465D01*
X193544Y83603D01*
X194517Y84006D01*
X195353Y84647D01*
X195994Y85483D01*
X196397Y86456D01*
X196535Y87500D01*
X196397Y88544D01*
X195994Y89517D01*
X195353Y90353D01*
X194517Y90994D01*
X193544Y91397D01*
X192500Y91535D01*
X191456Y91397D01*
X190483Y90994D01*
X189647Y90353D01*
X189006Y89517D01*
X188603Y88544D01*
X188465Y87500D01*
X188544Y86906D01*
X184187Y82549D01*
X167000D01*
X166024Y82355D01*
X165198Y81802D01*
X143444Y60049D01*
X92000D01*
X91025Y59855D01*
X90198Y59302D01*
X68444Y37549D01*
X39500D01*
X38524Y37355D01*
X37698Y36802D01*
X26198Y25302D01*
X25645Y24475D01*
X25451Y23500D01*
Y10586D01*
X25147Y10353D01*
X24506Y9517D01*
X24103Y8544D01*
X23966Y7500D01*
X24103Y6456D01*
X24506Y5483D01*
X25061Y4759D01*
X24970Y4371D01*
X24877Y4225D01*
X24689Y4195D01*
X21959Y6925D01*
X22035Y7500D01*
X21897Y8544D01*
X21494Y9517D01*
X20853Y10353D01*
X20017Y10994D01*
X19044Y11397D01*
X18000Y11535D01*
X16956Y11397D01*
X15983Y10994D01*
X15147Y10353D01*
X14506Y9517D01*
X14103Y8544D01*
X13965Y7500D01*
X14103Y6456D01*
X14506Y5483D01*
X15147Y4647D01*
X15983Y4006D01*
X16956Y3603D01*
X18000Y3466D01*
X19044Y3603D01*
X19376Y3740D01*
X21635Y1481D01*
X21443Y1020D01*
X1020D01*
X1020Y112999D01*
X1020Y113194D01*
X1169Y113554D01*
X1445Y113829D01*
X1805Y113977D01*
X1998Y113977D01*
D02*
G37*
G36*
X95420Y54451D02*
X95198Y54302D01*
X58444Y17549D01*
X45978D01*
X45853Y18049D01*
X46557Y18425D01*
X47533Y19227D01*
X48335Y20203D01*
X48930Y21317D01*
X49297Y22526D01*
X49421Y23784D01*
X49297Y25041D01*
X48930Y26250D01*
X48335Y27364D01*
X47533Y28340D01*
X46557Y29142D01*
X45443Y29737D01*
X44234Y30104D01*
X42976Y30228D01*
X41719Y30104D01*
X40510Y29737D01*
X39396Y29142D01*
X38419Y28340D01*
X37618Y27364D01*
X37023Y26250D01*
X36656Y25041D01*
X36532Y23784D01*
X36656Y22526D01*
X37023Y21317D01*
X37618Y20203D01*
X38419Y19227D01*
X39396Y18425D01*
X40510Y17830D01*
X41719Y17463D01*
X42976Y17339D01*
X43709Y17411D01*
X43882Y16926D01*
X43698Y16802D01*
X38380Y11485D01*
X38000Y11535D01*
X36956Y11397D01*
X35983Y10994D01*
X35147Y10353D01*
X34506Y9517D01*
X34103Y8544D01*
X33966Y7500D01*
X34103Y6456D01*
X34506Y5483D01*
X35147Y4647D01*
X35322Y4513D01*
X35162Y4039D01*
X30838D01*
X30678Y4513D01*
X30853Y4647D01*
X31494Y5483D01*
X31897Y6456D01*
X32035Y7500D01*
X31897Y8544D01*
X31494Y9517D01*
X30853Y10353D01*
X30549Y10586D01*
Y22444D01*
X40556Y32451D01*
X69500D01*
X70476Y32645D01*
X71302Y33198D01*
X93056Y54951D01*
X95268D01*
X95420Y54451D01*
D02*
G37*
%LPC*%
G36*
X93250Y111388D02*
Y108250D01*
X96388D01*
X96351Y108532D01*
X95953Y109493D01*
X95319Y110319D01*
X94493Y110953D01*
X93532Y111351D01*
X93250Y111388D01*
D02*
G37*
G36*
X58250Y111436D02*
Y108250D01*
X61436D01*
X61397Y108544D01*
X60994Y109517D01*
X60353Y110353D01*
X59517Y110994D01*
X58544Y111397D01*
X58250Y111436D01*
D02*
G37*
G36*
X56750D02*
X56456Y111397D01*
X55483Y110994D01*
X54647Y110353D01*
X54006Y109517D01*
X53603Y108544D01*
X53564Y108250D01*
X56750D01*
Y111436D01*
D02*
G37*
G36*
X91750Y111388D02*
X91468Y111351D01*
X90507Y110953D01*
X89681Y110319D01*
X89047Y109493D01*
X88649Y108532D01*
X88612Y108250D01*
X91750D01*
Y111388D01*
D02*
G37*
G36*
X23000Y107463D02*
X22225Y107361D01*
X21503Y107062D01*
X20883Y106586D01*
X20750Y106413D01*
X20250D01*
X20117Y106586D01*
X19497Y107062D01*
X18775Y107361D01*
X18000Y107463D01*
X17225Y107361D01*
X16503Y107062D01*
X15883Y106586D01*
X15750Y106413D01*
X15250D01*
X15117Y106586D01*
X14497Y107062D01*
X13775Y107361D01*
X13750Y107364D01*
Y102500D01*
Y97636D01*
X13775Y97639D01*
X14497Y97939D01*
X15117Y98414D01*
X15250Y98587D01*
X15750D01*
X15883Y98414D01*
X16503Y97939D01*
X17225Y97639D01*
X18000Y97537D01*
X18775Y97639D01*
X19497Y97939D01*
X20117Y98414D01*
X20250Y98588D01*
X20750D01*
X20883Y98414D01*
X21503Y97939D01*
X22225Y97639D01*
X23000Y97537D01*
X23775Y97639D01*
X24497Y97939D01*
X25117Y98414D01*
X25593Y99035D01*
X25892Y99757D01*
X25994Y100531D01*
Y104469D01*
X25892Y105244D01*
X25593Y105966D01*
X25117Y106586D01*
X24497Y107062D01*
X23775Y107361D01*
X23000Y107463D01*
D02*
G37*
G36*
X96388Y106750D02*
X93250D01*
Y103612D01*
X93532Y103649D01*
X94493Y104047D01*
X95319Y104681D01*
X95953Y105507D01*
X96351Y106468D01*
X96388Y106750D01*
D02*
G37*
G36*
X91750D02*
X88612D01*
X88649Y106468D01*
X89047Y105507D01*
X89681Y104681D01*
X90507Y104047D01*
X91468Y103649D01*
X91750Y103612D01*
Y106750D01*
D02*
G37*
G36*
X61436D02*
X58250D01*
Y103564D01*
X58544Y103603D01*
X59517Y104006D01*
X60353Y104647D01*
X60994Y105483D01*
X61397Y106456D01*
X61436Y106750D01*
D02*
G37*
G36*
X56750D02*
X53564D01*
X53603Y106456D01*
X54006Y105483D01*
X54647Y104647D01*
X55483Y104006D01*
X56456Y103603D01*
X56750Y103564D01*
Y106750D01*
D02*
G37*
G36*
X316453Y111453D02*
X308547D01*
Y103547D01*
X316453D01*
Y111453D01*
D02*
G37*
G36*
X302500Y111487D02*
X301468Y111351D01*
X300507Y110953D01*
X299681Y110319D01*
X299047Y109493D01*
X298649Y108532D01*
X298513Y107500D01*
X298649Y106468D01*
X299047Y105507D01*
X299681Y104681D01*
X300507Y104047D01*
X301468Y103649D01*
X302500Y103513D01*
X303532Y103649D01*
X304493Y104047D01*
X305319Y104681D01*
X305953Y105507D01*
X306351Y106468D01*
X306487Y107500D01*
X306351Y108532D01*
X305953Y109493D01*
X305319Y110319D01*
X304493Y110953D01*
X303532Y111351D01*
X302500Y111487D01*
D02*
G37*
G36*
X292500D02*
X291468Y111351D01*
X290507Y110953D01*
X289681Y110319D01*
X289047Y109493D01*
X288649Y108532D01*
X288513Y107500D01*
X288649Y106468D01*
X289047Y105507D01*
X289681Y104681D01*
X290507Y104047D01*
X291468Y103649D01*
X292500Y103513D01*
X293532Y103649D01*
X294493Y104047D01*
X295319Y104681D01*
X295953Y105507D01*
X296351Y106468D01*
X296487Y107500D01*
X296351Y108532D01*
X295953Y109493D01*
X295319Y110319D01*
X294493Y110953D01*
X293532Y111351D01*
X292500Y111487D01*
D02*
G37*
G36*
X282500D02*
X281468Y111351D01*
X280507Y110953D01*
X279681Y110319D01*
X279047Y109493D01*
X278649Y108532D01*
X278513Y107500D01*
X278649Y106468D01*
X279047Y105507D01*
X279681Y104681D01*
X280507Y104047D01*
X281468Y103649D01*
X282500Y103513D01*
X283532Y103649D01*
X284493Y104047D01*
X285319Y104681D01*
X285953Y105507D01*
X286351Y106468D01*
X286487Y107500D01*
X286351Y108532D01*
X285953Y109493D01*
X285319Y110319D01*
X284493Y110953D01*
X283532Y111351D01*
X282500Y111487D01*
D02*
G37*
G36*
X272500D02*
X271468Y111351D01*
X270507Y110953D01*
X269681Y110319D01*
X269047Y109493D01*
X268649Y108532D01*
X268513Y107500D01*
X268649Y106468D01*
X269047Y105507D01*
X269681Y104681D01*
X270507Y104047D01*
X271468Y103649D01*
X272500Y103513D01*
X273532Y103649D01*
X274493Y104047D01*
X275319Y104681D01*
X275953Y105507D01*
X276351Y106468D01*
X276487Y107500D01*
X276351Y108532D01*
X275953Y109493D01*
X275319Y110319D01*
X274493Y110953D01*
X273532Y111351D01*
X272500Y111487D01*
D02*
G37*
G36*
X262500D02*
X261468Y111351D01*
X260507Y110953D01*
X259681Y110319D01*
X259047Y109493D01*
X258649Y108532D01*
X258513Y107500D01*
X258649Y106468D01*
X259047Y105507D01*
X259681Y104681D01*
X260507Y104047D01*
X261468Y103649D01*
X262500Y103513D01*
X263532Y103649D01*
X264493Y104047D01*
X265319Y104681D01*
X265953Y105507D01*
X266351Y106468D01*
X266487Y107500D01*
X266351Y108532D01*
X265953Y109493D01*
X265319Y110319D01*
X264493Y110953D01*
X263532Y111351D01*
X262500Y111487D01*
D02*
G37*
G36*
X252500D02*
X251468Y111351D01*
X250507Y110953D01*
X249681Y110319D01*
X249047Y109493D01*
X248649Y108532D01*
X248513Y107500D01*
X248649Y106468D01*
X249047Y105507D01*
X249681Y104681D01*
X250507Y104047D01*
X251468Y103649D01*
X252500Y103513D01*
X253532Y103649D01*
X254493Y104047D01*
X255319Y104681D01*
X255953Y105507D01*
X256351Y106468D01*
X256487Y107500D01*
X256351Y108532D01*
X255953Y109493D01*
X255319Y110319D01*
X254493Y110953D01*
X253532Y111351D01*
X252500Y111487D01*
D02*
G37*
G36*
X242500D02*
X241468Y111351D01*
X240507Y110953D01*
X239681Y110319D01*
X239047Y109493D01*
X238649Y108532D01*
X238513Y107500D01*
X238649Y106468D01*
X239047Y105507D01*
X239681Y104681D01*
X240507Y104047D01*
X241468Y103649D01*
X242500Y103513D01*
X243532Y103649D01*
X244493Y104047D01*
X245319Y104681D01*
X245953Y105507D01*
X246351Y106468D01*
X246487Y107500D01*
X246351Y108532D01*
X245953Y109493D01*
X245319Y110319D01*
X244493Y110953D01*
X243532Y111351D01*
X242500Y111487D01*
D02*
G37*
G36*
X232500D02*
X231468Y111351D01*
X230507Y110953D01*
X229681Y110319D01*
X229047Y109493D01*
X228649Y108532D01*
X228513Y107500D01*
X228649Y106468D01*
X229047Y105507D01*
X229681Y104681D01*
X230507Y104047D01*
X231468Y103649D01*
X232500Y103513D01*
X233532Y103649D01*
X234493Y104047D01*
X235319Y104681D01*
X235953Y105507D01*
X236351Y106468D01*
X236487Y107500D01*
X236351Y108532D01*
X235953Y109493D01*
X235319Y110319D01*
X234493Y110953D01*
X233532Y111351D01*
X232500Y111487D01*
D02*
G37*
G36*
X222500D02*
X221468Y111351D01*
X220507Y110953D01*
X219681Y110319D01*
X219047Y109493D01*
X218649Y108532D01*
X218513Y107500D01*
X218649Y106468D01*
X219047Y105507D01*
X219681Y104681D01*
X220507Y104047D01*
X221468Y103649D01*
X222500Y103513D01*
X223532Y103649D01*
X224493Y104047D01*
X225319Y104681D01*
X225953Y105507D01*
X226351Y106468D01*
X226487Y107500D01*
X226351Y108532D01*
X225953Y109493D01*
X225319Y110319D01*
X224493Y110953D01*
X223532Y111351D01*
X222500Y111487D01*
D02*
G37*
G36*
X212500D02*
X211468Y111351D01*
X210507Y110953D01*
X209681Y110319D01*
X209047Y109493D01*
X208649Y108532D01*
X208513Y107500D01*
X208649Y106468D01*
X209047Y105507D01*
X209681Y104681D01*
X210507Y104047D01*
X211468Y103649D01*
X212500Y103513D01*
X213532Y103649D01*
X214493Y104047D01*
X215319Y104681D01*
X215953Y105507D01*
X216351Y106468D01*
X216487Y107500D01*
X216351Y108532D01*
X215953Y109493D01*
X215319Y110319D01*
X214493Y110953D01*
X213532Y111351D01*
X212500Y111487D01*
D02*
G37*
G36*
X202500D02*
X201468Y111351D01*
X200507Y110953D01*
X199681Y110319D01*
X199047Y109493D01*
X198649Y108532D01*
X198513Y107500D01*
X198649Y106468D01*
X199047Y105507D01*
X199681Y104681D01*
X200507Y104047D01*
X201468Y103649D01*
X202500Y103513D01*
X203532Y103649D01*
X204493Y104047D01*
X205319Y104681D01*
X205953Y105507D01*
X206351Y106468D01*
X206487Y107500D01*
X206351Y108532D01*
X205953Y109493D01*
X205319Y110319D01*
X204493Y110953D01*
X203532Y111351D01*
X202500Y111487D01*
D02*
G37*
G36*
X192500D02*
X191468Y111351D01*
X190507Y110953D01*
X189681Y110319D01*
X189047Y109493D01*
X188649Y108532D01*
X188513Y107500D01*
X188649Y106468D01*
X189047Y105507D01*
X189681Y104681D01*
X190507Y104047D01*
X191468Y103649D01*
X192500Y103513D01*
X193532Y103649D01*
X194493Y104047D01*
X195319Y104681D01*
X195953Y105507D01*
X196351Y106468D01*
X196487Y107500D01*
X196351Y108532D01*
X195953Y109493D01*
X195319Y110319D01*
X194493Y110953D01*
X193532Y111351D01*
X192500Y111487D01*
D02*
G37*
G36*
X182500D02*
X181468Y111351D01*
X180507Y110953D01*
X179681Y110319D01*
X179047Y109493D01*
X178649Y108532D01*
X178513Y107500D01*
X178649Y106468D01*
X179047Y105507D01*
X179681Y104681D01*
X180507Y104047D01*
X181468Y103649D01*
X182500Y103513D01*
X183532Y103649D01*
X184493Y104047D01*
X185319Y104681D01*
X185953Y105507D01*
X186351Y106468D01*
X186487Y107500D01*
X186351Y108532D01*
X185953Y109493D01*
X185319Y110319D01*
X184493Y110953D01*
X183532Y111351D01*
X182500Y111487D01*
D02*
G37*
G36*
X172500D02*
X171468Y111351D01*
X170507Y110953D01*
X169681Y110319D01*
X169047Y109493D01*
X168649Y108532D01*
X168513Y107500D01*
X168649Y106468D01*
X169047Y105507D01*
X169681Y104681D01*
X170507Y104047D01*
X171468Y103649D01*
X172500Y103513D01*
X173532Y103649D01*
X174493Y104047D01*
X175319Y104681D01*
X175953Y105507D01*
X176351Y106468D01*
X176487Y107500D01*
X176351Y108532D01*
X175953Y109493D01*
X175319Y110319D01*
X174493Y110953D01*
X173532Y111351D01*
X172500Y111487D01*
D02*
G37*
G36*
X162500D02*
X161468Y111351D01*
X160507Y110953D01*
X159681Y110319D01*
X159047Y109493D01*
X158649Y108532D01*
X158513Y107500D01*
X158649Y106468D01*
X159047Y105507D01*
X159681Y104681D01*
X160507Y104047D01*
X161468Y103649D01*
X162500Y103513D01*
X163532Y103649D01*
X164493Y104047D01*
X165319Y104681D01*
X165953Y105507D01*
X166351Y106468D01*
X166487Y107500D01*
X166351Y108532D01*
X165953Y109493D01*
X165319Y110319D01*
X164493Y110953D01*
X163532Y111351D01*
X162500Y111487D01*
D02*
G37*
G36*
X152500D02*
X151468Y111351D01*
X150507Y110953D01*
X149681Y110319D01*
X149047Y109493D01*
X148649Y108532D01*
X148513Y107500D01*
X148649Y106468D01*
X149047Y105507D01*
X149681Y104681D01*
X150507Y104047D01*
X151468Y103649D01*
X152500Y103513D01*
X153532Y103649D01*
X154493Y104047D01*
X155319Y104681D01*
X155953Y105507D01*
X156351Y106468D01*
X156487Y107500D01*
X156351Y108532D01*
X155953Y109493D01*
X155319Y110319D01*
X154493Y110953D01*
X153532Y111351D01*
X152500Y111487D01*
D02*
G37*
G36*
X142500D02*
X141468Y111351D01*
X140507Y110953D01*
X139681Y110319D01*
X139047Y109493D01*
X138649Y108532D01*
X138513Y107500D01*
X138649Y106468D01*
X139047Y105507D01*
X139681Y104681D01*
X140507Y104047D01*
X141468Y103649D01*
X142500Y103513D01*
X143532Y103649D01*
X144493Y104047D01*
X145319Y104681D01*
X145953Y105507D01*
X146351Y106468D01*
X146487Y107500D01*
X146351Y108532D01*
X145953Y109493D01*
X145319Y110319D01*
X144493Y110953D01*
X143532Y111351D01*
X142500Y111487D01*
D02*
G37*
G36*
X132500D02*
X131468Y111351D01*
X130507Y110953D01*
X129681Y110319D01*
X129047Y109493D01*
X128649Y108532D01*
X128513Y107500D01*
X128649Y106468D01*
X129047Y105507D01*
X129681Y104681D01*
X130507Y104047D01*
X131468Y103649D01*
X132500Y103513D01*
X133532Y103649D01*
X134493Y104047D01*
X135319Y104681D01*
X135953Y105507D01*
X136351Y106468D01*
X136487Y107500D01*
X136351Y108532D01*
X135953Y109493D01*
X135319Y110319D01*
X134493Y110953D01*
X133532Y111351D01*
X132500Y111487D01*
D02*
G37*
G36*
X122500D02*
X121468Y111351D01*
X120507Y110953D01*
X119681Y110319D01*
X119047Y109493D01*
X118649Y108532D01*
X118513Y107500D01*
X118649Y106468D01*
X119047Y105507D01*
X119681Y104681D01*
X120507Y104047D01*
X121468Y103649D01*
X122500Y103513D01*
X123532Y103649D01*
X124493Y104047D01*
X125319Y104681D01*
X125953Y105507D01*
X126351Y106468D01*
X126487Y107500D01*
X126351Y108532D01*
X125953Y109493D01*
X125319Y110319D01*
X124493Y110953D01*
X123532Y111351D01*
X122500Y111487D01*
D02*
G37*
G36*
X112500D02*
X111468Y111351D01*
X110507Y110953D01*
X109681Y110319D01*
X109047Y109493D01*
X108649Y108532D01*
X108513Y107500D01*
X108649Y106468D01*
X109047Y105507D01*
X109681Y104681D01*
X110507Y104047D01*
X111468Y103649D01*
X112500Y103513D01*
X113532Y103649D01*
X114493Y104047D01*
X115319Y104681D01*
X115953Y105507D01*
X116351Y106468D01*
X116487Y107500D01*
X116351Y108532D01*
X115953Y109493D01*
X115319Y110319D01*
X114493Y110953D01*
X113532Y111351D01*
X112500Y111487D01*
D02*
G37*
G36*
X102500D02*
X101468Y111351D01*
X100507Y110953D01*
X99681Y110319D01*
X99047Y109493D01*
X98649Y108532D01*
X98513Y107500D01*
X98649Y106468D01*
X99047Y105507D01*
X99681Y104681D01*
X100507Y104047D01*
X101468Y103649D01*
X102500Y103513D01*
X103532Y103649D01*
X104493Y104047D01*
X105319Y104681D01*
X105953Y105507D01*
X106351Y106468D01*
X106487Y107500D01*
X106351Y108532D01*
X105953Y109493D01*
X105319Y110319D01*
X104493Y110953D01*
X103532Y111351D01*
X102500Y111487D01*
D02*
G37*
G36*
X82500D02*
X81468Y111351D01*
X80507Y110953D01*
X79681Y110319D01*
X79047Y109493D01*
X78649Y108532D01*
X78513Y107500D01*
X78649Y106468D01*
X79047Y105507D01*
X79681Y104681D01*
X80507Y104047D01*
X81468Y103649D01*
X82500Y103513D01*
X83532Y103649D01*
X84493Y104047D01*
X85319Y104681D01*
X85953Y105507D01*
X86351Y106468D01*
X86487Y107500D01*
X86351Y108532D01*
X85953Y109493D01*
X85319Y110319D01*
X84493Y110953D01*
X83532Y111351D01*
X82500Y111487D01*
D02*
G37*
G36*
X37500Y111535D02*
X36456Y111397D01*
X35483Y110994D01*
X34647Y110353D01*
X34006Y109517D01*
X33603Y108544D01*
X33465Y107500D01*
X33603Y106456D01*
X34006Y105483D01*
X34647Y104647D01*
X35483Y104006D01*
X36456Y103603D01*
X37500Y103465D01*
X38544Y103603D01*
X39517Y104006D01*
X40353Y104647D01*
X40994Y105483D01*
X41397Y106456D01*
X41535Y107500D01*
X41397Y108544D01*
X40994Y109517D01*
X40353Y110353D01*
X39517Y110994D01*
X38544Y111397D01*
X37500Y111535D01*
D02*
G37*
G36*
X12250Y107364D02*
X12225Y107361D01*
X11503Y107062D01*
X10883Y106586D01*
X10407Y105966D01*
X10108Y105243D01*
X10006Y104469D01*
Y103250D01*
X12250D01*
Y107364D01*
D02*
G37*
G36*
X58250Y101436D02*
Y98250D01*
X61436D01*
X61397Y98544D01*
X60994Y99517D01*
X60353Y100353D01*
X59517Y100994D01*
X58544Y101397D01*
X58250Y101436D01*
D02*
G37*
G36*
X56750D02*
X56456Y101397D01*
X55483Y100994D01*
X54647Y100353D01*
X54006Y99517D01*
X53603Y98544D01*
X53564Y98250D01*
X56750D01*
Y101436D01*
D02*
G37*
G36*
X12250Y101750D02*
X10006D01*
Y100531D01*
X10108Y99756D01*
X10407Y99034D01*
X10883Y98414D01*
X11503Y97939D01*
X12225Y97639D01*
X12250Y97636D01*
Y101750D01*
D02*
G37*
G36*
X61436Y96750D02*
X58250D01*
Y93564D01*
X58544Y93603D01*
X59517Y94006D01*
X60353Y94647D01*
X60994Y95483D01*
X61397Y96456D01*
X61436Y96750D01*
D02*
G37*
G36*
X56750D02*
X53564D01*
X53603Y96456D01*
X54006Y95483D01*
X54647Y94647D01*
X55483Y94006D01*
X56456Y93603D01*
X56750Y93564D01*
Y96750D01*
D02*
G37*
G36*
X37500Y101534D02*
X36456Y101397D01*
X35483Y100994D01*
X34647Y100353D01*
X34006Y99517D01*
X33603Y98544D01*
X33465Y97500D01*
X33603Y96456D01*
X34006Y95483D01*
X34647Y94647D01*
X35483Y94006D01*
X36456Y93603D01*
X37500Y93466D01*
X38544Y93603D01*
X39517Y94006D01*
X40353Y94647D01*
X40994Y95483D01*
X41397Y96456D01*
X41535Y97500D01*
X41397Y98544D01*
X40994Y99517D01*
X40353Y100353D01*
X39517Y100994D01*
X38544Y101397D01*
X37500Y101534D01*
D02*
G37*
G36*
X93250Y91436D02*
Y88250D01*
X96436D01*
X96397Y88544D01*
X95994Y89517D01*
X95353Y90353D01*
X94517Y90994D01*
X93544Y91397D01*
X93250Y91436D01*
D02*
G37*
G36*
X48750D02*
Y88250D01*
X51936D01*
X51897Y88544D01*
X51494Y89517D01*
X50853Y90353D01*
X50017Y90994D01*
X49044Y91397D01*
X48750Y91436D01*
D02*
G37*
G36*
X47250D02*
X46956Y91397D01*
X45983Y90994D01*
X45147Y90353D01*
X44506Y89517D01*
X44103Y88544D01*
X44064Y88250D01*
X47250D01*
Y91436D01*
D02*
G37*
G36*
X91750D02*
X91456Y91397D01*
X90483Y90994D01*
X89647Y90353D01*
X89006Y89517D01*
X88603Y88544D01*
X88564Y88250D01*
X91750D01*
Y91436D01*
D02*
G37*
G36*
X96436Y86750D02*
X93250D01*
Y83564D01*
X93544Y83603D01*
X94517Y84006D01*
X95353Y84647D01*
X95994Y85483D01*
X96397Y86456D01*
X96436Y86750D01*
D02*
G37*
G36*
X51936D02*
X48750D01*
Y83564D01*
X49044Y83603D01*
X50017Y84006D01*
X50853Y84647D01*
X51494Y85483D01*
X51897Y86456D01*
X51936Y86750D01*
D02*
G37*
G36*
X47250D02*
X44064D01*
X44103Y86456D01*
X44506Y85483D01*
X45147Y84647D01*
X45983Y84006D01*
X46956Y83603D01*
X47250Y83564D01*
Y86750D01*
D02*
G37*
G36*
X91750D02*
X88564D01*
X88603Y86456D01*
X89006Y85483D01*
X89647Y84647D01*
X90483Y84006D01*
X91456Y83603D01*
X91750Y83564D01*
Y86750D01*
D02*
G37*
G36*
X312500Y91535D02*
X311456Y91397D01*
X310483Y90994D01*
X309647Y90353D01*
X309006Y89517D01*
X308603Y88544D01*
X308466Y87500D01*
X308603Y86456D01*
X309006Y85483D01*
X309647Y84647D01*
X310483Y84006D01*
X311456Y83603D01*
X312500Y83465D01*
X313544Y83603D01*
X314517Y84006D01*
X315353Y84647D01*
X315994Y85483D01*
X316397Y86456D01*
X316534Y87500D01*
X316397Y88544D01*
X315994Y89517D01*
X315353Y90353D01*
X314517Y90994D01*
X313544Y91397D01*
X312500Y91535D01*
D02*
G37*
G36*
X302500D02*
X301456Y91397D01*
X300483Y90994D01*
X299647Y90353D01*
X299006Y89517D01*
X298603Y88544D01*
X298465Y87500D01*
X298603Y86456D01*
X299006Y85483D01*
X299647Y84647D01*
X300483Y84006D01*
X301456Y83603D01*
X302500Y83465D01*
X303544Y83603D01*
X304517Y84006D01*
X305353Y84647D01*
X305994Y85483D01*
X306397Y86456D01*
X306535Y87500D01*
X306397Y88544D01*
X305994Y89517D01*
X305353Y90353D01*
X304517Y90994D01*
X303544Y91397D01*
X302500Y91535D01*
D02*
G37*
G36*
X292500D02*
X291456Y91397D01*
X290483Y90994D01*
X289647Y90353D01*
X289006Y89517D01*
X288603Y88544D01*
X288465Y87500D01*
X288603Y86456D01*
X289006Y85483D01*
X289647Y84647D01*
X290483Y84006D01*
X291456Y83603D01*
X292500Y83465D01*
X293544Y83603D01*
X294517Y84006D01*
X295353Y84647D01*
X295994Y85483D01*
X296397Y86456D01*
X296534Y87500D01*
X296397Y88544D01*
X295994Y89517D01*
X295353Y90353D01*
X294517Y90994D01*
X293544Y91397D01*
X292500Y91535D01*
D02*
G37*
G36*
X282500D02*
X281456Y91397D01*
X280483Y90994D01*
X279647Y90353D01*
X279006Y89517D01*
X278603Y88544D01*
X278466Y87500D01*
X278603Y86456D01*
X279006Y85483D01*
X279647Y84647D01*
X280483Y84006D01*
X281456Y83603D01*
X282500Y83465D01*
X283544Y83603D01*
X284517Y84006D01*
X285353Y84647D01*
X285994Y85483D01*
X286397Y86456D01*
X286535Y87500D01*
X286397Y88544D01*
X285994Y89517D01*
X285353Y90353D01*
X284517Y90994D01*
X283544Y91397D01*
X282500Y91535D01*
D02*
G37*
G36*
X272500D02*
X271456Y91397D01*
X270483Y90994D01*
X269647Y90353D01*
X269006Y89517D01*
X268603Y88544D01*
X268465Y87500D01*
X268603Y86456D01*
X269006Y85483D01*
X269647Y84647D01*
X270483Y84006D01*
X271456Y83603D01*
X272500Y83465D01*
X273544Y83603D01*
X274517Y84006D01*
X275353Y84647D01*
X275994Y85483D01*
X276397Y86456D01*
X276535Y87500D01*
X276397Y88544D01*
X275994Y89517D01*
X275353Y90353D01*
X274517Y90994D01*
X273544Y91397D01*
X272500Y91535D01*
D02*
G37*
G36*
X262500D02*
X261456Y91397D01*
X260483Y90994D01*
X259647Y90353D01*
X259006Y89517D01*
X258603Y88544D01*
X258466Y87500D01*
X258603Y86456D01*
X259006Y85483D01*
X259647Y84647D01*
X260483Y84006D01*
X261456Y83603D01*
X262500Y83465D01*
X263544Y83603D01*
X264517Y84006D01*
X265353Y84647D01*
X265994Y85483D01*
X266397Y86456D01*
X266534Y87500D01*
X266397Y88544D01*
X265994Y89517D01*
X265353Y90353D01*
X264517Y90994D01*
X263544Y91397D01*
X262500Y91535D01*
D02*
G37*
G36*
X252500D02*
X251456Y91397D01*
X250483Y90994D01*
X249647Y90353D01*
X249006Y89517D01*
X248603Y88544D01*
X248465Y87500D01*
X248603Y86456D01*
X249006Y85483D01*
X249647Y84647D01*
X250483Y84006D01*
X251456Y83603D01*
X252500Y83465D01*
X253544Y83603D01*
X254517Y84006D01*
X255353Y84647D01*
X255994Y85483D01*
X256397Y86456D01*
X256535Y87500D01*
X256397Y88544D01*
X255994Y89517D01*
X255353Y90353D01*
X254517Y90994D01*
X253544Y91397D01*
X252500Y91535D01*
D02*
G37*
G36*
X242500D02*
X241456Y91397D01*
X240483Y90994D01*
X239647Y90353D01*
X239006Y89517D01*
X238603Y88544D01*
X238465Y87500D01*
X238603Y86456D01*
X239006Y85483D01*
X239647Y84647D01*
X240483Y84006D01*
X241456Y83603D01*
X242500Y83465D01*
X243544Y83603D01*
X244517Y84006D01*
X245353Y84647D01*
X245994Y85483D01*
X246397Y86456D01*
X246534Y87500D01*
X246397Y88544D01*
X245994Y89517D01*
X245353Y90353D01*
X244517Y90994D01*
X243544Y91397D01*
X242500Y91535D01*
D02*
G37*
G36*
X232500D02*
X231456Y91397D01*
X230483Y90994D01*
X229647Y90353D01*
X229006Y89517D01*
X228603Y88544D01*
X228466Y87500D01*
X228603Y86456D01*
X229006Y85483D01*
X229647Y84647D01*
X230483Y84006D01*
X231456Y83603D01*
X232500Y83465D01*
X233544Y83603D01*
X234517Y84006D01*
X235353Y84647D01*
X235994Y85483D01*
X236397Y86456D01*
X236535Y87500D01*
X236397Y88544D01*
X235994Y89517D01*
X235353Y90353D01*
X234517Y90994D01*
X233544Y91397D01*
X232500Y91535D01*
D02*
G37*
G36*
X202500D02*
X201456Y91397D01*
X200483Y90994D01*
X199647Y90353D01*
X199006Y89517D01*
X198603Y88544D01*
X198466Y87500D01*
X198603Y86456D01*
X199006Y85483D01*
X199647Y84647D01*
X200483Y84006D01*
X201456Y83603D01*
X202500Y83465D01*
X203544Y83603D01*
X204517Y84006D01*
X205353Y84647D01*
X205994Y85483D01*
X206397Y86456D01*
X206535Y87500D01*
X206397Y88544D01*
X205994Y89517D01*
X205353Y90353D01*
X204517Y90994D01*
X203544Y91397D01*
X202500Y91535D01*
D02*
G37*
G36*
X182500D02*
X181456Y91397D01*
X180483Y90994D01*
X179647Y90353D01*
X179006Y89517D01*
X178603Y88544D01*
X178465Y87500D01*
X178603Y86456D01*
X179006Y85483D01*
X179647Y84647D01*
X180483Y84006D01*
X181456Y83603D01*
X182500Y83465D01*
X183544Y83603D01*
X184517Y84006D01*
X185353Y84647D01*
X185994Y85483D01*
X186397Y86456D01*
X186535Y87500D01*
X186397Y88544D01*
X185994Y89517D01*
X185353Y90353D01*
X184517Y90994D01*
X183544Y91397D01*
X182500Y91535D01*
D02*
G37*
G36*
X172500D02*
X171456Y91397D01*
X170483Y90994D01*
X169647Y90353D01*
X169006Y89517D01*
X168603Y88544D01*
X168465Y87500D01*
X168603Y86456D01*
X169006Y85483D01*
X169647Y84647D01*
X170483Y84006D01*
X171456Y83603D01*
X172500Y83465D01*
X173544Y83603D01*
X174517Y84006D01*
X175353Y84647D01*
X175994Y85483D01*
X176397Y86456D01*
X176534Y87500D01*
X176397Y88544D01*
X175994Y89517D01*
X175353Y90353D01*
X174517Y90994D01*
X173544Y91397D01*
X172500Y91535D01*
D02*
G37*
G36*
X162500D02*
X161456Y91397D01*
X160483Y90994D01*
X159647Y90353D01*
X159006Y89517D01*
X158603Y88544D01*
X158466Y87500D01*
X158603Y86456D01*
X159006Y85483D01*
X159647Y84647D01*
X160483Y84006D01*
X161456Y83603D01*
X162500Y83465D01*
X163544Y83603D01*
X164517Y84006D01*
X165353Y84647D01*
X165994Y85483D01*
X166397Y86456D01*
X166534Y87500D01*
X166397Y88544D01*
X165994Y89517D01*
X165353Y90353D01*
X164517Y90994D01*
X163544Y91397D01*
X162500Y91535D01*
D02*
G37*
G36*
X152500D02*
X151456Y91397D01*
X150483Y90994D01*
X149647Y90353D01*
X149006Y89517D01*
X148603Y88544D01*
X148466Y87500D01*
X148603Y86456D01*
X149006Y85483D01*
X149647Y84647D01*
X150483Y84006D01*
X151456Y83603D01*
X152500Y83465D01*
X153544Y83603D01*
X154517Y84006D01*
X155353Y84647D01*
X155994Y85483D01*
X156397Y86456D01*
X156535Y87500D01*
X156397Y88544D01*
X155994Y89517D01*
X155353Y90353D01*
X154517Y90994D01*
X153544Y91397D01*
X152500Y91535D01*
D02*
G37*
G36*
X142500D02*
X141456Y91397D01*
X140483Y90994D01*
X139647Y90353D01*
X139006Y89517D01*
X138603Y88544D01*
X138465Y87500D01*
X138603Y86456D01*
X139006Y85483D01*
X139647Y84647D01*
X140483Y84006D01*
X141456Y83603D01*
X142500Y83465D01*
X143544Y83603D01*
X144517Y84006D01*
X145353Y84647D01*
X145994Y85483D01*
X146397Y86456D01*
X146535Y87500D01*
X146397Y88544D01*
X145994Y89517D01*
X145353Y90353D01*
X144517Y90994D01*
X143544Y91397D01*
X142500Y91535D01*
D02*
G37*
G36*
X132500D02*
X131456Y91397D01*
X130483Y90994D01*
X129647Y90353D01*
X129006Y89517D01*
X128603Y88544D01*
X128465Y87500D01*
X128603Y86456D01*
X129006Y85483D01*
X129647Y84647D01*
X130483Y84006D01*
X131456Y83603D01*
X132500Y83465D01*
X133544Y83603D01*
X134517Y84006D01*
X135353Y84647D01*
X135994Y85483D01*
X136397Y86456D01*
X136535Y87500D01*
X136397Y88544D01*
X135994Y89517D01*
X135353Y90353D01*
X134517Y90994D01*
X133544Y91397D01*
X132500Y91535D01*
D02*
G37*
G36*
X122500D02*
X121456Y91397D01*
X120483Y90994D01*
X119647Y90353D01*
X119006Y89517D01*
X118603Y88544D01*
X118465Y87500D01*
X118603Y86456D01*
X119006Y85483D01*
X119647Y84647D01*
X120483Y84006D01*
X121456Y83603D01*
X122500Y83465D01*
X123544Y83603D01*
X124517Y84006D01*
X125353Y84647D01*
X125994Y85483D01*
X126397Y86456D01*
X126534Y87500D01*
X126397Y88544D01*
X125994Y89517D01*
X125353Y90353D01*
X124517Y90994D01*
X123544Y91397D01*
X122500Y91535D01*
D02*
G37*
G36*
X112500D02*
X111456Y91397D01*
X110483Y90994D01*
X109647Y90353D01*
X109006Y89517D01*
X108603Y88544D01*
X108466Y87500D01*
X108603Y86456D01*
X109006Y85483D01*
X109647Y84647D01*
X110483Y84006D01*
X111456Y83603D01*
X112500Y83465D01*
X113544Y83603D01*
X114517Y84006D01*
X115353Y84647D01*
X115994Y85483D01*
X116397Y86456D01*
X116534Y87500D01*
X116397Y88544D01*
X115994Y89517D01*
X115353Y90353D01*
X114517Y90994D01*
X113544Y91397D01*
X112500Y91535D01*
D02*
G37*
G36*
X102500D02*
X101456Y91397D01*
X100483Y90994D01*
X99647Y90353D01*
X99006Y89517D01*
X98603Y88544D01*
X98466Y87500D01*
X98603Y86456D01*
X99006Y85483D01*
X99647Y84647D01*
X100483Y84006D01*
X101456Y83603D01*
X102500Y83465D01*
X103544Y83603D01*
X104517Y84006D01*
X105353Y84647D01*
X105994Y85483D01*
X106397Y86456D01*
X106535Y87500D01*
X106397Y88544D01*
X105994Y89517D01*
X105353Y90353D01*
X104517Y90994D01*
X103544Y91397D01*
X102500Y91535D01*
D02*
G37*
G36*
X82500D02*
X81456Y91397D01*
X80483Y90994D01*
X79647Y90353D01*
X79006Y89517D01*
X78603Y88544D01*
X78465Y87500D01*
X78603Y86456D01*
X79006Y85483D01*
X79647Y84647D01*
X80483Y84006D01*
X81456Y83603D01*
X82500Y83465D01*
X83544Y83603D01*
X84517Y84006D01*
X85353Y84647D01*
X85994Y85483D01*
X86397Y86456D01*
X86535Y87500D01*
X86397Y88544D01*
X85994Y89517D01*
X85353Y90353D01*
X84517Y90994D01*
X83544Y91397D01*
X82500Y91535D01*
D02*
G37*
G36*
X38000D02*
X36956Y91397D01*
X35983Y90994D01*
X35147Y90353D01*
X34506Y89517D01*
X34103Y88544D01*
X33966Y87500D01*
X34103Y86456D01*
X34506Y85483D01*
X35147Y84647D01*
X35983Y84006D01*
X36956Y83603D01*
X38000Y83465D01*
X39044Y83603D01*
X40017Y84006D01*
X40853Y84647D01*
X41494Y85483D01*
X41897Y86456D01*
X42035Y87500D01*
X41897Y88544D01*
X41494Y89517D01*
X40853Y90353D01*
X40017Y90994D01*
X39044Y91397D01*
X38000Y91535D01*
D02*
G37*
G36*
X28000D02*
X26956Y91397D01*
X25983Y90994D01*
X25147Y90353D01*
X24506Y89517D01*
X24103Y88544D01*
X23966Y87500D01*
X24103Y86456D01*
X24506Y85483D01*
X25147Y84647D01*
X25983Y84006D01*
X26956Y83603D01*
X28000Y83465D01*
X29044Y83603D01*
X30017Y84006D01*
X30853Y84647D01*
X31494Y85483D01*
X31897Y86456D01*
X32035Y87500D01*
X31897Y88544D01*
X31494Y89517D01*
X30853Y90353D01*
X30017Y90994D01*
X29044Y91397D01*
X28000Y91535D01*
D02*
G37*
G36*
X18000D02*
X16956Y91397D01*
X15983Y90994D01*
X15147Y90353D01*
X14506Y89517D01*
X14103Y88544D01*
X13965Y87500D01*
X14103Y86456D01*
X14506Y85483D01*
X15147Y84647D01*
X15983Y84006D01*
X16956Y83603D01*
X18000Y83465D01*
X19044Y83603D01*
X20017Y84006D01*
X20853Y84647D01*
X21494Y85483D01*
X21897Y86456D01*
X22035Y87500D01*
X21897Y88544D01*
X21494Y89517D01*
X20853Y90353D01*
X20017Y90994D01*
X19044Y91397D01*
X18000Y91535D01*
D02*
G37*
G36*
X9500Y91549D02*
X6500D01*
X5525Y91355D01*
X4698Y90802D01*
X4145Y89976D01*
X3951Y89000D01*
Y86000D01*
X4145Y85024D01*
X4698Y84198D01*
X5525Y83645D01*
X6500Y83451D01*
X9500D01*
X10475Y83645D01*
X11302Y84198D01*
X11855Y85024D01*
X12049Y86000D01*
Y89000D01*
X11855Y89976D01*
X11302Y90802D01*
X10475Y91355D01*
X9500Y91549D01*
D02*
G37*
G36*
X93250Y81436D02*
Y78250D01*
X96436D01*
X96397Y78544D01*
X95994Y79517D01*
X95353Y80353D01*
X94517Y80994D01*
X93544Y81397D01*
X93250Y81436D01*
D02*
G37*
G36*
X153250Y81190D02*
Y78250D01*
X156190D01*
X156159Y78480D01*
X155781Y79394D01*
X155179Y80179D01*
X154394Y80781D01*
X153481Y81159D01*
X153250Y81190D01*
D02*
G37*
G36*
X151750D02*
X151520Y81159D01*
X150606Y80781D01*
X149821Y80179D01*
X149219Y79394D01*
X148841Y78480D01*
X148810Y78250D01*
X151750D01*
Y81190D01*
D02*
G37*
G36*
X91750Y81436D02*
X91456Y81397D01*
X90483Y80994D01*
X89647Y80353D01*
X89006Y79517D01*
X88603Y78544D01*
X88564Y78250D01*
X91750D01*
Y81436D01*
D02*
G37*
G36*
X156190Y76750D02*
X153250D01*
Y73810D01*
X153481Y73841D01*
X154394Y74219D01*
X155179Y74821D01*
X155781Y75606D01*
X156159Y76520D01*
X156190Y76750D01*
D02*
G37*
G36*
X151750D02*
X148810D01*
X148841Y76520D01*
X149219Y75606D01*
X149821Y74821D01*
X150606Y74219D01*
X151520Y73841D01*
X151750Y73810D01*
Y76750D01*
D02*
G37*
G36*
X122500Y81288D02*
X121519Y81159D01*
X120606Y80781D01*
X119821Y80179D01*
X119219Y79394D01*
X118841Y78480D01*
X118712Y77500D01*
X118841Y76520D01*
X119219Y75606D01*
X119821Y74821D01*
X120606Y74219D01*
X121519Y73841D01*
X122500Y73712D01*
X123480Y73841D01*
X124394Y74219D01*
X125179Y74821D01*
X125781Y75606D01*
X126159Y76520D01*
X126288Y77500D01*
X126159Y78480D01*
X125781Y79394D01*
X125179Y80179D01*
X124394Y80781D01*
X123480Y81159D01*
X122500Y81288D01*
D02*
G37*
G36*
X96436Y76750D02*
X93250D01*
Y73564D01*
X93544Y73603D01*
X94517Y74006D01*
X95353Y74647D01*
X95994Y75483D01*
X96397Y76456D01*
X96436Y76750D01*
D02*
G37*
G36*
X91750D02*
X88564D01*
X88603Y76456D01*
X89006Y75483D01*
X89647Y74647D01*
X90483Y74006D01*
X91456Y73603D01*
X91750Y73564D01*
Y76750D01*
D02*
G37*
G36*
X296453Y81453D02*
X288547D01*
Y73547D01*
X296453D01*
Y81453D01*
D02*
G37*
G36*
X82500Y81534D02*
X81456Y81397D01*
X80483Y80994D01*
X79647Y80353D01*
X79006Y79517D01*
X78603Y78544D01*
X78465Y77500D01*
X78603Y76456D01*
X79006Y75483D01*
X79647Y74647D01*
X80483Y74006D01*
X81456Y73603D01*
X82500Y73466D01*
X83544Y73603D01*
X84517Y74006D01*
X85353Y74647D01*
X85994Y75483D01*
X86397Y76456D01*
X86535Y77500D01*
X86397Y78544D01*
X85994Y79517D01*
X85353Y80353D01*
X84517Y80994D01*
X83544Y81397D01*
X82500Y81534D01*
D02*
G37*
G36*
X43726Y77556D02*
Y71935D01*
X49347D01*
X49297Y72442D01*
X48930Y73651D01*
X48335Y74765D01*
X47533Y75742D01*
X46557Y76543D01*
X45443Y77139D01*
X44234Y77506D01*
X43726Y77556D01*
D02*
G37*
G36*
X42226D02*
X41719Y77506D01*
X40510Y77139D01*
X39396Y76543D01*
X38419Y75742D01*
X37618Y74765D01*
X37023Y73651D01*
X36656Y72442D01*
X36606Y71935D01*
X42226D01*
Y77556D01*
D02*
G37*
G36*
X127750Y71436D02*
Y68250D01*
X130936D01*
X130897Y68544D01*
X130494Y69517D01*
X129853Y70353D01*
X129017Y70994D01*
X128044Y71397D01*
X127750Y71436D01*
D02*
G37*
G36*
X107750D02*
Y68250D01*
X110936D01*
X110897Y68544D01*
X110494Y69517D01*
X109853Y70353D01*
X109017Y70994D01*
X108044Y71397D01*
X107750Y71436D01*
D02*
G37*
G36*
X126250D02*
X125956Y71397D01*
X124983Y70994D01*
X124147Y70353D01*
X123506Y69517D01*
X123103Y68544D01*
X123064Y68250D01*
X126250D01*
Y71436D01*
D02*
G37*
G36*
X106250D02*
X105956Y71397D01*
X104983Y70994D01*
X104147Y70353D01*
X103506Y69517D01*
X103103Y68544D01*
X103064Y68250D01*
X106250D01*
Y71436D01*
D02*
G37*
G36*
X49347Y70435D02*
X43726D01*
Y64815D01*
X44234Y64864D01*
X45443Y65231D01*
X46557Y65827D01*
X47533Y66628D01*
X48335Y67605D01*
X48930Y68719D01*
X49297Y69928D01*
X49347Y70435D01*
D02*
G37*
G36*
X42226D02*
X36606D01*
X36656Y69928D01*
X37023Y68719D01*
X37618Y67605D01*
X38419Y66628D01*
X39396Y65827D01*
X40510Y65231D01*
X41719Y64864D01*
X42226Y64815D01*
Y70435D01*
D02*
G37*
G36*
X130936Y66750D02*
X127750D01*
Y63564D01*
X128044Y63603D01*
X129017Y64006D01*
X129853Y64647D01*
X130494Y65483D01*
X130897Y66456D01*
X130936Y66750D01*
D02*
G37*
G36*
X110936D02*
X107750D01*
Y63564D01*
X108044Y63603D01*
X109017Y64006D01*
X109853Y64647D01*
X110494Y65483D01*
X110897Y66456D01*
X110936Y66750D01*
D02*
G37*
G36*
X126250D02*
X123064D01*
X123103Y66456D01*
X123506Y65483D01*
X124147Y64647D01*
X124983Y64006D01*
X125956Y63603D01*
X126250Y63564D01*
Y66750D01*
D02*
G37*
G36*
X106250D02*
X103064D01*
X103103Y66456D01*
X103506Y65483D01*
X104147Y64647D01*
X104983Y64006D01*
X105956Y63603D01*
X106250Y63564D01*
Y66750D01*
D02*
G37*
G36*
X292500Y71487D02*
X291468Y71351D01*
X290507Y70953D01*
X289681Y70319D01*
X289047Y69493D01*
X288649Y68532D01*
X288513Y67500D01*
X288649Y66468D01*
X289047Y65507D01*
X289681Y64681D01*
X290507Y64047D01*
X291468Y63649D01*
X292500Y63513D01*
X293532Y63649D01*
X294493Y64047D01*
X295319Y64681D01*
X295953Y65507D01*
X296351Y66468D01*
X296487Y67500D01*
X296351Y68532D01*
X295953Y69493D01*
X295319Y70319D01*
X294493Y70953D01*
X293532Y71351D01*
X292500Y71487D01*
D02*
G37*
G36*
X137000Y71535D02*
X135956Y71397D01*
X134983Y70994D01*
X134147Y70353D01*
X133506Y69517D01*
X133103Y68544D01*
X132966Y67500D01*
X133103Y66456D01*
X133506Y65483D01*
X134147Y64647D01*
X134983Y64006D01*
X135956Y63603D01*
X137000Y63465D01*
X138044Y63603D01*
X139017Y64006D01*
X139853Y64647D01*
X140494Y65483D01*
X140897Y66456D01*
X141034Y67500D01*
X140897Y68544D01*
X140494Y69517D01*
X139853Y70353D01*
X139017Y70994D01*
X138044Y71397D01*
X137000Y71535D01*
D02*
G37*
G36*
X117000D02*
X115956Y71397D01*
X114983Y70994D01*
X114147Y70353D01*
X113506Y69517D01*
X113103Y68544D01*
X112966Y67500D01*
X113103Y66456D01*
X113506Y65483D01*
X114147Y64647D01*
X114983Y64006D01*
X115956Y63603D01*
X117000Y63465D01*
X118044Y63603D01*
X119017Y64006D01*
X119853Y64647D01*
X120494Y65483D01*
X120897Y66456D01*
X121035Y67500D01*
X120897Y68544D01*
X120494Y69517D01*
X119853Y70353D01*
X119017Y70994D01*
X118044Y71397D01*
X117000Y71535D01*
D02*
G37*
G36*
X292500Y61487D02*
X291468Y61351D01*
X290507Y60953D01*
X289681Y60319D01*
X289047Y59493D01*
X288649Y58532D01*
X288513Y57500D01*
X288649Y56468D01*
X289047Y55507D01*
X289681Y54681D01*
X290507Y54047D01*
X291468Y53649D01*
X292500Y53513D01*
X293532Y53649D01*
X294493Y54047D01*
X295319Y54681D01*
X295953Y55507D01*
X296351Y56468D01*
X296487Y57500D01*
X296351Y58532D01*
X295953Y59493D01*
X295319Y60319D01*
X294493Y60953D01*
X293532Y61351D01*
X292500Y61487D01*
D02*
G37*
G36*
X61520Y56095D02*
X60565Y55969D01*
X59675Y55600D01*
X58911Y55014D01*
X58325Y54250D01*
X57956Y53360D01*
X57831Y52406D01*
X57956Y51451D01*
X58325Y50561D01*
X58911Y49797D01*
X59675Y49211D01*
X60565Y48842D01*
X61520Y48717D01*
X62475Y48842D01*
X63364Y49211D01*
X64128Y49797D01*
X64714Y50561D01*
X65083Y51451D01*
X65209Y52406D01*
X65083Y53360D01*
X64714Y54250D01*
X64128Y55014D01*
X63364Y55600D01*
X62475Y55969D01*
X61520Y56095D01*
D02*
G37*
G36*
X53646D02*
X52691Y55969D01*
X51801Y55600D01*
X51037Y55014D01*
X50451Y54250D01*
X50082Y53360D01*
X49957Y52406D01*
X50082Y51451D01*
X50451Y50561D01*
X51037Y49797D01*
X51801Y49211D01*
X52691Y48842D01*
X53646Y48717D01*
X54601Y48842D01*
X55490Y49211D01*
X56254Y49797D01*
X56840Y50561D01*
X57209Y51451D01*
X57335Y52406D01*
X57209Y53360D01*
X56840Y54250D01*
X56254Y55014D01*
X55490Y55600D01*
X54601Y55969D01*
X53646Y56095D01*
D02*
G37*
G36*
X293250Y51388D02*
Y48250D01*
X296388D01*
X296351Y48532D01*
X295953Y49493D01*
X295319Y50319D01*
X294493Y50953D01*
X293532Y51351D01*
X293250Y51388D01*
D02*
G37*
G36*
X291750D02*
X291468Y51351D01*
X290507Y50953D01*
X289681Y50319D01*
X289047Y49493D01*
X288649Y48532D01*
X288612Y48250D01*
X291750D01*
Y51388D01*
D02*
G37*
G36*
X296388Y46750D02*
X293250D01*
Y43612D01*
X293532Y43649D01*
X294493Y44047D01*
X295319Y44681D01*
X295953Y45507D01*
X296351Y46468D01*
X296388Y46750D01*
D02*
G37*
G36*
X291750D02*
X288612D01*
X288649Y46468D01*
X289047Y45507D01*
X289681Y44681D01*
X290507Y44047D01*
X291468Y43649D01*
X291750Y43612D01*
Y46750D01*
D02*
G37*
G36*
X54396Y46153D02*
Y43313D01*
X57236D01*
X57209Y43518D01*
X56840Y44407D01*
X56254Y45171D01*
X55490Y45758D01*
X54601Y46126D01*
X54396Y46153D01*
D02*
G37*
G36*
X52896D02*
X52691Y46126D01*
X51801Y45758D01*
X51037Y45171D01*
X50451Y44407D01*
X50082Y43518D01*
X50055Y43313D01*
X52896D01*
Y46153D01*
D02*
G37*
G36*
X57236Y41813D02*
X54396D01*
Y38973D01*
X54601Y39000D01*
X55490Y39368D01*
X56254Y39954D01*
X56840Y40718D01*
X57209Y41608D01*
X57236Y41813D01*
D02*
G37*
G36*
X52896D02*
X50055D01*
X50082Y41608D01*
X50451Y40718D01*
X51037Y39954D01*
X51801Y39368D01*
X52691Y39000D01*
X52896Y38973D01*
Y41813D01*
D02*
G37*
G36*
X65177Y46220D02*
X57862D01*
Y38906D01*
X65177D01*
Y46220D01*
D02*
G37*
G36*
X303250Y41436D02*
Y38250D01*
X306436D01*
X306397Y38544D01*
X305994Y39517D01*
X305353Y40353D01*
X304517Y40994D01*
X303544Y41397D01*
X303250Y41436D01*
D02*
G37*
G36*
X153250D02*
Y38250D01*
X156436D01*
X156397Y38544D01*
X155994Y39517D01*
X155353Y40353D01*
X154517Y40994D01*
X153544Y41397D01*
X153250Y41436D01*
D02*
G37*
G36*
X301750D02*
X301456Y41397D01*
X300483Y40994D01*
X299647Y40353D01*
X299006Y39517D01*
X298603Y38544D01*
X298564Y38250D01*
X301750D01*
Y41436D01*
D02*
G37*
G36*
X151750D02*
X151456Y41397D01*
X150483Y40994D01*
X149647Y40353D01*
X149006Y39517D01*
X148603Y38544D01*
X148564Y38250D01*
X151750D01*
Y41436D01*
D02*
G37*
G36*
X306436Y36750D02*
X303250D01*
Y33564D01*
X303544Y33603D01*
X304517Y34006D01*
X305353Y34647D01*
X305994Y35483D01*
X306397Y36456D01*
X306436Y36750D01*
D02*
G37*
G36*
X156436D02*
X153250D01*
Y33564D01*
X153544Y33603D01*
X154517Y34006D01*
X155353Y34647D01*
X155994Y35483D01*
X156397Y36456D01*
X156436Y36750D01*
D02*
G37*
G36*
X151750D02*
X148564D01*
X148603Y36456D01*
X149006Y35483D01*
X149647Y34647D01*
X150483Y34006D01*
X151456Y33603D01*
X151750Y33564D01*
Y36750D01*
D02*
G37*
G36*
X301750D02*
X298564D01*
X298603Y36456D01*
X299006Y35483D01*
X299647Y34647D01*
X300483Y34006D01*
X301456Y33603D01*
X301750Y33564D01*
Y36750D01*
D02*
G37*
G36*
X312500Y41535D02*
X311456Y41397D01*
X310483Y40994D01*
X309647Y40353D01*
X309006Y39517D01*
X308603Y38544D01*
X308466Y37500D01*
X308603Y36456D01*
X309006Y35483D01*
X309647Y34647D01*
X310483Y34006D01*
X311456Y33603D01*
X312500Y33465D01*
X313544Y33603D01*
X314517Y34006D01*
X315353Y34647D01*
X315994Y35483D01*
X316397Y36456D01*
X316534Y37500D01*
X316397Y38544D01*
X315994Y39517D01*
X315353Y40353D01*
X314517Y40994D01*
X313544Y41397D01*
X312500Y41535D01*
D02*
G37*
G36*
X162500D02*
X161456Y41397D01*
X160483Y40994D01*
X159647Y40353D01*
X159006Y39517D01*
X158603Y38544D01*
X158466Y37500D01*
X158603Y36456D01*
X159006Y35483D01*
X159647Y34647D01*
X160483Y34006D01*
X161456Y33603D01*
X162500Y33465D01*
X163544Y33603D01*
X164517Y34006D01*
X165353Y34647D01*
X165994Y35483D01*
X166397Y36456D01*
X166534Y37500D01*
X166397Y38544D01*
X165994Y39517D01*
X165353Y40353D01*
X164517Y40994D01*
X163544Y41397D01*
X162500Y41535D01*
D02*
G37*
G36*
X303250Y31436D02*
Y28250D01*
X306436D01*
X306397Y28544D01*
X305994Y29517D01*
X305353Y30353D01*
X304517Y30994D01*
X303544Y31397D01*
X303250Y31436D01*
D02*
G37*
G36*
X301750D02*
X301456Y31397D01*
X300483Y30994D01*
X299647Y30353D01*
X299006Y29517D01*
X298603Y28544D01*
X298564Y28250D01*
X301750D01*
Y31436D01*
D02*
G37*
G36*
X153250D02*
Y28250D01*
X156436D01*
X156397Y28544D01*
X155994Y29517D01*
X155353Y30353D01*
X154517Y30994D01*
X153544Y31397D01*
X153250Y31436D01*
D02*
G37*
G36*
X151750D02*
X151456Y31397D01*
X150483Y30994D01*
X149647Y30353D01*
X149006Y29517D01*
X148603Y28544D01*
X148564Y28250D01*
X151750D01*
Y31436D01*
D02*
G37*
G36*
X306436Y26750D02*
X303250D01*
Y23564D01*
X303544Y23603D01*
X304517Y24006D01*
X305353Y24647D01*
X305994Y25483D01*
X306397Y26456D01*
X306436Y26750D01*
D02*
G37*
G36*
X301750D02*
X298564D01*
X298603Y26456D01*
X299006Y25483D01*
X299647Y24647D01*
X300483Y24006D01*
X301456Y23603D01*
X301750Y23564D01*
Y26750D01*
D02*
G37*
G36*
X156436D02*
X153250D01*
Y23564D01*
X153544Y23603D01*
X154517Y24006D01*
X155353Y24647D01*
X155994Y25483D01*
X156397Y26456D01*
X156436Y26750D01*
D02*
G37*
G36*
X151750D02*
X148564D01*
X148603Y26456D01*
X149006Y25483D01*
X149647Y24647D01*
X150483Y24006D01*
X151456Y23603D01*
X151750Y23564D01*
Y26750D01*
D02*
G37*
G36*
X312500Y31534D02*
X311456Y31397D01*
X310483Y30994D01*
X309647Y30353D01*
X309006Y29517D01*
X308603Y28544D01*
X308466Y27500D01*
X308603Y26456D01*
X309006Y25483D01*
X309647Y24647D01*
X310483Y24006D01*
X311456Y23603D01*
X312500Y23465D01*
X313544Y23603D01*
X314517Y24006D01*
X315353Y24647D01*
X315994Y25483D01*
X316397Y26456D01*
X316534Y27500D01*
X316397Y28544D01*
X315994Y29517D01*
X315353Y30353D01*
X314517Y30994D01*
X313544Y31397D01*
X312500Y31534D01*
D02*
G37*
G36*
X292500D02*
X291456Y31397D01*
X290483Y30994D01*
X289647Y30353D01*
X289006Y29517D01*
X288603Y28544D01*
X288465Y27500D01*
X288603Y26456D01*
X289006Y25483D01*
X289647Y24647D01*
X290483Y24006D01*
X291456Y23603D01*
X292500Y23465D01*
X293544Y23603D01*
X294517Y24006D01*
X295353Y24647D01*
X295994Y25483D01*
X296397Y26456D01*
X296534Y27500D01*
X296397Y28544D01*
X295994Y29517D01*
X295353Y30353D01*
X294517Y30994D01*
X293544Y31397D01*
X292500Y31534D01*
D02*
G37*
G36*
X282500D02*
X281456Y31397D01*
X280483Y30994D01*
X279647Y30353D01*
X279006Y29517D01*
X278603Y28544D01*
X278466Y27500D01*
X278603Y26456D01*
X279006Y25483D01*
X279647Y24647D01*
X280483Y24006D01*
X281456Y23603D01*
X282500Y23465D01*
X283544Y23603D01*
X284517Y24006D01*
X285353Y24647D01*
X285994Y25483D01*
X286397Y26456D01*
X286535Y27500D01*
X286397Y28544D01*
X285994Y29517D01*
X285353Y30353D01*
X284517Y30994D01*
X283544Y31397D01*
X282500Y31534D01*
D02*
G37*
G36*
X272500D02*
X271456Y31397D01*
X270483Y30994D01*
X269647Y30353D01*
X269006Y29517D01*
X268603Y28544D01*
X268465Y27500D01*
X268603Y26456D01*
X269006Y25483D01*
X269647Y24647D01*
X270483Y24006D01*
X271456Y23603D01*
X272500Y23465D01*
X273544Y23603D01*
X274517Y24006D01*
X275353Y24647D01*
X275994Y25483D01*
X276397Y26456D01*
X276535Y27500D01*
X276397Y28544D01*
X275994Y29517D01*
X275353Y30353D01*
X274517Y30994D01*
X273544Y31397D01*
X272500Y31534D01*
D02*
G37*
G36*
X262500D02*
X261456Y31397D01*
X260483Y30994D01*
X259647Y30353D01*
X259006Y29517D01*
X258603Y28544D01*
X258466Y27500D01*
X258603Y26456D01*
X259006Y25483D01*
X259647Y24647D01*
X260483Y24006D01*
X261456Y23603D01*
X262500Y23465D01*
X263544Y23603D01*
X264517Y24006D01*
X265353Y24647D01*
X265994Y25483D01*
X266397Y26456D01*
X266534Y27500D01*
X266397Y28544D01*
X265994Y29517D01*
X265353Y30353D01*
X264517Y30994D01*
X263544Y31397D01*
X262500Y31534D01*
D02*
G37*
G36*
X252500D02*
X251456Y31397D01*
X250483Y30994D01*
X249647Y30353D01*
X249006Y29517D01*
X248603Y28544D01*
X248465Y27500D01*
X248603Y26456D01*
X249006Y25483D01*
X249647Y24647D01*
X250483Y24006D01*
X251456Y23603D01*
X252500Y23465D01*
X253544Y23603D01*
X254517Y24006D01*
X255353Y24647D01*
X255994Y25483D01*
X256397Y26456D01*
X256535Y27500D01*
X256397Y28544D01*
X255994Y29517D01*
X255353Y30353D01*
X254517Y30994D01*
X253544Y31397D01*
X252500Y31534D01*
D02*
G37*
G36*
X242500D02*
X241456Y31397D01*
X240483Y30994D01*
X239647Y30353D01*
X239006Y29517D01*
X238603Y28544D01*
X238465Y27500D01*
X238603Y26456D01*
X239006Y25483D01*
X239647Y24647D01*
X240483Y24006D01*
X241456Y23603D01*
X242500Y23465D01*
X243544Y23603D01*
X244517Y24006D01*
X245353Y24647D01*
X245994Y25483D01*
X246397Y26456D01*
X246534Y27500D01*
X246397Y28544D01*
X245994Y29517D01*
X245353Y30353D01*
X244517Y30994D01*
X243544Y31397D01*
X242500Y31534D01*
D02*
G37*
G36*
X232500D02*
X231456Y31397D01*
X230483Y30994D01*
X229647Y30353D01*
X229006Y29517D01*
X228603Y28544D01*
X228466Y27500D01*
X228603Y26456D01*
X229006Y25483D01*
X229647Y24647D01*
X230483Y24006D01*
X231456Y23603D01*
X232500Y23465D01*
X233544Y23603D01*
X234517Y24006D01*
X235353Y24647D01*
X235994Y25483D01*
X236397Y26456D01*
X236535Y27500D01*
X236397Y28544D01*
X235994Y29517D01*
X235353Y30353D01*
X234517Y30994D01*
X233544Y31397D01*
X232500Y31534D01*
D02*
G37*
G36*
X222500D02*
X221456Y31397D01*
X220483Y30994D01*
X219647Y30353D01*
X219006Y29517D01*
X218603Y28544D01*
X218465Y27500D01*
X218603Y26456D01*
X219006Y25483D01*
X219647Y24647D01*
X220483Y24006D01*
X221456Y23603D01*
X222500Y23465D01*
X223544Y23603D01*
X224517Y24006D01*
X225353Y24647D01*
X225994Y25483D01*
X226397Y26456D01*
X226535Y27500D01*
X226397Y28544D01*
X225994Y29517D01*
X225353Y30353D01*
X224517Y30994D01*
X223544Y31397D01*
X222500Y31534D01*
D02*
G37*
G36*
X212500D02*
X211456Y31397D01*
X210483Y30994D01*
X209647Y30353D01*
X209006Y29517D01*
X208603Y28544D01*
X208466Y27500D01*
X208603Y26456D01*
X209006Y25483D01*
X209647Y24647D01*
X210483Y24006D01*
X211456Y23603D01*
X212500Y23465D01*
X213544Y23603D01*
X214517Y24006D01*
X215353Y24647D01*
X215994Y25483D01*
X216397Y26456D01*
X216534Y27500D01*
X216397Y28544D01*
X215994Y29517D01*
X215353Y30353D01*
X214517Y30994D01*
X213544Y31397D01*
X212500Y31534D01*
D02*
G37*
G36*
X202500D02*
X201456Y31397D01*
X200483Y30994D01*
X199647Y30353D01*
X199006Y29517D01*
X198603Y28544D01*
X198466Y27500D01*
X198603Y26456D01*
X199006Y25483D01*
X199647Y24647D01*
X200483Y24006D01*
X201456Y23603D01*
X202500Y23465D01*
X203544Y23603D01*
X204517Y24006D01*
X205353Y24647D01*
X205994Y25483D01*
X206397Y26456D01*
X206535Y27500D01*
X206397Y28544D01*
X205994Y29517D01*
X205353Y30353D01*
X204517Y30994D01*
X203544Y31397D01*
X202500Y31534D01*
D02*
G37*
G36*
X192500D02*
X191456Y31397D01*
X190483Y30994D01*
X189647Y30353D01*
X189006Y29517D01*
X188603Y28544D01*
X188465Y27500D01*
X188603Y26456D01*
X189006Y25483D01*
X189647Y24647D01*
X190483Y24006D01*
X191456Y23603D01*
X192500Y23465D01*
X193544Y23603D01*
X194517Y24006D01*
X195353Y24647D01*
X195994Y25483D01*
X196397Y26456D01*
X196535Y27500D01*
X196397Y28544D01*
X195994Y29517D01*
X195353Y30353D01*
X194517Y30994D01*
X193544Y31397D01*
X192500Y31534D01*
D02*
G37*
G36*
X182500D02*
X181456Y31397D01*
X180483Y30994D01*
X179647Y30353D01*
X179006Y29517D01*
X178603Y28544D01*
X178465Y27500D01*
X178603Y26456D01*
X179006Y25483D01*
X179647Y24647D01*
X180483Y24006D01*
X181456Y23603D01*
X182500Y23465D01*
X183544Y23603D01*
X184517Y24006D01*
X185353Y24647D01*
X185994Y25483D01*
X186397Y26456D01*
X186535Y27500D01*
X186397Y28544D01*
X185994Y29517D01*
X185353Y30353D01*
X184517Y30994D01*
X183544Y31397D01*
X182500Y31534D01*
D02*
G37*
G36*
X172500D02*
X171456Y31397D01*
X170483Y30994D01*
X169647Y30353D01*
X169006Y29517D01*
X168603Y28544D01*
X168465Y27500D01*
X168603Y26456D01*
X169006Y25483D01*
X169647Y24647D01*
X170483Y24006D01*
X171456Y23603D01*
X172500Y23465D01*
X173544Y23603D01*
X174517Y24006D01*
X175353Y24647D01*
X175994Y25483D01*
X176397Y26456D01*
X176534Y27500D01*
X176397Y28544D01*
X175994Y29517D01*
X175353Y30353D01*
X174517Y30994D01*
X173544Y31397D01*
X172500Y31534D01*
D02*
G37*
G36*
X162500D02*
X161456Y31397D01*
X160483Y30994D01*
X159647Y30353D01*
X159006Y29517D01*
X158603Y28544D01*
X158466Y27500D01*
X158603Y26456D01*
X159006Y25483D01*
X159647Y24647D01*
X160483Y24006D01*
X161456Y23603D01*
X162500Y23465D01*
X163544Y23603D01*
X164517Y24006D01*
X165353Y24647D01*
X165994Y25483D01*
X166397Y26456D01*
X166534Y27500D01*
X166397Y28544D01*
X165994Y29517D01*
X165353Y30353D01*
X164517Y30994D01*
X163544Y31397D01*
X162500Y31534D01*
D02*
G37*
G36*
X132500D02*
X131456Y31397D01*
X130483Y30994D01*
X129647Y30353D01*
X129006Y29517D01*
X128603Y28544D01*
X128465Y27500D01*
X128603Y26456D01*
X129006Y25483D01*
X129647Y24647D01*
X130483Y24006D01*
X131456Y23603D01*
X132500Y23465D01*
X133544Y23603D01*
X134517Y24006D01*
X135353Y24647D01*
X135994Y25483D01*
X136397Y26456D01*
X136535Y27500D01*
X136397Y28544D01*
X135994Y29517D01*
X135353Y30353D01*
X134517Y30994D01*
X133544Y31397D01*
X132500Y31534D01*
D02*
G37*
G36*
X122500D02*
X121456Y31397D01*
X120483Y30994D01*
X119647Y30353D01*
X119006Y29517D01*
X118603Y28544D01*
X118465Y27500D01*
X118603Y26456D01*
X119006Y25483D01*
X119647Y24647D01*
X120483Y24006D01*
X121456Y23603D01*
X122500Y23465D01*
X123544Y23603D01*
X124517Y24006D01*
X125353Y24647D01*
X125994Y25483D01*
X126397Y26456D01*
X126534Y27500D01*
X126397Y28544D01*
X125994Y29517D01*
X125353Y30353D01*
X124517Y30994D01*
X123544Y31397D01*
X122500Y31534D01*
D02*
G37*
G36*
X112500D02*
X111456Y31397D01*
X110483Y30994D01*
X109647Y30353D01*
X109006Y29517D01*
X108603Y28544D01*
X108466Y27500D01*
X108603Y26456D01*
X109006Y25483D01*
X109647Y24647D01*
X110483Y24006D01*
X111456Y23603D01*
X112500Y23465D01*
X113544Y23603D01*
X114517Y24006D01*
X115353Y24647D01*
X115994Y25483D01*
X116397Y26456D01*
X116534Y27500D01*
X116397Y28544D01*
X115994Y29517D01*
X115353Y30353D01*
X114517Y30994D01*
X113544Y31397D01*
X112500Y31534D01*
D02*
G37*
G36*
X102500D02*
X101456Y31397D01*
X100483Y30994D01*
X99647Y30353D01*
X99006Y29517D01*
X98603Y28544D01*
X98466Y27500D01*
X98603Y26456D01*
X99006Y25483D01*
X99647Y24647D01*
X100483Y24006D01*
X101456Y23603D01*
X102500Y23465D01*
X103544Y23603D01*
X104517Y24006D01*
X105353Y24647D01*
X105994Y25483D01*
X106397Y26456D01*
X106535Y27500D01*
X106397Y28544D01*
X105994Y29517D01*
X105353Y30353D01*
X104517Y30994D01*
X103544Y31397D01*
X102500Y31534D01*
D02*
G37*
G36*
X92500D02*
X91456Y31397D01*
X90483Y30994D01*
X89647Y30353D01*
X89006Y29517D01*
X88603Y28544D01*
X88465Y27500D01*
X88603Y26456D01*
X89006Y25483D01*
X89647Y24647D01*
X90483Y24006D01*
X91456Y23603D01*
X92500Y23465D01*
X93544Y23603D01*
X94517Y24006D01*
X95353Y24647D01*
X95994Y25483D01*
X96397Y26456D01*
X96535Y27500D01*
X96397Y28544D01*
X95994Y29517D01*
X95353Y30353D01*
X94517Y30994D01*
X93544Y31397D01*
X92500Y31534D01*
D02*
G37*
G36*
X303250Y11388D02*
Y8250D01*
X306388D01*
X306351Y8532D01*
X305953Y9493D01*
X305319Y10319D01*
X304493Y10953D01*
X303532Y11351D01*
X303250Y11388D01*
D02*
G37*
G36*
X301750D02*
X301468Y11351D01*
X300507Y10953D01*
X299681Y10319D01*
X299047Y9493D01*
X298649Y8532D01*
X298612Y8250D01*
X301750D01*
Y11388D01*
D02*
G37*
G36*
X153250D02*
Y8250D01*
X156388D01*
X156351Y8532D01*
X155953Y9493D01*
X155319Y10319D01*
X154493Y10953D01*
X153532Y11351D01*
X153250Y11388D01*
D02*
G37*
G36*
X151750D02*
X151468Y11351D01*
X150507Y10953D01*
X149681Y10319D01*
X149047Y9493D01*
X148649Y8532D01*
X148612Y8250D01*
X151750D01*
Y11388D01*
D02*
G37*
G36*
X156388Y6750D02*
X153250D01*
Y3612D01*
X153532Y3649D01*
X154493Y4047D01*
X155319Y4681D01*
X155953Y5507D01*
X156351Y6468D01*
X156388Y6750D01*
D02*
G37*
G36*
X151750D02*
X148612D01*
X148649Y6468D01*
X149047Y5507D01*
X149681Y4681D01*
X150507Y4047D01*
X151468Y3649D01*
X151750Y3612D01*
Y6750D01*
D02*
G37*
G36*
X306388D02*
X303250D01*
Y3612D01*
X303532Y3649D01*
X304493Y4047D01*
X305319Y4681D01*
X305953Y5507D01*
X306351Y6468D01*
X306388Y6750D01*
D02*
G37*
G36*
X301750D02*
X298612D01*
X298649Y6468D01*
X299047Y5507D01*
X299681Y4681D01*
X300507Y4047D01*
X301468Y3649D01*
X301750Y3612D01*
Y6750D01*
D02*
G37*
G36*
X86453Y11453D02*
X78547D01*
Y3547D01*
X86453D01*
Y11453D01*
D02*
G37*
G36*
X312500Y11487D02*
X311468Y11351D01*
X310507Y10953D01*
X309681Y10319D01*
X309047Y9493D01*
X308649Y8532D01*
X308513Y7500D01*
X308649Y6468D01*
X309047Y5507D01*
X309681Y4681D01*
X310507Y4047D01*
X311468Y3649D01*
X312500Y3513D01*
X313532Y3649D01*
X314493Y4047D01*
X315319Y4681D01*
X315953Y5507D01*
X316351Y6468D01*
X316487Y7500D01*
X316351Y8532D01*
X315953Y9493D01*
X315319Y10319D01*
X314493Y10953D01*
X313532Y11351D01*
X312500Y11487D01*
D02*
G37*
G36*
X292500D02*
X291468Y11351D01*
X290507Y10953D01*
X289681Y10319D01*
X289047Y9493D01*
X288649Y8532D01*
X288513Y7500D01*
X288649Y6468D01*
X289047Y5507D01*
X289681Y4681D01*
X290507Y4047D01*
X291468Y3649D01*
X292500Y3513D01*
X293532Y3649D01*
X294493Y4047D01*
X295319Y4681D01*
X295953Y5507D01*
X296351Y6468D01*
X296487Y7500D01*
X296351Y8532D01*
X295953Y9493D01*
X295319Y10319D01*
X294493Y10953D01*
X293532Y11351D01*
X292500Y11487D01*
D02*
G37*
G36*
X282500D02*
X281468Y11351D01*
X280507Y10953D01*
X279681Y10319D01*
X279047Y9493D01*
X278649Y8532D01*
X278513Y7500D01*
X278649Y6468D01*
X279047Y5507D01*
X279681Y4681D01*
X280507Y4047D01*
X281468Y3649D01*
X282500Y3513D01*
X283532Y3649D01*
X284493Y4047D01*
X285319Y4681D01*
X285953Y5507D01*
X286351Y6468D01*
X286487Y7500D01*
X286351Y8532D01*
X285953Y9493D01*
X285319Y10319D01*
X284493Y10953D01*
X283532Y11351D01*
X282500Y11487D01*
D02*
G37*
G36*
X272500D02*
X271468Y11351D01*
X270507Y10953D01*
X269681Y10319D01*
X269047Y9493D01*
X268649Y8532D01*
X268513Y7500D01*
X268649Y6468D01*
X269047Y5507D01*
X269681Y4681D01*
X270507Y4047D01*
X271468Y3649D01*
X272500Y3513D01*
X273532Y3649D01*
X274493Y4047D01*
X275319Y4681D01*
X275953Y5507D01*
X276351Y6468D01*
X276487Y7500D01*
X276351Y8532D01*
X275953Y9493D01*
X275319Y10319D01*
X274493Y10953D01*
X273532Y11351D01*
X272500Y11487D01*
D02*
G37*
G36*
X262500D02*
X261468Y11351D01*
X260507Y10953D01*
X259681Y10319D01*
X259047Y9493D01*
X258649Y8532D01*
X258513Y7500D01*
X258649Y6468D01*
X259047Y5507D01*
X259681Y4681D01*
X260507Y4047D01*
X261468Y3649D01*
X262500Y3513D01*
X263532Y3649D01*
X264493Y4047D01*
X265319Y4681D01*
X265953Y5507D01*
X266351Y6468D01*
X266487Y7500D01*
X266351Y8532D01*
X265953Y9493D01*
X265319Y10319D01*
X264493Y10953D01*
X263532Y11351D01*
X262500Y11487D01*
D02*
G37*
G36*
X252500D02*
X251468Y11351D01*
X250507Y10953D01*
X249681Y10319D01*
X249047Y9493D01*
X248649Y8532D01*
X248513Y7500D01*
X248649Y6468D01*
X249047Y5507D01*
X249681Y4681D01*
X250507Y4047D01*
X251468Y3649D01*
X252500Y3513D01*
X253532Y3649D01*
X254493Y4047D01*
X255319Y4681D01*
X255953Y5507D01*
X256351Y6468D01*
X256487Y7500D01*
X256351Y8532D01*
X255953Y9493D01*
X255319Y10319D01*
X254493Y10953D01*
X253532Y11351D01*
X252500Y11487D01*
D02*
G37*
G36*
X242500D02*
X241468Y11351D01*
X240507Y10953D01*
X239681Y10319D01*
X239047Y9493D01*
X238649Y8532D01*
X238513Y7500D01*
X238649Y6468D01*
X239047Y5507D01*
X239681Y4681D01*
X240507Y4047D01*
X241468Y3649D01*
X242500Y3513D01*
X243532Y3649D01*
X244493Y4047D01*
X245319Y4681D01*
X245953Y5507D01*
X246351Y6468D01*
X246487Y7500D01*
X246351Y8532D01*
X245953Y9493D01*
X245319Y10319D01*
X244493Y10953D01*
X243532Y11351D01*
X242500Y11487D01*
D02*
G37*
G36*
X232500D02*
X231468Y11351D01*
X230507Y10953D01*
X229681Y10319D01*
X229047Y9493D01*
X228649Y8532D01*
X228513Y7500D01*
X228649Y6468D01*
X229047Y5507D01*
X229681Y4681D01*
X230507Y4047D01*
X231468Y3649D01*
X232500Y3513D01*
X233532Y3649D01*
X234493Y4047D01*
X235319Y4681D01*
X235953Y5507D01*
X236351Y6468D01*
X236487Y7500D01*
X236351Y8532D01*
X235953Y9493D01*
X235319Y10319D01*
X234493Y10953D01*
X233532Y11351D01*
X232500Y11487D01*
D02*
G37*
G36*
X222500D02*
X221468Y11351D01*
X220507Y10953D01*
X219681Y10319D01*
X219047Y9493D01*
X218649Y8532D01*
X218513Y7500D01*
X218649Y6468D01*
X219047Y5507D01*
X219681Y4681D01*
X220507Y4047D01*
X221468Y3649D01*
X222500Y3513D01*
X223532Y3649D01*
X224493Y4047D01*
X225319Y4681D01*
X225953Y5507D01*
X226351Y6468D01*
X226487Y7500D01*
X226351Y8532D01*
X225953Y9493D01*
X225319Y10319D01*
X224493Y10953D01*
X223532Y11351D01*
X222500Y11487D01*
D02*
G37*
G36*
X212500D02*
X211468Y11351D01*
X210507Y10953D01*
X209681Y10319D01*
X209047Y9493D01*
X208649Y8532D01*
X208513Y7500D01*
X208649Y6468D01*
X209047Y5507D01*
X209681Y4681D01*
X210507Y4047D01*
X211468Y3649D01*
X212500Y3513D01*
X213532Y3649D01*
X214493Y4047D01*
X215319Y4681D01*
X215953Y5507D01*
X216351Y6468D01*
X216487Y7500D01*
X216351Y8532D01*
X215953Y9493D01*
X215319Y10319D01*
X214493Y10953D01*
X213532Y11351D01*
X212500Y11487D01*
D02*
G37*
G36*
X202500D02*
X201468Y11351D01*
X200507Y10953D01*
X199681Y10319D01*
X199047Y9493D01*
X198649Y8532D01*
X198513Y7500D01*
X198649Y6468D01*
X199047Y5507D01*
X199681Y4681D01*
X200507Y4047D01*
X201468Y3649D01*
X202500Y3513D01*
X203532Y3649D01*
X204493Y4047D01*
X205319Y4681D01*
X205953Y5507D01*
X206351Y6468D01*
X206487Y7500D01*
X206351Y8532D01*
X205953Y9493D01*
X205319Y10319D01*
X204493Y10953D01*
X203532Y11351D01*
X202500Y11487D01*
D02*
G37*
G36*
X192500D02*
X191468Y11351D01*
X190507Y10953D01*
X189681Y10319D01*
X189047Y9493D01*
X188649Y8532D01*
X188513Y7500D01*
X188649Y6468D01*
X189047Y5507D01*
X189681Y4681D01*
X190507Y4047D01*
X191468Y3649D01*
X192500Y3513D01*
X193532Y3649D01*
X194493Y4047D01*
X195319Y4681D01*
X195953Y5507D01*
X196351Y6468D01*
X196487Y7500D01*
X196351Y8532D01*
X195953Y9493D01*
X195319Y10319D01*
X194493Y10953D01*
X193532Y11351D01*
X192500Y11487D01*
D02*
G37*
G36*
X182500D02*
X181468Y11351D01*
X180507Y10953D01*
X179681Y10319D01*
X179047Y9493D01*
X178649Y8532D01*
X178513Y7500D01*
X178649Y6468D01*
X179047Y5507D01*
X179681Y4681D01*
X180507Y4047D01*
X181468Y3649D01*
X182500Y3513D01*
X183532Y3649D01*
X184493Y4047D01*
X185319Y4681D01*
X185953Y5507D01*
X186351Y6468D01*
X186487Y7500D01*
X186351Y8532D01*
X185953Y9493D01*
X185319Y10319D01*
X184493Y10953D01*
X183532Y11351D01*
X182500Y11487D01*
D02*
G37*
G36*
X172500D02*
X171468Y11351D01*
X170507Y10953D01*
X169681Y10319D01*
X169047Y9493D01*
X168649Y8532D01*
X168513Y7500D01*
X168649Y6468D01*
X169047Y5507D01*
X169681Y4681D01*
X170507Y4047D01*
X171468Y3649D01*
X172500Y3513D01*
X173532Y3649D01*
X174493Y4047D01*
X175319Y4681D01*
X175953Y5507D01*
X176351Y6468D01*
X176487Y7500D01*
X176351Y8532D01*
X175953Y9493D01*
X175319Y10319D01*
X174493Y10953D01*
X173532Y11351D01*
X172500Y11487D01*
D02*
G37*
G36*
X162500D02*
X161468Y11351D01*
X160507Y10953D01*
X159681Y10319D01*
X159047Y9493D01*
X158649Y8532D01*
X158513Y7500D01*
X158649Y6468D01*
X159047Y5507D01*
X159681Y4681D01*
X160507Y4047D01*
X161468Y3649D01*
X162500Y3513D01*
X163532Y3649D01*
X164493Y4047D01*
X165319Y4681D01*
X165953Y5507D01*
X166351Y6468D01*
X166487Y7500D01*
X166351Y8532D01*
X165953Y9493D01*
X165319Y10319D01*
X164493Y10953D01*
X163532Y11351D01*
X162500Y11487D01*
D02*
G37*
G36*
X142500D02*
X141468Y11351D01*
X140507Y10953D01*
X139681Y10319D01*
X139047Y9493D01*
X138649Y8532D01*
X138513Y7500D01*
X138649Y6468D01*
X139047Y5507D01*
X139681Y4681D01*
X140507Y4047D01*
X141468Y3649D01*
X142500Y3513D01*
X143532Y3649D01*
X144493Y4047D01*
X145319Y4681D01*
X145953Y5507D01*
X146351Y6468D01*
X146487Y7500D01*
X146351Y8532D01*
X145953Y9493D01*
X145319Y10319D01*
X144493Y10953D01*
X143532Y11351D01*
X142500Y11487D01*
D02*
G37*
G36*
X132500D02*
X131468Y11351D01*
X130507Y10953D01*
X129681Y10319D01*
X129047Y9493D01*
X128649Y8532D01*
X128513Y7500D01*
X128649Y6468D01*
X129047Y5507D01*
X129681Y4681D01*
X130507Y4047D01*
X131468Y3649D01*
X132500Y3513D01*
X133532Y3649D01*
X134493Y4047D01*
X135319Y4681D01*
X135953Y5507D01*
X136351Y6468D01*
X136487Y7500D01*
X136351Y8532D01*
X135953Y9493D01*
X135319Y10319D01*
X134493Y10953D01*
X133532Y11351D01*
X132500Y11487D01*
D02*
G37*
G36*
X122500D02*
X121468Y11351D01*
X120507Y10953D01*
X119681Y10319D01*
X119047Y9493D01*
X118649Y8532D01*
X118513Y7500D01*
X118649Y6468D01*
X119047Y5507D01*
X119681Y4681D01*
X120507Y4047D01*
X121468Y3649D01*
X122500Y3513D01*
X123532Y3649D01*
X124493Y4047D01*
X125319Y4681D01*
X125953Y5507D01*
X126351Y6468D01*
X126487Y7500D01*
X126351Y8532D01*
X125953Y9493D01*
X125319Y10319D01*
X124493Y10953D01*
X123532Y11351D01*
X122500Y11487D01*
D02*
G37*
G36*
X112500D02*
X111468Y11351D01*
X110507Y10953D01*
X109681Y10319D01*
X109047Y9493D01*
X108649Y8532D01*
X108513Y7500D01*
X108649Y6468D01*
X109047Y5507D01*
X109681Y4681D01*
X110507Y4047D01*
X111468Y3649D01*
X112500Y3513D01*
X113532Y3649D01*
X114493Y4047D01*
X115319Y4681D01*
X115953Y5507D01*
X116351Y6468D01*
X116487Y7500D01*
X116351Y8532D01*
X115953Y9493D01*
X115319Y10319D01*
X114493Y10953D01*
X113532Y11351D01*
X112500Y11487D01*
D02*
G37*
G36*
X102500D02*
X101468Y11351D01*
X100507Y10953D01*
X99681Y10319D01*
X99047Y9493D01*
X98649Y8532D01*
X98513Y7500D01*
X98649Y6468D01*
X99047Y5507D01*
X99681Y4681D01*
X100507Y4047D01*
X101468Y3649D01*
X102500Y3513D01*
X103532Y3649D01*
X104493Y4047D01*
X105319Y4681D01*
X105953Y5507D01*
X106351Y6468D01*
X106487Y7500D01*
X106351Y8532D01*
X105953Y9493D01*
X105319Y10319D01*
X104493Y10953D01*
X103532Y11351D01*
X102500Y11487D01*
D02*
G37*
G36*
X92500D02*
X91468Y11351D01*
X90507Y10953D01*
X89681Y10319D01*
X89047Y9493D01*
X88649Y8532D01*
X88513Y7500D01*
X88649Y6468D01*
X89047Y5507D01*
X89681Y4681D01*
X90507Y4047D01*
X91468Y3649D01*
X92500Y3513D01*
X93532Y3649D01*
X94493Y4047D01*
X95319Y4681D01*
X95953Y5507D01*
X96351Y6468D01*
X96487Y7500D01*
X96351Y8532D01*
X95953Y9493D01*
X95319Y10319D01*
X94493Y10953D01*
X93532Y11351D01*
X92500Y11487D01*
D02*
G37*
%LPD*%
D25*
X38000Y7500D02*
X45500Y15000D01*
X59500Y5000D02*
X72000Y17500D01*
X28000Y7500D02*
Y23500D01*
X59500Y15000D02*
X97000Y52500D01*
X192500Y87257D02*
Y87500D01*
X92000Y57500D02*
X144500D01*
X69500Y35000D02*
X92000Y57500D01*
X210000Y75000D02*
X222500Y87500D01*
X146571Y52500D02*
X169071Y75000D01*
X210000D01*
X167000Y80000D02*
X185243D01*
X192500Y87257D01*
X144500Y57500D02*
X167000Y80000D01*
X39500Y35000D02*
X69500D01*
X28000Y23500D02*
X39500Y35000D01*
X45500Y15000D02*
X59500D01*
X97000Y52500D02*
X146571D01*
X141926Y26926D02*
X142500Y27500D01*
X141926Y24926D02*
Y26926D01*
X134500Y17500D02*
X141926Y24926D01*
X72000Y17500D02*
X134500D01*
D28*
X82500Y87500D02*
D03*
X92500D02*
D03*
X102500D02*
D03*
X112500D02*
D03*
X122500D02*
D03*
X132500D02*
D03*
X142500D02*
D03*
X152500D02*
D03*
X162500D02*
D03*
X172500D02*
D03*
X182500D02*
D03*
X192500D02*
D03*
X202500D02*
D03*
X212500D02*
D03*
X222500D02*
D03*
X232500D02*
D03*
X242500D02*
D03*
X252500D02*
D03*
X262500D02*
D03*
X272500D02*
D03*
X282500D02*
D03*
X292500D02*
D03*
X302500D02*
D03*
X312500D02*
D03*
Y27500D02*
D03*
X302500D02*
D03*
X292500D02*
D03*
X282500D02*
D03*
X272500D02*
D03*
X262500D02*
D03*
X252500D02*
D03*
X242500D02*
D03*
X232500D02*
D03*
X222500D02*
D03*
X212500D02*
D03*
X202500D02*
D03*
X192500D02*
D03*
X182500D02*
D03*
X172500D02*
D03*
X162500D02*
D03*
X152500D02*
D03*
X142500D02*
D03*
X132500D02*
D03*
X122500D02*
D03*
X112500D02*
D03*
X102500D02*
D03*
X92500D02*
D03*
X117000Y47500D02*
D03*
X137000D02*
D03*
X57500Y107500D02*
D03*
X37500D02*
D03*
X57500Y97500D02*
D03*
X37500D02*
D03*
X137000Y67500D02*
D03*
X127000D02*
D03*
X117000D02*
D03*
X107000D02*
D03*
X162500Y37500D02*
D03*
X152500D02*
D03*
X312500D02*
D03*
X302500D02*
D03*
X82500Y77500D02*
D03*
X92500D02*
D03*
X18000Y87500D02*
D03*
X28000D02*
D03*
X38000D02*
D03*
X48000D02*
D03*
X18000Y7500D02*
D03*
X28000D02*
D03*
X38000D02*
D03*
X48000D02*
D03*
D29*
X82500Y27500D02*
D03*
X8000Y87500D02*
D03*
D30*
X13000Y102500D02*
D03*
X18000Y102500D02*
D03*
D31*
X23000Y102500D02*
D03*
D32*
X42976Y23784D02*
D03*
Y71185D02*
D03*
D33*
X53646Y42563D02*
D03*
Y52406D02*
D03*
X61520D02*
D03*
D34*
Y42563D02*
D03*
D35*
X292500Y47500D02*
D03*
Y57500D02*
D03*
Y67500D02*
D03*
X82500Y107500D02*
D03*
X92500D02*
D03*
X102500D02*
D03*
X112500D02*
D03*
X122500D02*
D03*
X132500D02*
D03*
X142500D02*
D03*
X152500D02*
D03*
X162500D02*
D03*
X172500D02*
D03*
X182500D02*
D03*
X192500D02*
D03*
X202500D02*
D03*
X212500D02*
D03*
X222500D02*
D03*
X232500D02*
D03*
X242500D02*
D03*
X252500D02*
D03*
X262500D02*
D03*
X272500D02*
D03*
X282500D02*
D03*
X292500D02*
D03*
X302500D02*
D03*
X312500Y7500D02*
D03*
X302500D02*
D03*
X292500D02*
D03*
X282500D02*
D03*
X272500D02*
D03*
X262500D02*
D03*
X252500D02*
D03*
X242500D02*
D03*
X232500D02*
D03*
X222500D02*
D03*
X212500D02*
D03*
X202500D02*
D03*
X192500D02*
D03*
X182500D02*
D03*
X172500D02*
D03*
X162500D02*
D03*
X152500D02*
D03*
X142500D02*
D03*
X132500D02*
D03*
X122500D02*
D03*
X112500D02*
D03*
X102500D02*
D03*
X92500D02*
D03*
D36*
X292500Y77500D02*
D03*
D37*
X312500Y107500D02*
D03*
X82500Y7500D02*
D03*
D38*
X152500Y77500D02*
D03*
X122500D02*
D03*
D39*
X18000Y7600D02*
X18400D01*
X24000Y2000D02*
X56500D01*
X59500Y5000D01*
X18400Y7600D02*
X24000Y2000D01*
M02*
