M48
;Layer_Color=9474304
;FILE_FORMAT=2:5
INCH,TZ
;TYPE=PLATED
T1F00S00C0.03000
T2F00S00C0.03346
T3F00S00C0.03543
T4F00S00C0.03937
T5F00S00C0.09449
%
T01
X18000Y7500
X28000
X38000
X48000
X82500Y27500
X92500
X102500
X112500
X122500
X132500
X142500
X152500
Y37500
X137000Y47500
X117000
Y67500
X127000
X137000
X132500Y87500
X122500
X112500
X102500
X92500
X82500
Y77500
X92500
X107000Y67500
X142500Y87500
X152500
X48000
X38000
X28000
X18000
X8000
X37500Y97500
Y107500
X57500
Y97500
X162500Y87500
X172500
X182500
X192500
X202500
X212500
X222500
X232500
X242500
X252500
X262500
X272500
X282500
X292500
X302500
Y37500
Y27500
X292500
X282500
X272500
X262500
X252500
X242500
X232500
X222500
X212500
X202500
X192500
X182500
X172500
X162500
Y37500
X312500
Y27500
Y87500
T02
X122500Y77500
X152500
T03
X82500Y7500
X92500
X102500
X112500
X122500
X132500
X142500
X152500
Y107500
X142500
X132500
X122500
X112500
X102500
X92500
X82500
X23000Y102500
X18000Y102500
X13000Y102500
X162500Y107500
X172500
X182500
X192500
X202500
X212500
X222500
X232500
X242500
X252500
X262500
X272500
X282500
X292500
X302500
X292500Y77500
Y67500
Y57500
Y47500
Y7500
X302500
X282500
X272500
X262500
X252500
X242500
X232500
X222500
X212500
X202500
X192500
X182500
X172500
X162500
X312500
Y107500
T04
X53646Y42563
X61520
Y52406
X53646
T05
X42976Y23784
Y71185
M30
