G04*
G04 #@! TF.GenerationSoftware,Altium Limited,Altium Designer,20.0.10 (225)*
G04*
G04 Layer_Color=255*
%FSLAX25Y25*%
%MOIN*%
G70*
G01*
G75*
%ADD28C,0.06000*%
G04:AMPARAMS|DCode=29|XSize=60mil|YSize=60mil|CornerRadius=15mil|HoleSize=0mil|Usage=FLASHONLY|Rotation=0.000|XOffset=0mil|YOffset=0mil|HoleType=Round|Shape=RoundedRectangle|*
%AMROUNDEDRECTD29*
21,1,0.06000,0.03000,0,0,0.0*
21,1,0.03000,0.06000,0,0,0.0*
1,1,0.03000,0.01500,-0.01500*
1,1,0.03000,-0.01500,-0.01500*
1,1,0.03000,-0.01500,0.01500*
1,1,0.03000,0.01500,0.01500*
%
%ADD29ROUNDEDRECTD29*%
%ADD30O,0.03937X0.07874*%
%ADD31O,0.03937X0.07874*%
%ADD32C,0.10827*%
%ADD33C,0.05315*%
%ADD34R,0.05315X0.05315*%
%ADD35C,0.05906*%
%ADD36R,0.05906X0.05906*%
%ADD37R,0.05906X0.05906*%
%ADD38C,0.05512*%
D28*
X82500Y87500D02*
D03*
X92500D02*
D03*
X102500D02*
D03*
X112500D02*
D03*
X122500D02*
D03*
X132500D02*
D03*
X142500D02*
D03*
X152500D02*
D03*
X162500D02*
D03*
X172500D02*
D03*
X182500D02*
D03*
X192500D02*
D03*
X202500D02*
D03*
X212500D02*
D03*
X222500D02*
D03*
X232500D02*
D03*
X242500D02*
D03*
X252500D02*
D03*
X262500D02*
D03*
X272500D02*
D03*
X282500D02*
D03*
X292500D02*
D03*
X302500D02*
D03*
X312500D02*
D03*
Y27500D02*
D03*
X302500D02*
D03*
X292500D02*
D03*
X282500D02*
D03*
X272500D02*
D03*
X262500D02*
D03*
X252500D02*
D03*
X242500D02*
D03*
X232500D02*
D03*
X222500D02*
D03*
X212500D02*
D03*
X202500D02*
D03*
X192500D02*
D03*
X182500D02*
D03*
X172500D02*
D03*
X162500D02*
D03*
X152500D02*
D03*
X142500D02*
D03*
X132500D02*
D03*
X122500D02*
D03*
X112500D02*
D03*
X102500D02*
D03*
X92500D02*
D03*
X117000Y47500D02*
D03*
X137000D02*
D03*
X57500Y107500D02*
D03*
X37500D02*
D03*
X57500Y97500D02*
D03*
X37500D02*
D03*
X137000Y67500D02*
D03*
X127000D02*
D03*
X117000D02*
D03*
X107000D02*
D03*
X162500Y37500D02*
D03*
X152500D02*
D03*
X312500D02*
D03*
X302500D02*
D03*
X82500Y77500D02*
D03*
X92500D02*
D03*
X18000Y87500D02*
D03*
X28000D02*
D03*
X38000D02*
D03*
X48000D02*
D03*
X18000Y7500D02*
D03*
X28000D02*
D03*
X38000D02*
D03*
X48000D02*
D03*
D29*
X82500Y27500D02*
D03*
X8000Y87500D02*
D03*
D30*
X13000Y102500D02*
D03*
X18000Y102500D02*
D03*
D31*
X23000Y102500D02*
D03*
D32*
X42976Y23784D02*
D03*
Y71185D02*
D03*
D33*
X53646Y42563D02*
D03*
Y52406D02*
D03*
X61520D02*
D03*
D34*
Y42563D02*
D03*
D35*
X292500Y47500D02*
D03*
Y57500D02*
D03*
Y67500D02*
D03*
X82500Y107500D02*
D03*
X92500D02*
D03*
X102500D02*
D03*
X112500D02*
D03*
X122500D02*
D03*
X132500D02*
D03*
X142500D02*
D03*
X152500D02*
D03*
X162500D02*
D03*
X172500D02*
D03*
X182500D02*
D03*
X192500D02*
D03*
X202500D02*
D03*
X212500D02*
D03*
X222500D02*
D03*
X232500D02*
D03*
X242500D02*
D03*
X252500D02*
D03*
X262500D02*
D03*
X272500D02*
D03*
X282500D02*
D03*
X292500D02*
D03*
X302500D02*
D03*
X312500Y7500D02*
D03*
X302500D02*
D03*
X292500D02*
D03*
X282500D02*
D03*
X272500D02*
D03*
X262500D02*
D03*
X252500D02*
D03*
X242500D02*
D03*
X232500D02*
D03*
X222500D02*
D03*
X212500D02*
D03*
X202500D02*
D03*
X192500D02*
D03*
X182500D02*
D03*
X172500D02*
D03*
X162500D02*
D03*
X152500D02*
D03*
X142500D02*
D03*
X132500D02*
D03*
X122500D02*
D03*
X112500D02*
D03*
X102500D02*
D03*
X92500D02*
D03*
D36*
X292500Y77500D02*
D03*
D37*
X312500Y107500D02*
D03*
X82500Y7500D02*
D03*
D38*
X152500Y77500D02*
D03*
X122500D02*
D03*
M02*
