G04*
G04 #@! TF.GenerationSoftware,Altium Limited,Altium Designer,20.0.10 (225)*
G04*
G04 Layer_Color=65535*
%FSLAX25Y25*%
%MOIN*%
G70*
G01*
G75*
%ADD10C,0.01000*%
%ADD11C,0.00787*%
%ADD12C,0.00984*%
%ADD13C,0.00600*%
D10*
X137000Y37500D02*
X138012Y37551D01*
X139013Y37705D01*
X139994Y37959D01*
X140944Y38310D01*
X141853Y38756D01*
X142713Y39292D01*
X143514Y39912D01*
X144248Y40610D01*
X144908Y41379D01*
X145486Y42210D01*
X145978Y43096D01*
X146378Y44027D01*
X146681Y44993D01*
X146885Y45986D01*
X146987Y46993D01*
X146987Y48006D01*
X146885Y49014D01*
X146681Y50007D01*
X146378Y50973D01*
X145978Y51904D01*
X145486Y52790D01*
X144908Y53621D01*
X144248Y54390D01*
X143514Y55088D01*
X142713Y55708D01*
X141853Y56243D01*
X140944Y56690D01*
X139994Y57041D01*
X139013Y57295D01*
X138012Y57449D01*
X137000Y57500D01*
X117000Y57500D02*
X115986Y57452D01*
X114983Y57301D01*
X114000Y57050D01*
X113047Y56700D01*
X112135Y56255D01*
X111273Y55721D01*
X110469Y55101D01*
X109732Y54403D01*
X109070Y53635D01*
X108488Y52803D01*
X107995Y51916D01*
X107593Y50984D01*
X107288Y50016D01*
X107083Y49022D01*
X106980Y48013D01*
X106979Y46998D01*
X107081Y45989D01*
X107286Y44995D01*
X107589Y44026D01*
X107990Y43094D01*
X108483Y42207D01*
X109063Y41374D01*
X109724Y40605D01*
X110460Y39906D01*
X111263Y39286D01*
X112125Y38750D01*
X113037Y38304D01*
X113989Y37954D01*
X114972Y37701D01*
X115975Y37549D01*
X116989Y37500D01*
X96623Y57500D02*
X96503Y58487D01*
X96151Y59416D01*
X95586Y60234D01*
X94842Y60893D01*
X93962Y61355D01*
X92997Y61593D01*
X92003D01*
X91038Y61355D01*
X90158Y60893D01*
X89414Y60234D01*
X88849Y59416D01*
X88497Y58487D01*
X88377Y57500D01*
X88497Y56513D01*
X88849Y55584D01*
X89414Y54766D01*
X90158Y54107D01*
X91038Y53645D01*
X92003Y53407D01*
X92997D01*
X93962Y53645D01*
X94842Y54107D01*
X95586Y54766D01*
X96151Y55584D01*
X96503Y56513D01*
X96623Y57500D01*
X315500Y91500D02*
X317500D01*
Y87500D02*
Y91500D01*
X315500Y23500D02*
X317500D01*
Y27500D01*
X77500Y23500D02*
X79500D01*
X77500D02*
Y27500D01*
Y91500D02*
X79500D01*
X77500Y87500D02*
Y91500D01*
X117000Y57500D02*
X137000D01*
X117000Y37500D02*
X137000D01*
X61500Y109500D02*
Y111500D01*
X59500D02*
X61500D01*
Y103500D02*
Y105500D01*
X59500Y103500D02*
X61500D01*
X33500Y111500D02*
X35500D01*
X33500Y109500D02*
Y111500D01*
Y103500D02*
Y105500D01*
Y103500D02*
X35500D01*
X46500Y104500D02*
Y110500D01*
X43500Y107500D02*
X46500D01*
X48500D02*
X51500D01*
X48500Y104500D02*
Y110500D01*
X61500Y99500D02*
Y101500D01*
X59500D02*
X61500D01*
Y93500D02*
Y95500D01*
X59500Y93500D02*
X61500D01*
X33500Y101500D02*
X35500D01*
X33500Y99500D02*
Y101500D01*
Y93500D02*
Y95500D01*
Y93500D02*
X35500D01*
X46500Y94500D02*
Y100500D01*
X43500Y97500D02*
X46500D01*
X48500D02*
X51500D01*
X48500Y94500D02*
Y100500D01*
X139400Y63500D02*
X141000D01*
X123000Y71500D02*
X124500D01*
X123000Y70000D02*
Y71500D01*
Y63500D02*
X124500D01*
X123000D02*
Y65000D01*
X139500Y71500D02*
X141000D01*
Y70000D02*
Y71500D01*
Y63500D02*
Y65000D01*
X132000Y64500D02*
Y70500D01*
X119400Y63500D02*
X121000D01*
X103000Y71500D02*
X104500D01*
X103000Y70000D02*
Y71500D01*
Y63500D02*
X104500D01*
X103000D02*
Y65000D01*
X119500Y71500D02*
X121000D01*
Y70000D02*
Y71500D01*
Y63500D02*
Y65000D01*
X112000Y64500D02*
Y70500D01*
X164900Y33500D02*
X166500D01*
X148500Y41500D02*
X150000D01*
X148500Y40000D02*
Y41500D01*
Y33500D02*
X150000D01*
X148500D02*
Y35000D01*
X165000Y41500D02*
X166500D01*
Y40000D02*
Y41500D01*
Y33500D02*
Y35000D01*
X157500Y34500D02*
Y40500D01*
X314900Y33500D02*
X316500D01*
X298500Y41500D02*
X300000D01*
X298500Y40000D02*
Y41500D01*
Y33500D02*
X300000D01*
X298500D02*
Y35000D01*
X315000Y41500D02*
X316500D01*
Y40000D02*
Y41500D01*
Y33500D02*
Y35000D01*
X307500Y34500D02*
Y40500D01*
X78500Y81500D02*
X80100D01*
X95000Y73500D02*
X96500D01*
Y75000D01*
X95000Y81500D02*
X96500D01*
Y80000D02*
Y81500D01*
X78500Y73500D02*
X80000D01*
X78500D02*
Y75000D01*
Y80000D02*
Y81500D01*
X87500Y74500D02*
Y80500D01*
X3000Y87500D02*
Y91500D01*
X5000D01*
X13000Y3500D02*
Y7500D01*
Y3500D02*
X15000D01*
X53000D02*
Y7500D01*
X51000Y3500D02*
X53000D01*
Y87500D02*
Y91500D01*
X51000D02*
X53000D01*
X271999Y49498D02*
X270999Y50498D01*
X269000D01*
X268000Y49498D01*
Y45500D01*
X269000Y44500D01*
X270999D01*
X271999Y45500D01*
Y47499D01*
X269999D01*
X273998Y44500D02*
Y50498D01*
X277997Y44500D01*
Y50498D01*
X279996D02*
Y44500D01*
X282995D01*
X283995Y45500D01*
Y49498D01*
X282995Y50498D01*
X279996D01*
X262000Y54500D02*
Y60498D01*
X265999Y54500D01*
Y60498D01*
X271997Y59498D02*
X270997Y60498D01*
X268998D01*
X267998Y59498D01*
Y58499D01*
X268998Y57499D01*
X270997D01*
X271997Y56499D01*
Y55500D01*
X270997Y54500D01*
X268998D01*
X267998Y55500D01*
X273996Y54500D02*
Y60498D01*
X276995D01*
X277995Y59498D01*
Y57499D01*
X276995Y56499D01*
X273996D01*
X275995D02*
X277995Y54500D01*
X279994Y60498D02*
X283993D01*
X281994D01*
Y54500D01*
X259999Y69498D02*
X258999Y70498D01*
X257000D01*
X256000Y69498D01*
Y68499D01*
X257000Y67499D01*
X258999D01*
X259999Y66499D01*
Y65500D01*
X258999Y64500D01*
X257000D01*
X256000Y65500D01*
X261998Y70498D02*
Y64500D01*
X263997Y66499D01*
X265997Y64500D01*
Y70498D01*
X271995Y69498D02*
X270995Y70498D01*
X268996D01*
X267996Y69498D01*
Y65500D01*
X268996Y64500D01*
X270995D01*
X271995Y65500D01*
X273994Y70498D02*
Y64500D01*
X277993D01*
X279992Y70498D02*
Y64500D01*
Y66499D01*
X283991Y70498D01*
X280992Y67499D01*
X283991Y64500D01*
X259999Y79498D02*
X258999Y80498D01*
X257000D01*
X256000Y79498D01*
Y78499D01*
X257000Y77499D01*
X258999D01*
X259999Y76499D01*
Y75500D01*
X258999Y74500D01*
X257000D01*
X256000Y75500D01*
X261998Y80498D02*
Y74500D01*
X263997Y76499D01*
X265997Y74500D01*
Y80498D01*
X267996D02*
Y74500D01*
X270995D01*
X271995Y75500D01*
Y79498D01*
X270995Y80498D01*
X267996D01*
X273994Y74500D02*
Y78499D01*
X275993Y80498D01*
X277993Y78499D01*
Y74500D01*
Y77499D01*
X273994D01*
X279992Y80498D02*
X283991D01*
X281992D01*
Y74500D01*
X68500Y99499D02*
X67501Y100499D01*
X65501D01*
X64502Y99499D01*
Y95501D01*
X65501Y94501D01*
X67501D01*
X68500Y95501D01*
X74498Y94501D02*
X70500D01*
X74498Y98500D01*
Y99499D01*
X73499Y100499D01*
X71499D01*
X70500Y99499D01*
X69500Y109499D02*
X68500Y110499D01*
X66501D01*
X65501Y109499D01*
Y105501D01*
X66501Y104501D01*
X68500D01*
X69500Y105501D01*
X71499Y104501D02*
X73499D01*
X72499D01*
Y110499D01*
X71499Y109499D01*
X70000Y78999D02*
X69001Y79999D01*
X67001D01*
X66002Y78999D01*
Y75001D01*
X67001Y74001D01*
X69001D01*
X70000Y75001D01*
X75998Y79999D02*
X72000D01*
Y77000D01*
X73999Y78000D01*
X74999D01*
X75998Y77000D01*
Y75001D01*
X74999Y74001D01*
X72999D01*
X72000Y75001D01*
X288500Y39499D02*
X287501Y40499D01*
X285501D01*
X284502Y39499D01*
Y35501D01*
X285501Y34501D01*
X287501D01*
X288500Y35501D01*
X293499Y34501D02*
Y40499D01*
X290500Y37500D01*
X294498D01*
X160000Y48499D02*
X159001Y49499D01*
X157001D01*
X156002Y48499D01*
Y44501D01*
X157001Y43501D01*
X159001D01*
X160000Y44501D01*
X162000Y48499D02*
X162999Y49499D01*
X164999D01*
X165998Y48499D01*
Y47500D01*
X164999Y46500D01*
X163999D01*
X164999D01*
X165998Y45500D01*
Y44501D01*
X164999Y43501D01*
X162999D01*
X162000Y44501D01*
X95000Y69499D02*
X94001Y70499D01*
X92001D01*
X91002Y69499D01*
Y65501D01*
X92001Y64501D01*
X94001D01*
X95000Y65501D01*
X97000Y70499D02*
X100998D01*
Y69499D01*
X97000Y65501D01*
Y64501D01*
X149000Y69499D02*
X148001Y70499D01*
X146001D01*
X145002Y69499D01*
Y65501D01*
X146001Y64501D01*
X148001D01*
X149000Y65501D01*
X154998Y70499D02*
X152999Y69499D01*
X151000Y67500D01*
Y65501D01*
X151999Y64501D01*
X153999D01*
X154998Y65501D01*
Y66500D01*
X153999Y67500D01*
X151000D01*
D11*
X26546Y96516D02*
X27075Y97352D01*
X27521Y98235D01*
X27883Y99156D01*
X28155Y100107D01*
X28336Y101079D01*
X28424Y102065D01*
X28418Y103054D01*
X28319Y104038D01*
X28127Y105009D01*
X27844Y105956D01*
X27472Y106873D01*
X27015Y107751D01*
X26478Y108581D01*
X25864Y109357D01*
X25179Y110071D01*
X24430Y110716D01*
X23622Y111288D01*
X22765Y111782D01*
X21864Y112191D01*
X20929Y112513D01*
X19967Y112746D01*
X18988Y112886D01*
X18000Y112933D01*
X17012Y112886D01*
X16033Y112746D01*
X15071Y112513D01*
X14136Y112191D01*
X13235Y111782D01*
X12378Y111288D01*
X11570Y110716D01*
X10821Y110071D01*
X10137Y109357D01*
X9522Y108581D01*
X8985Y107751D01*
X8528Y106873D01*
X8156Y105956D01*
X7873Y105009D01*
X7681Y104038D01*
X7582Y103054D01*
X7576Y102065D01*
X7664Y101079D01*
X7845Y100107D01*
X8117Y99156D01*
X8479Y98235D01*
X8925Y97352D01*
X9454Y96516D01*
X9454Y96516D02*
X26546Y96516D01*
X65496Y23469D02*
Y37468D01*
Y57500D02*
Y71500D01*
X49957Y23469D02*
X65496D01*
X49957Y71500D02*
X65496D01*
X2504Y23469D02*
X35996D01*
X2504Y71500D02*
X35996D01*
X2504Y23469D02*
Y71500D01*
X297500Y42500D02*
Y82500D01*
X302500Y45833D02*
X315833D01*
X317500Y47500D01*
X315833Y49167D02*
X317500Y47500D01*
X302500Y49167D02*
X315833D01*
X302500Y55833D02*
X315833D01*
X317500Y57500D01*
X315833Y59167D02*
X317500Y57500D01*
X302500Y59167D02*
X315833D01*
X302500Y65833D02*
X315833D01*
X317500Y67500D01*
X315833Y69167D02*
X317500Y67500D01*
X302500Y69167D02*
X315833D01*
X302500Y75833D02*
X315833D01*
X317500Y77500D01*
X315833Y79167D02*
X317500Y77500D01*
X302500Y79167D02*
X315833D01*
X297500Y82500D02*
X302500D01*
X297500Y42500D02*
X302500D01*
Y82500D01*
X77500Y102500D02*
X310000D01*
X317500D01*
Y112500D01*
X77500D02*
X317500D01*
X77500Y102500D02*
Y112500D01*
X85000Y12500D02*
X317500D01*
X77500D02*
X85000D01*
X77500Y2500D02*
Y12500D01*
Y2500D02*
X317500D01*
Y12500D01*
X147500Y77500D02*
Y80500D01*
X127500D02*
X147500D01*
X127500Y74500D02*
Y80500D01*
Y74500D02*
X147500D01*
Y77500D01*
X126600D02*
X127500D01*
X147500D02*
X148400D01*
D12*
X6669Y97102D02*
X5931Y97529D01*
Y96676D01*
X6669Y97102D01*
X68350Y42563D02*
X67612Y42989D01*
Y42137D01*
X68350Y42563D01*
D13*
X81534Y92500D02*
X81001Y93033D01*
Y94099D01*
X81534Y94633D01*
X82067D01*
X82600Y94099D01*
Y93566D01*
Y94099D01*
X83134Y94633D01*
X83667D01*
X84200Y94099D01*
Y93033D01*
X83667Y92500D01*
X81001Y95699D02*
X83134D01*
X84200Y96765D01*
X83134Y97832D01*
X81001D01*
X81534Y98898D02*
X81001Y99431D01*
Y100497D01*
X81534Y101031D01*
X82067D01*
X82600Y100497D01*
Y99964D01*
Y100497D01*
X83134Y101031D01*
X83667D01*
X84200Y100497D01*
Y99431D01*
X83667Y98898D01*
X91534Y94633D02*
X91001Y94099D01*
Y93033D01*
X91534Y92500D01*
X93667D01*
X94200Y93033D01*
Y94099D01*
X93667Y94633D01*
X92601D01*
Y93566D01*
X94200Y95699D02*
X91001D01*
X94200Y97832D01*
X91001D01*
Y98898D02*
X94200D01*
Y100497D01*
X93667Y101031D01*
X91534D01*
X91001Y100497D01*
Y98898D01*
X114200Y92500D02*
X111001D01*
Y94099D01*
X111534Y94633D01*
X112601D01*
X113134Y94099D01*
Y92500D01*
X111001Y95699D02*
X114200D01*
Y97299D01*
X113667Y97832D01*
X113134D01*
X112601Y97299D01*
Y95699D01*
Y97299D01*
X112067Y97832D01*
X111534D01*
X111001Y97299D01*
Y95699D01*
X111534Y98898D02*
X111001Y99431D01*
Y100497D01*
X111534Y101031D01*
X112067D01*
X112601Y100497D01*
X113134Y101031D01*
X113667D01*
X114200Y100497D01*
Y99431D01*
X113667Y98898D01*
X113134D01*
X112601Y99431D01*
X112067Y98898D01*
X111534D01*
X112601Y99431D02*
Y100497D01*
X104200Y92500D02*
X101001D01*
Y94099D01*
X101534Y94633D01*
X102601D01*
X103134Y94099D01*
Y92500D01*
X101001Y95699D02*
X104200D01*
Y97299D01*
X103667Y97832D01*
X103134D01*
X102601Y97299D01*
Y95699D01*
Y97299D01*
X102067Y97832D01*
X101534D01*
X101001Y97299D01*
Y95699D01*
X103667Y98898D02*
X104200Y99431D01*
Y100497D01*
X103667Y101031D01*
X101534D01*
X101001Y100497D01*
Y99431D01*
X101534Y98898D01*
X102067D01*
X102601Y99431D01*
Y101031D01*
X144200Y92500D02*
X141001D01*
Y94099D01*
X141534Y94633D01*
X142601D01*
X143134Y94099D01*
Y92500D01*
X141001Y95699D02*
X144200D01*
Y97299D01*
X143667Y97832D01*
X143134D01*
X142601Y97299D01*
Y95699D01*
Y97299D01*
X142067Y97832D01*
X141534D01*
X141001Y97299D01*
Y95699D01*
Y101031D02*
X141534Y99964D01*
X142601Y98898D01*
X143667D01*
X144200Y99431D01*
Y100497D01*
X143667Y101031D01*
X143134D01*
X142601Y100497D01*
Y98898D01*
X154200Y92500D02*
X151001D01*
Y94099D01*
X151534Y94633D01*
X152601D01*
X153134Y94099D01*
Y92500D01*
X151001Y95699D02*
X154200D01*
Y97299D01*
X153667Y97832D01*
X153134D01*
X152601Y97299D01*
Y95699D01*
Y97299D01*
X152067Y97832D01*
X151534D01*
X151001Y97299D01*
Y95699D01*
Y101031D02*
Y98898D01*
X152601D01*
X152067Y99964D01*
Y100497D01*
X152601Y101031D01*
X153667D01*
X154200Y100497D01*
Y99431D01*
X153667Y98898D01*
X121001Y92500D02*
X124200D01*
Y94099D01*
X123667Y94633D01*
X123134D01*
X122600Y94099D01*
Y92500D01*
Y94099D01*
X122067Y94633D01*
X121534D01*
X121001Y94099D01*
Y92500D01*
Y95699D02*
Y97832D01*
Y96765D01*
X124200D01*
X121534Y98898D02*
X121001Y99431D01*
Y100497D01*
X121534Y101031D01*
X123667D01*
X124200Y100497D01*
Y99431D01*
X123667Y98898D01*
X121534D01*
X204200Y92500D02*
X201001D01*
Y94099D01*
X201534Y94633D01*
X202601D01*
X203134Y94099D01*
Y92500D01*
X201001Y97832D02*
Y95699D01*
X202601D01*
Y96765D01*
Y95699D01*
X204200D01*
X201001Y98898D02*
Y101031D01*
X201534D01*
X203667Y98898D01*
X204200D01*
X214200Y92500D02*
X211001D01*
Y94099D01*
X211534Y94633D01*
X212600D01*
X213134Y94099D01*
Y92500D01*
X211001Y97832D02*
Y95699D01*
X212600D01*
Y96765D01*
Y95699D01*
X214200D01*
X211001Y101031D02*
X211534Y99964D01*
X212600Y98898D01*
X213667D01*
X214200Y99431D01*
Y100497D01*
X213667Y101031D01*
X213134D01*
X212600Y100497D01*
Y98898D01*
X234200Y92500D02*
X232067D01*
X231001Y93566D01*
X232067Y94633D01*
X234200D01*
X232600D01*
Y92500D01*
X234200Y95699D02*
Y96765D01*
Y96232D01*
X231001D01*
X231534Y95699D01*
X234200Y100497D02*
Y98365D01*
X232067Y100497D01*
X231534D01*
X231001Y99964D01*
Y98898D01*
X231534Y98365D01*
X221001Y92500D02*
X224200D01*
Y94099D01*
X223667Y94633D01*
X221534D01*
X221001Y94099D01*
Y92500D01*
X224200Y95699D02*
X222067D01*
X221001Y96765D01*
X222067Y97832D01*
X224200D01*
X222601D01*
Y95699D01*
X221001Y98898D02*
Y101031D01*
Y99964D01*
X224200D01*
X184200Y92500D02*
X182067D01*
X181001Y93566D01*
X182067Y94633D01*
X184200D01*
X182600D01*
Y92500D01*
X184200Y95699D02*
Y96765D01*
Y96232D01*
X181001D01*
X181534Y95699D01*
X181001Y100497D02*
Y98365D01*
X182600D01*
X182067Y99431D01*
Y99964D01*
X182600Y100497D01*
X183667D01*
X184200Y99964D01*
Y98898D01*
X183667Y98365D01*
X191534Y94633D02*
X191001Y94099D01*
Y93033D01*
X191534Y92500D01*
X193667D01*
X194200Y93033D01*
Y94099D01*
X193667Y94633D01*
X191001Y95699D02*
X194200D01*
Y97832D01*
X191001Y98898D02*
X194200D01*
X193134D01*
X191001Y101031D01*
X192601Y99431D01*
X194200Y101031D01*
X174200Y92500D02*
X171001D01*
Y94099D01*
X171534Y94633D01*
X172600D01*
X173134Y94099D01*
Y92500D01*
X171001Y95699D02*
X174200D01*
Y97299D01*
X173667Y97832D01*
X173134D01*
X172600Y97299D01*
Y95699D01*
Y97299D01*
X172067Y97832D01*
X171534D01*
X171001Y97299D01*
Y95699D01*
X171534Y98898D02*
X171001Y99431D01*
Y100497D01*
X171534Y101031D01*
X172067D01*
X172600Y100497D01*
Y99964D01*
Y100497D01*
X173134Y101031D01*
X173667D01*
X174200Y100497D01*
Y99431D01*
X173667Y98898D01*
X164200Y92500D02*
X161001D01*
Y94099D01*
X161534Y94633D01*
X162601D01*
X163134Y94099D01*
Y92500D01*
X161001Y95699D02*
X164200D01*
Y97299D01*
X163667Y97832D01*
X163134D01*
X162601Y97299D01*
Y95699D01*
Y97299D01*
X162067Y97832D01*
X161534D01*
X161001Y97299D01*
Y95699D01*
X164200Y100497D02*
X161001D01*
X162601Y98898D01*
Y101031D01*
X264200Y92500D02*
X261001D01*
Y94099D01*
X261534Y94633D01*
X262600D01*
X263134Y94099D01*
Y92500D01*
X264200Y95699D02*
X262067D01*
X261001Y96765D01*
X262067Y97832D01*
X264200D01*
X262600D01*
Y95699D01*
X263667Y98898D02*
X264200Y99431D01*
Y100497D01*
X263667Y101031D01*
X261534D01*
X261001Y100497D01*
Y99431D01*
X261534Y98898D01*
X262067D01*
X262600Y99431D01*
Y101031D01*
X274200Y92500D02*
X271001D01*
Y94099D01*
X271534Y94633D01*
X272601D01*
X273134Y94099D01*
Y92500D01*
X274200Y95699D02*
X272067D01*
X271001Y96765D01*
X272067Y97832D01*
X274200D01*
X272601D01*
Y95699D01*
X271534Y98898D02*
X271001Y99431D01*
Y100497D01*
X271534Y101031D01*
X272067D01*
X272601Y100497D01*
X273134Y101031D01*
X273667D01*
X274200Y100497D01*
Y99431D01*
X273667Y98898D01*
X273134D01*
X272601Y99431D01*
X272067Y98898D01*
X271534D01*
X272601Y99431D02*
Y100497D01*
X254200Y92500D02*
X252067D01*
X251001Y93566D01*
X252067Y94633D01*
X254200D01*
X252601D01*
Y92500D01*
X254200Y95699D02*
Y96765D01*
Y96232D01*
X251001D01*
X251534Y95699D01*
Y98365D02*
X251001Y98898D01*
Y99964D01*
X251534Y100497D01*
X253667D01*
X254200Y99964D01*
Y98898D01*
X253667Y98365D01*
X251534D01*
X244200Y92500D02*
X242067D01*
X241001Y93566D01*
X242067Y94633D01*
X244200D01*
X242600D01*
Y92500D01*
X244200Y95699D02*
Y96765D01*
Y96232D01*
X241001D01*
X241534Y95699D01*
X244200Y98365D02*
Y99431D01*
Y98898D01*
X241001D01*
X241534Y98365D01*
X301001Y92500D02*
X304200D01*
Y94099D01*
X303667Y94633D01*
X303134D01*
X302601Y94099D01*
Y92500D01*
Y94099D01*
X302067Y94633D01*
X301534D01*
X301001Y94099D01*
Y92500D01*
X304200Y95699D02*
Y96765D01*
Y96232D01*
X301001D01*
X301534Y95699D01*
Y98365D02*
X301001Y98898D01*
Y99964D01*
X301534Y100497D01*
X302067D01*
X302601Y99964D01*
Y99431D01*
Y99964D01*
X303134Y100497D01*
X303667D01*
X304200Y99964D01*
Y98898D01*
X303667Y98365D01*
X311001Y92500D02*
X314200D01*
Y94099D01*
X313667Y94633D01*
X313134D01*
X312600Y94099D01*
Y92500D01*
Y94099D01*
X312067Y94633D01*
X311534D01*
X311001Y94099D01*
Y92500D01*
X314200Y95699D02*
Y96765D01*
Y96232D01*
X311001D01*
X311534Y95699D01*
X314200Y100497D02*
Y98365D01*
X312067Y100497D01*
X311534D01*
X311001Y99964D01*
Y98898D01*
X311534Y98365D01*
X291001Y92500D02*
X294200D01*
Y94099D01*
X293667Y94633D01*
X293134D01*
X292600Y94099D01*
Y92500D01*
Y94099D01*
X292067Y94633D01*
X291534D01*
X291001Y94099D01*
Y92500D01*
X294200Y95699D02*
Y96765D01*
Y96232D01*
X291001D01*
X291534Y95699D01*
X294200Y99964D02*
X291001D01*
X292600Y98365D01*
Y100497D01*
X281001Y92500D02*
X284200D01*
Y94099D01*
X283667Y94633D01*
X283134D01*
X282600Y94099D01*
Y92500D01*
Y94099D01*
X282067Y94633D01*
X281534D01*
X281001Y94099D01*
Y92500D01*
X284200Y95699D02*
Y96765D01*
Y96232D01*
X281001D01*
X281534Y95699D01*
X281001Y100497D02*
Y98365D01*
X282600D01*
X282067Y99431D01*
Y99964D01*
X282600Y100497D01*
X283667D01*
X284200Y99964D01*
Y98898D01*
X283667Y98365D01*
X134200Y92500D02*
X131001D01*
Y94099D01*
X131534Y94633D01*
X132600D01*
X133134Y94099D01*
Y92500D01*
X131001Y95699D02*
X134200D01*
Y97299D01*
X133667Y97832D01*
X133134D01*
X132600Y97299D01*
Y95699D01*
Y97299D01*
X132067Y97832D01*
X131534D01*
X131001Y97299D01*
Y95699D01*
Y98898D02*
Y101031D01*
X131534D01*
X133667Y98898D01*
X134200D01*
Y16100D02*
X131001D01*
X134200Y18233D01*
X131001D01*
X131534Y21432D02*
X131001Y20898D01*
Y19832D01*
X131534Y19299D01*
X133667D01*
X134200Y19832D01*
Y20898D01*
X133667Y21432D01*
X281001Y14600D02*
X284200D01*
Y16199D01*
X283667Y16733D01*
X283134D01*
X282600Y16199D01*
Y14600D01*
Y16199D01*
X282067Y16733D01*
X281534D01*
X281001Y16199D01*
Y14600D01*
X284200Y17799D02*
Y18865D01*
Y18332D01*
X281001D01*
X281534Y17799D01*
Y20465D02*
X281001Y20998D01*
Y22064D01*
X281534Y22597D01*
X283667D01*
X284200Y22064D01*
Y20998D01*
X283667Y20465D01*
X281534D01*
X291001Y14600D02*
X294200D01*
Y16199D01*
X293667Y16733D01*
X293134D01*
X292600Y16199D01*
Y14600D01*
Y16199D01*
X292067Y16733D01*
X291534D01*
X291001Y16199D01*
Y14600D01*
X294200Y17799D02*
Y18865D01*
Y18332D01*
X291001D01*
X291534Y17799D01*
X294200Y20465D02*
Y21531D01*
Y20998D01*
X291001D01*
X291534Y20465D01*
X311534Y14600D02*
X311001Y15133D01*
Y16199D01*
X311534Y16733D01*
X312067D01*
X312600Y16199D01*
Y15666D01*
Y16199D01*
X313134Y16733D01*
X313667D01*
X314200Y16199D01*
Y15133D01*
X313667Y14600D01*
X311001Y17799D02*
X313134D01*
X314200Y18865D01*
X313134Y19932D01*
X311001D01*
X311534Y20998D02*
X311001Y21531D01*
Y22597D01*
X311534Y23131D01*
X312067D01*
X312600Y22597D01*
Y22064D01*
Y22597D01*
X313134Y23131D01*
X313667D01*
X314200Y22597D01*
Y21531D01*
X313667Y20998D01*
X301534Y16733D02*
X301001Y16199D01*
Y15133D01*
X301534Y14600D01*
X303667D01*
X304200Y15133D01*
Y16199D01*
X303667Y16733D01*
X302601D01*
Y15666D01*
X304200Y17799D02*
X301001D01*
X304200Y19932D01*
X301001D01*
Y20998D02*
X304200D01*
Y22597D01*
X303667Y23131D01*
X301534D01*
X301001Y22597D01*
Y20998D01*
X244200Y14600D02*
X241001D01*
Y16199D01*
X241534Y16733D01*
X242600D01*
X243134Y16199D01*
Y14600D01*
X244200Y17799D02*
X242067D01*
X241001Y18865D01*
X242067Y19932D01*
X244200D01*
X242600D01*
Y17799D01*
X241001Y20998D02*
Y23131D01*
X241534D01*
X243667Y20998D01*
X244200D01*
X254200Y14600D02*
X251001D01*
Y16199D01*
X251534Y16733D01*
X252601D01*
X253134Y16199D01*
Y14600D01*
X251001Y17799D02*
X254200D01*
Y19399D01*
X253667Y19932D01*
X253134D01*
X252601Y19399D01*
Y17799D01*
Y19399D01*
X252067Y19932D01*
X251534D01*
X251001Y19399D01*
Y17799D01*
X251534Y20998D02*
X251001Y21531D01*
Y22597D01*
X251534Y23131D01*
X253667D01*
X254200Y22597D01*
Y21531D01*
X253667Y20998D01*
X251534D01*
X274200Y14600D02*
X271001D01*
Y16199D01*
X271534Y16733D01*
X272601D01*
X273134Y16199D01*
Y14600D01*
X271001Y17799D02*
X274200D01*
Y19399D01*
X273667Y19932D01*
X273134D01*
X272601Y19399D01*
Y17799D01*
Y19399D01*
X272067Y19932D01*
X271534D01*
X271001Y19399D01*
Y17799D01*
X274200Y23131D02*
Y20998D01*
X272067Y23131D01*
X271534D01*
X271001Y22597D01*
Y21531D01*
X271534Y20998D01*
X264200Y14600D02*
X261001D01*
Y16199D01*
X261534Y16733D01*
X262600D01*
X263134Y16199D01*
Y14600D01*
X261001Y17799D02*
X264200D01*
Y19398D01*
X263667Y19932D01*
X263134D01*
X262600Y19398D01*
Y17799D01*
Y19398D01*
X262067Y19932D01*
X261534D01*
X261001Y19398D01*
Y17799D01*
X264200Y20998D02*
Y22064D01*
Y21531D01*
X261001D01*
X261534Y20998D01*
X161534Y14600D02*
X161001Y15133D01*
Y16199D01*
X161534Y16733D01*
X162067D01*
X162601Y16199D01*
Y15666D01*
Y16199D01*
X163134Y16733D01*
X163667D01*
X164200Y16199D01*
Y15133D01*
X163667Y14600D01*
X161001Y17799D02*
X163134D01*
X164200Y18865D01*
X163134Y19932D01*
X161001D01*
X161534Y20998D02*
X161001Y21531D01*
Y22597D01*
X161534Y23131D01*
X162067D01*
X162601Y22597D01*
Y22064D01*
Y22597D01*
X163134Y23131D01*
X163667D01*
X164200Y22597D01*
Y21531D01*
X163667Y20998D01*
X174200Y14600D02*
X171001D01*
Y16199D01*
X171534Y16733D01*
X172600D01*
X173134Y16199D01*
Y14600D01*
X174200Y17799D02*
X172067D01*
X171001Y18865D01*
X172067Y19932D01*
X174200D01*
X172600D01*
Y17799D01*
X171534Y20998D02*
X171001Y21531D01*
Y22597D01*
X171534Y23131D01*
X173667D01*
X174200Y22597D01*
Y21531D01*
X173667Y20998D01*
X171534D01*
X194200Y14600D02*
X191001D01*
Y16199D01*
X191534Y16733D01*
X192601D01*
X193134Y16199D01*
Y14600D01*
X194200Y17799D02*
X192067D01*
X191001Y18865D01*
X192067Y19932D01*
X194200D01*
X192601D01*
Y17799D01*
X194200Y23131D02*
Y20998D01*
X192067Y23131D01*
X191534D01*
X191001Y22597D01*
Y21531D01*
X191534Y20998D01*
X184200Y14600D02*
X181001D01*
Y16199D01*
X181534Y16733D01*
X182600D01*
X183134Y16199D01*
Y14600D01*
X184200Y17799D02*
X182067D01*
X181001Y18865D01*
X182067Y19932D01*
X184200D01*
X182600D01*
Y17799D01*
X184200Y20998D02*
Y22064D01*
Y21531D01*
X181001D01*
X181534Y20998D01*
X224200Y14600D02*
X221001D01*
Y16199D01*
X221534Y16733D01*
X222601D01*
X223134Y16199D01*
Y14600D01*
X224200Y17799D02*
X222067D01*
X221001Y18865D01*
X222067Y19932D01*
X224200D01*
X222601D01*
Y17799D01*
X221001Y23131D02*
Y20998D01*
X222601D01*
X222067Y22064D01*
Y22597D01*
X222601Y23131D01*
X223667D01*
X224200Y22597D01*
Y21531D01*
X223667Y20998D01*
X234200Y14600D02*
X231001D01*
Y16199D01*
X231534Y16733D01*
X232600D01*
X233134Y16199D01*
Y14600D01*
X234200Y17799D02*
X232067D01*
X231001Y18865D01*
X232067Y19932D01*
X234200D01*
X232600D01*
Y17799D01*
X231001Y23131D02*
X231534Y22064D01*
X232600Y20998D01*
X233667D01*
X234200Y21531D01*
Y22597D01*
X233667Y23131D01*
X233134D01*
X232600Y22597D01*
Y20998D01*
X214200Y14600D02*
X211001D01*
Y16199D01*
X211534Y16733D01*
X212600D01*
X213134Y16199D01*
Y14600D01*
X214200Y17799D02*
X212067D01*
X211001Y18865D01*
X212067Y19932D01*
X214200D01*
X212600D01*
Y17799D01*
X214200Y22597D02*
X211001D01*
X212600Y20998D01*
Y23131D01*
X204200Y14600D02*
X201001D01*
Y16199D01*
X201534Y16733D01*
X202601D01*
X203134Y16199D01*
Y14600D01*
X204200Y17799D02*
X202067D01*
X201001Y18865D01*
X202067Y19932D01*
X204200D01*
X202601D01*
Y17799D01*
X201534Y20998D02*
X201001Y21531D01*
Y22597D01*
X201534Y23131D01*
X202067D01*
X202601Y22597D01*
Y22064D01*
Y22597D01*
X203134Y23131D01*
X203667D01*
X204200Y22597D01*
Y21531D01*
X203667Y20998D01*
X124200Y16100D02*
X121001D01*
X124200Y18233D01*
X121001D01*
X121534Y21432D02*
X121001Y20898D01*
Y19832D01*
X121534Y19299D01*
X123667D01*
X124200Y19832D01*
Y20898D01*
X123667Y21432D01*
X151534Y16733D02*
X151001Y16199D01*
Y15133D01*
X151534Y14600D01*
X153667D01*
X154200Y15133D01*
Y16199D01*
X153667Y16733D01*
X152601D01*
Y15666D01*
X154200Y17799D02*
X151001D01*
X154200Y19932D01*
X151001D01*
Y20998D02*
X154200D01*
Y22597D01*
X153667Y23131D01*
X151534D01*
X151001Y22597D01*
Y20998D01*
X144200Y14600D02*
X141001D01*
Y16199D01*
X141534Y16733D01*
X142601D01*
X143134Y16199D01*
Y14600D01*
Y15666D02*
X144200Y16733D01*
X141534Y19932D02*
X141001Y19398D01*
Y18332D01*
X141534Y17799D01*
X142067D01*
X142601Y18332D01*
Y19398D01*
X143134Y19932D01*
X143667D01*
X144200Y19398D01*
Y18332D01*
X143667Y17799D01*
X141001Y20998D02*
Y23131D01*
Y22064D01*
X144200D01*
X101534Y16733D02*
X101001Y16199D01*
Y15133D01*
X101534Y14600D01*
X103667D01*
X104200Y15133D01*
Y16199D01*
X103667Y16733D01*
X104200Y17799D02*
Y18865D01*
Y18332D01*
X101001D01*
X101534Y17799D01*
X104200Y22064D02*
X101001D01*
X102601Y20465D01*
Y22597D01*
X111534Y16733D02*
X111001Y16199D01*
Y15133D01*
X111534Y14600D01*
X113667D01*
X114200Y15133D01*
Y16199D01*
X113667Y16733D01*
X114200Y17799D02*
Y18865D01*
Y18332D01*
X111001D01*
X111534Y17799D01*
X111001Y22597D02*
Y20465D01*
X112601D01*
X112067Y21531D01*
Y22064D01*
X112601Y22597D01*
X113667D01*
X114200Y22064D01*
Y20998D01*
X113667Y20465D01*
X91534Y16733D02*
X91001Y16199D01*
Y15133D01*
X91534Y14600D01*
X93667D01*
X94200Y15133D01*
Y16199D01*
X93667Y16733D01*
X94200Y17799D02*
Y18865D01*
Y18332D01*
X91001D01*
X91534Y17799D01*
Y20465D02*
X91001Y20998D01*
Y22064D01*
X91534Y22597D01*
X92067D01*
X92601Y22064D01*
Y21531D01*
Y22064D01*
X93134Y22597D01*
X93667D01*
X94200Y22064D01*
Y20998D01*
X93667Y20465D01*
X81534Y14600D02*
X81001Y15133D01*
Y16199D01*
X81534Y16733D01*
X82067D01*
X82600Y16199D01*
Y15666D01*
Y16199D01*
X83134Y16733D01*
X83667D01*
X84200Y16199D01*
Y15133D01*
X83667Y14600D01*
X81001Y17799D02*
X83134D01*
X84200Y18865D01*
X83134Y19932D01*
X81001D01*
X81534Y20998D02*
X81001Y21531D01*
Y22597D01*
X81534Y23131D01*
X82067D01*
X82600Y22597D01*
Y22064D01*
Y22597D01*
X83134Y23131D01*
X83667D01*
X84200Y22597D01*
Y21531D01*
X83667Y20998D01*
X175100Y38265D02*
Y35066D01*
X177233D01*
X178299Y38265D02*
Y35066D01*
X179899D01*
X180432Y35599D01*
Y37732D01*
X179899Y38265D01*
X178299D01*
X186829Y37732D02*
X186296Y38265D01*
X185230D01*
X184697Y37732D01*
Y37199D01*
X185230Y36666D01*
X186296D01*
X186829Y36133D01*
Y35599D01*
X186296Y35066D01*
X185230D01*
X184697Y35599D01*
X188429Y37732D02*
Y37199D01*
X187896D01*
X188962D01*
X188429D01*
Y35599D01*
X188962Y35066D01*
X191095Y37199D02*
X192161D01*
X192694Y36666D01*
Y35066D01*
X191095D01*
X190562Y35599D01*
X191095Y36133D01*
X192694D01*
X193761Y35066D02*
Y37199D01*
X195360D01*
X195893Y36666D01*
Y35066D01*
X197493Y37732D02*
Y37199D01*
X196960D01*
X198026D01*
X197493D01*
Y35599D01*
X198026Y35066D01*
X200159D02*
X201225D01*
X201758Y35599D01*
Y36666D01*
X201225Y37199D01*
X200159D01*
X199625Y36666D01*
Y35599D01*
X200159Y35066D01*
X202824D02*
Y37199D01*
X204424D01*
X204957Y36666D01*
Y35066D01*
X206557Y34533D02*
X207090Y35066D01*
Y35599D01*
X206557D01*
Y35066D01*
X207090D01*
X206557Y34533D01*
X206023Y34000D01*
X212421Y38265D02*
Y35066D01*
X214021D01*
X214554Y35599D01*
Y37732D01*
X214021Y38265D01*
X212421D01*
X217220Y35066D02*
X216153D01*
X215620Y35599D01*
Y36666D01*
X216153Y37199D01*
X217220D01*
X217753Y36666D01*
Y36133D01*
X215620D01*
X220952Y37199D02*
X219352D01*
X218819Y36666D01*
Y35599D01*
X219352Y35066D01*
X220952D01*
X223618D02*
X222551D01*
X222018Y35599D01*
Y36666D01*
X222551Y37199D01*
X223618D01*
X224151Y36666D01*
Y36133D01*
X222018D01*
X225217Y35066D02*
Y37199D01*
X225750D01*
X226284Y36666D01*
Y35066D01*
Y36666D01*
X226817Y37199D01*
X227350Y36666D01*
Y35066D01*
X228416Y38265D02*
Y35066D01*
X230016D01*
X230549Y35599D01*
Y36133D01*
Y36666D01*
X230016Y37199D01*
X228416D01*
X233215Y35066D02*
X232148D01*
X231615Y35599D01*
Y36666D01*
X232148Y37199D01*
X233215D01*
X233748Y36666D01*
Y36133D01*
X231615D01*
X234814Y37199D02*
Y35066D01*
Y36133D01*
X235347Y36666D01*
X235880Y37199D01*
X236414D01*
X243345Y35066D02*
X241212D01*
X243345Y37199D01*
Y37732D01*
X242811Y38265D01*
X241745D01*
X241212Y37732D01*
X244411D02*
X244944Y38265D01*
X246010D01*
X246544Y37732D01*
Y35599D01*
X246010Y35066D01*
X244944D01*
X244411Y35599D01*
Y37732D01*
X247610Y35066D02*
X248676D01*
X248143D01*
Y38265D01*
X247610Y37732D01*
X250276Y35599D02*
X250809Y35066D01*
X251875D01*
X252408Y35599D01*
Y37732D01*
X251875Y38265D01*
X250809D01*
X250276Y37732D01*
Y37199D01*
X250809Y36666D01*
X252408D01*
X175100Y44365D02*
Y41166D01*
X176699D01*
X177233Y41699D01*
Y43832D01*
X176699Y44365D01*
X175100D01*
X179899Y41166D02*
X178832D01*
X178299Y41699D01*
Y42766D01*
X178832Y43299D01*
X179899D01*
X180432Y42766D01*
Y42233D01*
X178299D01*
X181498Y43299D02*
X182564Y41166D01*
X183631Y43299D01*
X186296Y41166D02*
X185230D01*
X184697Y41699D01*
Y42766D01*
X185230Y43299D01*
X186296D01*
X186829Y42766D01*
Y42233D01*
X184697D01*
X187896Y41166D02*
X188962D01*
X188429D01*
Y44365D01*
X187896D01*
X191095Y41166D02*
X192161D01*
X192694Y41699D01*
Y42766D01*
X192161Y43299D01*
X191095D01*
X190562Y42766D01*
Y41699D01*
X191095Y41166D01*
X193761Y40100D02*
Y43299D01*
X195360D01*
X195893Y42766D01*
Y41699D01*
X195360Y41166D01*
X193761D01*
X196960D02*
Y43299D01*
X197493D01*
X198026Y42766D01*
Y41166D01*
Y42766D01*
X198559Y43299D01*
X199092Y42766D01*
Y41166D01*
X201758D02*
X200692D01*
X200159Y41699D01*
Y42766D01*
X200692Y43299D01*
X201758D01*
X202291Y42766D01*
Y42233D01*
X200159D01*
X203358Y41166D02*
Y43299D01*
X204957D01*
X205490Y42766D01*
Y41166D01*
X207090Y43832D02*
Y43299D01*
X206557D01*
X207623D01*
X207090D01*
Y41699D01*
X207623Y41166D01*
X212421Y44365D02*
Y41166D01*
X214021D01*
X214554Y41699D01*
Y42233D01*
X214021Y42766D01*
X212421D01*
X214021D01*
X214554Y43299D01*
Y43832D01*
X214021Y44365D01*
X212421D01*
X216153Y41166D02*
X217220D01*
X217753Y41699D01*
Y42766D01*
X217220Y43299D01*
X216153D01*
X215620Y42766D01*
Y41699D01*
X216153Y41166D01*
X219352Y43299D02*
X220419D01*
X220952Y42766D01*
Y41166D01*
X219352D01*
X218819Y41699D01*
X219352Y42233D01*
X220952D01*
X222018Y43299D02*
Y41166D01*
Y42233D01*
X222551Y42766D01*
X223084Y43299D01*
X223618D01*
X227350Y44365D02*
Y41166D01*
X225750D01*
X225217Y41699D01*
Y42766D01*
X225750Y43299D01*
X227350D01*
X233748Y41166D02*
X233215Y41699D01*
X232681Y41166D01*
X232148D01*
X231615Y41699D01*
Y42233D01*
X232148Y42766D01*
X231615Y43299D01*
Y43832D01*
X232148Y44365D01*
X232681D01*
X233215Y43832D01*
Y43299D01*
X232681Y42766D01*
X233215Y42233D01*
Y41699D01*
X233748Y42766D02*
X233215Y42233D01*
X232148Y42766D02*
X232681D01*
X238013Y44365D02*
Y41166D01*
X239613D01*
X240146Y41699D01*
Y43832D01*
X239613Y44365D01*
X238013D01*
X242811Y41166D02*
X241745D01*
X241212Y41699D01*
Y42766D01*
X241745Y43299D01*
X242811D01*
X243345Y42766D01*
Y42233D01*
X241212D01*
X244411Y44365D02*
Y41166D01*
X246010D01*
X246544Y41699D01*
Y42233D01*
Y42766D01*
X246010Y43299D01*
X244411D01*
X247610D02*
Y41699D01*
X248143Y41166D01*
X249743D01*
Y43299D01*
X251875Y40100D02*
X252408D01*
X252942Y40633D01*
Y43299D01*
X251342D01*
X250809Y42766D01*
Y41699D01*
X251342Y41166D01*
X252942D01*
X255074Y40100D02*
X255607D01*
X256140Y40633D01*
Y43299D01*
X254541D01*
X254008Y42766D01*
Y41699D01*
X254541Y41166D01*
X256140D01*
X258806D02*
X257740D01*
X257207Y41699D01*
Y42766D01*
X257740Y43299D01*
X258806D01*
X259339Y42766D01*
Y42233D01*
X257207D01*
X260406Y43299D02*
Y41166D01*
Y42233D01*
X260939Y42766D01*
X261472Y43299D01*
X262005D01*
X177233Y48666D02*
X176699Y49199D01*
X175633D01*
X175100Y48666D01*
Y48133D01*
X175633Y47600D01*
X176699D01*
X177233Y47066D01*
Y46533D01*
X176699Y46000D01*
X175633D01*
X175100Y46533D01*
X178299Y49199D02*
X180432D01*
X179365D01*
Y46000D01*
X181498D02*
Y49199D01*
X182564Y48133D01*
X183631Y49199D01*
Y46000D01*
X184697Y48666D02*
X185230Y49199D01*
X186296D01*
X186829Y48666D01*
Y48133D01*
X186296Y47600D01*
X185763D01*
X186296D01*
X186829Y47066D01*
Y46533D01*
X186296Y46000D01*
X185230D01*
X184697Y46533D01*
X190029Y46000D02*
X187896D01*
X190029Y48133D01*
Y48666D01*
X189495Y49199D01*
X188429D01*
X187896Y48666D01*
X193228Y49199D02*
X191095D01*
Y47600D01*
X192161D01*
X191095D01*
Y46000D01*
X194294Y48666D02*
X194827Y49199D01*
X195893D01*
X196426Y48666D01*
Y46533D01*
X195893Y46000D01*
X194827D01*
X194294Y46533D01*
Y48666D01*
X199625Y49199D02*
X197493D01*
Y47600D01*
X198559Y48133D01*
X199092D01*
X199625Y47600D01*
Y46533D01*
X199092Y46000D01*
X198026D01*
X197493Y46533D01*
X200692Y46000D02*
X201758D01*
X201225D01*
Y49199D01*
X200692Y48666D01*
M02*
