G04*
G04 #@! TF.GenerationSoftware,Altium Limited,Altium Designer,20.0.10 (225)*
G04*
G04 Layer_Color=32896*
%FSLAX25Y25*%
%MOIN*%
G70*
G01*
G75*
%ADD10C,0.01000*%
%ADD13C,0.00600*%
G36*
X138519Y39960D02*
X138609Y39952D01*
X138700Y39941D01*
X138783Y39925D01*
X138866Y39909D01*
X138943Y39890D01*
X139013Y39869D01*
X139079Y39847D01*
X139141Y39823D01*
X139194Y39805D01*
X139242Y39783D01*
X139280Y39767D01*
X139312Y39751D01*
X139336Y39741D01*
X139349Y39733D01*
X139354Y39730D01*
X139432Y39685D01*
X139504Y39634D01*
X139571Y39581D01*
X139635Y39527D01*
X139693Y39471D01*
X139747Y39412D01*
X139795Y39359D01*
X139838Y39303D01*
X139878Y39252D01*
X139910Y39204D01*
X139939Y39161D01*
X139963Y39124D01*
X139982Y39094D01*
X139995Y39070D01*
X140003Y39057D01*
X140006Y39052D01*
X140046Y38966D01*
X140081Y38878D01*
X140110Y38790D01*
X140137Y38699D01*
X140158Y38611D01*
X140177Y38526D01*
X140193Y38443D01*
X140203Y38363D01*
X140214Y38288D01*
X140219Y38221D01*
X140225Y38160D01*
X140230Y38109D01*
Y38085D01*
Y38067D01*
X140233Y38048D01*
Y38034D01*
Y38024D01*
Y38016D01*
Y38010D01*
Y38008D01*
X140230Y37906D01*
X140225Y37808D01*
X140214Y37709D01*
X140201Y37615D01*
X140187Y37527D01*
X140169Y37442D01*
X140150Y37362D01*
X140131Y37290D01*
X140113Y37220D01*
X140097Y37161D01*
X140078Y37108D01*
X140065Y37063D01*
X140051Y37028D01*
X140041Y37001D01*
X140035Y36985D01*
X140032Y36983D01*
Y36980D01*
X139992Y36892D01*
X139950Y36812D01*
X139902Y36734D01*
X139854Y36665D01*
X139806Y36598D01*
X139758Y36539D01*
X139709Y36486D01*
X139661Y36435D01*
X139616Y36393D01*
X139576Y36355D01*
X139539Y36323D01*
X139507Y36299D01*
X139480Y36278D01*
X139459Y36262D01*
X139448Y36254D01*
X139443Y36251D01*
X139368Y36206D01*
X139288Y36168D01*
X139205Y36134D01*
X139119Y36107D01*
X139037Y36083D01*
X138951Y36061D01*
X138871Y36045D01*
X138791Y36032D01*
X138719Y36021D01*
X138649Y36013D01*
X138588Y36008D01*
X138535Y36005D01*
X138513Y36003D01*
X138492D01*
X138476Y36000D01*
X138433D01*
X138324Y36003D01*
X138217Y36013D01*
X138118Y36029D01*
X138022Y36051D01*
X137934Y36075D01*
X137851Y36104D01*
X137774Y36134D01*
X137702Y36163D01*
X137640Y36192D01*
X137584Y36222D01*
X137536Y36251D01*
X137496Y36275D01*
X137464Y36296D01*
X137440Y36312D01*
X137427Y36323D01*
X137421Y36326D01*
X137346Y36390D01*
X137277Y36462D01*
X137213Y36537D01*
X137154Y36614D01*
X137104Y36691D01*
X137056Y36772D01*
X137013Y36849D01*
X136975Y36926D01*
X136943Y36999D01*
X136917Y37065D01*
X136895Y37124D01*
X136877Y37178D01*
X136863Y37220D01*
X136858Y37236D01*
X136853Y37252D01*
X136850Y37263D01*
X136847Y37271D01*
X136845Y37276D01*
Y37279D01*
X137352Y37407D01*
X137373Y37319D01*
X137400Y37236D01*
X137429Y37161D01*
X137459Y37089D01*
X137493Y37025D01*
X137525Y36964D01*
X137560Y36911D01*
X137592Y36862D01*
X137624Y36820D01*
X137656Y36782D01*
X137683Y36750D01*
X137707Y36724D01*
X137726Y36705D01*
X137742Y36689D01*
X137752Y36681D01*
X137755Y36678D01*
X137811Y36636D01*
X137870Y36598D01*
X137931Y36566D01*
X137990Y36537D01*
X138051Y36515D01*
X138110Y36494D01*
X138169Y36478D01*
X138225Y36465D01*
X138276Y36457D01*
X138324Y36449D01*
X138366Y36443D01*
X138401Y36438D01*
X138433D01*
X138455Y36435D01*
X138473D01*
X138537Y36438D01*
X138601Y36443D01*
X138665Y36451D01*
X138724Y36465D01*
X138780Y36478D01*
X138834Y36491D01*
X138884Y36507D01*
X138933Y36526D01*
X138975Y36542D01*
X139013Y36558D01*
X139047Y36571D01*
X139074Y36587D01*
X139098Y36598D01*
X139114Y36606D01*
X139125Y36611D01*
X139127Y36614D01*
X139181Y36649D01*
X139232Y36689D01*
X139280Y36732D01*
X139322Y36774D01*
X139362Y36820D01*
X139397Y36865D01*
X139432Y36908D01*
X139459Y36953D01*
X139485Y36993D01*
X139507Y37031D01*
X139525Y37065D01*
X139541Y37097D01*
X139552Y37121D01*
X139560Y37140D01*
X139565Y37151D01*
X139568Y37156D01*
X139592Y37225D01*
X139613Y37298D01*
X139635Y37370D01*
X139651Y37444D01*
X139675Y37586D01*
X139685Y37655D01*
X139691Y37720D01*
X139699Y37781D01*
X139701Y37837D01*
X139704Y37885D01*
X139707Y37928D01*
X139709Y37962D01*
Y37989D01*
Y38005D01*
Y38010D01*
X139707Y38083D01*
X139704Y38152D01*
X139691Y38285D01*
X139683Y38350D01*
X139672Y38408D01*
X139661Y38467D01*
X139648Y38521D01*
X139637Y38568D01*
X139627Y38611D01*
X139616Y38651D01*
X139608Y38683D01*
X139600Y38710D01*
X139595Y38729D01*
X139589Y38742D01*
Y38745D01*
X139565Y38811D01*
X139536Y38873D01*
X139507Y38929D01*
X139474Y38985D01*
X139440Y39036D01*
X139405Y39081D01*
X139370Y39124D01*
X139336Y39164D01*
X139304Y39199D01*
X139272Y39228D01*
X139245Y39255D01*
X139221Y39276D01*
X139202Y39292D01*
X139186Y39303D01*
X139175Y39311D01*
X139173Y39314D01*
X139117Y39351D01*
X139055Y39383D01*
X138994Y39412D01*
X138933Y39436D01*
X138871Y39458D01*
X138810Y39476D01*
X138748Y39490D01*
X138692Y39500D01*
X138639Y39508D01*
X138588Y39516D01*
X138545Y39522D01*
X138508Y39524D01*
X138476Y39527D01*
X138433D01*
X138364Y39524D01*
X138294Y39519D01*
X138230Y39508D01*
X138172Y39498D01*
X138116Y39482D01*
X138062Y39466D01*
X138014Y39450D01*
X137969Y39431D01*
X137931Y39412D01*
X137897Y39396D01*
X137864Y39380D01*
X137840Y39364D01*
X137822Y39353D01*
X137806Y39343D01*
X137798Y39338D01*
X137795Y39335D01*
X137750Y39297D01*
X137704Y39255D01*
X137664Y39209D01*
X137627Y39159D01*
X137592Y39111D01*
X137560Y39060D01*
X137533Y39009D01*
X137507Y38958D01*
X137483Y38913D01*
X137464Y38868D01*
X137445Y38830D01*
X137432Y38796D01*
X137421Y38766D01*
X137413Y38745D01*
X137411Y38731D01*
X137408Y38726D01*
X136909Y38844D01*
X136941Y38940D01*
X136975Y39031D01*
X137015Y39116D01*
X137058Y39196D01*
X137104Y39271D01*
X137149Y39338D01*
X137194Y39399D01*
X137240Y39455D01*
X137282Y39506D01*
X137322Y39548D01*
X137360Y39583D01*
X137392Y39615D01*
X137419Y39639D01*
X137440Y39655D01*
X137451Y39666D01*
X137456Y39669D01*
X137531Y39719D01*
X137611Y39765D01*
X137691Y39805D01*
X137774Y39840D01*
X137854Y39866D01*
X137934Y39890D01*
X138014Y39909D01*
X138089Y39925D01*
X138158Y39938D01*
X138222Y39946D01*
X138278Y39954D01*
X138329Y39957D01*
X138369Y39960D01*
X138385Y39962D01*
X138425D01*
X138519Y39960D01*
D02*
G37*
G36*
X128997D02*
X129088Y39952D01*
X129179Y39941D01*
X129262Y39925D01*
X129344Y39909D01*
X129422Y39890D01*
X129491Y39869D01*
X129558Y39847D01*
X129620Y39823D01*
X129673Y39805D01*
X129721Y39783D01*
X129758Y39767D01*
X129790Y39751D01*
X129815Y39741D01*
X129828Y39733D01*
X129833Y39730D01*
X129911Y39685D01*
X129983Y39634D01*
X130049Y39581D01*
X130113Y39527D01*
X130172Y39471D01*
X130226Y39412D01*
X130274Y39359D01*
X130316Y39303D01*
X130357Y39252D01*
X130388Y39204D01*
X130418Y39161D01*
X130442Y39124D01*
X130461Y39094D01*
X130474Y39070D01*
X130482Y39057D01*
X130485Y39052D01*
X130525Y38966D01*
X130559Y38878D01*
X130589Y38790D01*
X130615Y38699D01*
X130637Y38611D01*
X130656Y38526D01*
X130672Y38443D01*
X130682Y38363D01*
X130693Y38288D01*
X130698Y38221D01*
X130704Y38160D01*
X130709Y38109D01*
Y38085D01*
Y38067D01*
X130712Y38048D01*
Y38034D01*
Y38024D01*
Y38016D01*
Y38010D01*
Y38008D01*
X130709Y37906D01*
X130704Y37808D01*
X130693Y37709D01*
X130680Y37615D01*
X130666Y37527D01*
X130648Y37442D01*
X130629Y37362D01*
X130610Y37290D01*
X130591Y37220D01*
X130575Y37161D01*
X130557Y37108D01*
X130543Y37063D01*
X130530Y37028D01*
X130519Y37001D01*
X130514Y36985D01*
X130511Y36983D01*
Y36980D01*
X130471Y36892D01*
X130429Y36812D01*
X130380Y36734D01*
X130332Y36665D01*
X130284Y36598D01*
X130236Y36539D01*
X130188Y36486D01*
X130140Y36435D01*
X130095Y36393D01*
X130055Y36355D01*
X130017Y36323D01*
X129985Y36299D01*
X129959Y36278D01*
X129937Y36262D01*
X129927Y36254D01*
X129921Y36251D01*
X129847Y36206D01*
X129766Y36168D01*
X129684Y36134D01*
X129598Y36107D01*
X129515Y36083D01*
X129430Y36061D01*
X129350Y36045D01*
X129270Y36032D01*
X129198Y36021D01*
X129128Y36013D01*
X129067Y36008D01*
X129014Y36005D01*
X128992Y36003D01*
X128971D01*
X128955Y36000D01*
X128912D01*
X128803Y36003D01*
X128696Y36013D01*
X128597Y36029D01*
X128501Y36051D01*
X128413Y36075D01*
X128330Y36104D01*
X128252Y36134D01*
X128180Y36163D01*
X128119Y36192D01*
X128063Y36222D01*
X128015Y36251D01*
X127975Y36275D01*
X127943Y36296D01*
X127919Y36312D01*
X127905Y36323D01*
X127900Y36326D01*
X127825Y36390D01*
X127756Y36462D01*
X127692Y36537D01*
X127633Y36614D01*
X127582Y36691D01*
X127534Y36772D01*
X127492Y36849D01*
X127454Y36926D01*
X127422Y36999D01*
X127395Y37065D01*
X127374Y37124D01*
X127355Y37178D01*
X127342Y37220D01*
X127337Y37236D01*
X127331Y37252D01*
X127329Y37263D01*
X127326Y37271D01*
X127323Y37276D01*
Y37279D01*
X127831Y37407D01*
X127852Y37319D01*
X127879Y37236D01*
X127908Y37161D01*
X127937Y37089D01*
X127972Y37025D01*
X128004Y36964D01*
X128039Y36911D01*
X128071Y36862D01*
X128103Y36820D01*
X128135Y36782D01*
X128162Y36750D01*
X128186Y36724D01*
X128204Y36705D01*
X128220Y36689D01*
X128231Y36681D01*
X128234Y36678D01*
X128290Y36636D01*
X128349Y36598D01*
X128410Y36566D01*
X128469Y36537D01*
X128530Y36515D01*
X128589Y36494D01*
X128648Y36478D01*
X128704Y36465D01*
X128754Y36457D01*
X128803Y36449D01*
X128845Y36443D01*
X128880Y36438D01*
X128912D01*
X128933Y36435D01*
X128952D01*
X129016Y36438D01*
X129080Y36443D01*
X129144Y36451D01*
X129203Y36465D01*
X129259Y36478D01*
X129313Y36491D01*
X129363Y36507D01*
X129411Y36526D01*
X129454Y36542D01*
X129491Y36558D01*
X129526Y36571D01*
X129553Y36587D01*
X129577Y36598D01*
X129593Y36606D01*
X129604Y36611D01*
X129606Y36614D01*
X129660Y36649D01*
X129710Y36689D01*
X129758Y36732D01*
X129801Y36774D01*
X129841Y36820D01*
X129876Y36865D01*
X129911Y36908D01*
X129937Y36953D01*
X129964Y36993D01*
X129985Y37031D01*
X130004Y37065D01*
X130020Y37097D01*
X130031Y37121D01*
X130039Y37140D01*
X130044Y37151D01*
X130047Y37156D01*
X130071Y37225D01*
X130092Y37298D01*
X130113Y37370D01*
X130130Y37444D01*
X130154Y37586D01*
X130164Y37655D01*
X130170Y37720D01*
X130178Y37781D01*
X130180Y37837D01*
X130183Y37885D01*
X130186Y37928D01*
X130188Y37962D01*
Y37989D01*
Y38005D01*
Y38010D01*
X130186Y38083D01*
X130183Y38152D01*
X130170Y38285D01*
X130162Y38350D01*
X130151Y38408D01*
X130140Y38467D01*
X130127Y38521D01*
X130116Y38568D01*
X130105Y38611D01*
X130095Y38651D01*
X130087Y38683D01*
X130079Y38710D01*
X130073Y38729D01*
X130068Y38742D01*
Y38745D01*
X130044Y38811D01*
X130015Y38873D01*
X129985Y38929D01*
X129953Y38985D01*
X129919Y39036D01*
X129884Y39081D01*
X129849Y39124D01*
X129815Y39164D01*
X129782Y39199D01*
X129750Y39228D01*
X129724Y39255D01*
X129700Y39276D01*
X129681Y39292D01*
X129665Y39303D01*
X129654Y39311D01*
X129652Y39314D01*
X129595Y39351D01*
X129534Y39383D01*
X129473Y39412D01*
X129411Y39436D01*
X129350Y39458D01*
X129288Y39476D01*
X129227Y39490D01*
X129171Y39500D01*
X129118Y39508D01*
X129067Y39516D01*
X129024Y39522D01*
X128987Y39524D01*
X128955Y39527D01*
X128912D01*
X128843Y39524D01*
X128773Y39519D01*
X128709Y39508D01*
X128650Y39498D01*
X128594Y39482D01*
X128541Y39466D01*
X128493Y39450D01*
X128447Y39431D01*
X128410Y39412D01*
X128375Y39396D01*
X128343Y39380D01*
X128319Y39364D01*
X128301Y39353D01*
X128285Y39343D01*
X128277Y39338D01*
X128274Y39335D01*
X128228Y39297D01*
X128183Y39255D01*
X128143Y39209D01*
X128106Y39159D01*
X128071Y39111D01*
X128039Y39060D01*
X128012Y39009D01*
X127986Y38958D01*
X127962Y38913D01*
X127943Y38868D01*
X127924Y38830D01*
X127911Y38796D01*
X127900Y38766D01*
X127892Y38745D01*
X127889Y38731D01*
X127887Y38726D01*
X127387Y38844D01*
X127419Y38940D01*
X127454Y39031D01*
X127494Y39116D01*
X127537Y39196D01*
X127582Y39271D01*
X127628Y39338D01*
X127673Y39399D01*
X127718Y39455D01*
X127761Y39506D01*
X127801Y39548D01*
X127839Y39583D01*
X127871Y39615D01*
X127897Y39639D01*
X127919Y39655D01*
X127929Y39666D01*
X127935Y39669D01*
X128009Y39719D01*
X128090Y39765D01*
X128170Y39805D01*
X128252Y39840D01*
X128333Y39866D01*
X128413Y39890D01*
X128493Y39909D01*
X128568Y39925D01*
X128637Y39938D01*
X128701Y39946D01*
X128757Y39954D01*
X128808Y39957D01*
X128848Y39960D01*
X128864Y39962D01*
X128904D01*
X128997Y39960D01*
D02*
G37*
G36*
X119476D02*
X119567Y39952D01*
X119658Y39941D01*
X119741Y39925D01*
X119823Y39909D01*
X119901Y39890D01*
X119970Y39869D01*
X120037Y39847D01*
X120098Y39823D01*
X120152Y39805D01*
X120200Y39783D01*
X120237Y39767D01*
X120269Y39751D01*
X120293Y39741D01*
X120307Y39733D01*
X120312Y39730D01*
X120389Y39685D01*
X120461Y39634D01*
X120528Y39581D01*
X120592Y39527D01*
X120651Y39471D01*
X120704Y39412D01*
X120753Y39359D01*
X120795Y39303D01*
X120835Y39252D01*
X120867Y39204D01*
X120897Y39161D01*
X120921Y39124D01*
X120939Y39094D01*
X120953Y39070D01*
X120961Y39057D01*
X120963Y39052D01*
X121003Y38966D01*
X121038Y38878D01*
X121068Y38790D01*
X121094Y38699D01*
X121116Y38611D01*
X121134Y38526D01*
X121150Y38443D01*
X121161Y38363D01*
X121172Y38288D01*
X121177Y38221D01*
X121182Y38160D01*
X121188Y38109D01*
Y38085D01*
Y38067D01*
X121190Y38048D01*
Y38034D01*
Y38024D01*
Y38016D01*
Y38010D01*
Y38008D01*
X121188Y37906D01*
X121182Y37808D01*
X121172Y37709D01*
X121158Y37615D01*
X121145Y37527D01*
X121126Y37442D01*
X121108Y37362D01*
X121089Y37290D01*
X121070Y37220D01*
X121054Y37161D01*
X121036Y37108D01*
X121022Y37063D01*
X121009Y37028D01*
X120998Y37001D01*
X120993Y36985D01*
X120990Y36983D01*
Y36980D01*
X120950Y36892D01*
X120907Y36812D01*
X120859Y36734D01*
X120811Y36665D01*
X120763Y36598D01*
X120715Y36539D01*
X120667Y36486D01*
X120619Y36435D01*
X120574Y36393D01*
X120534Y36355D01*
X120496Y36323D01*
X120464Y36299D01*
X120437Y36278D01*
X120416Y36262D01*
X120405Y36254D01*
X120400Y36251D01*
X120325Y36206D01*
X120245Y36168D01*
X120162Y36134D01*
X120077Y36107D01*
X119994Y36083D01*
X119909Y36061D01*
X119829Y36045D01*
X119749Y36032D01*
X119676Y36021D01*
X119607Y36013D01*
X119546Y36008D01*
X119492Y36005D01*
X119471Y36003D01*
X119449D01*
X119433Y36000D01*
X119391D01*
X119281Y36003D01*
X119175Y36013D01*
X119076Y36029D01*
X118980Y36051D01*
X118892Y36075D01*
X118809Y36104D01*
X118731Y36134D01*
X118659Y36163D01*
X118598Y36192D01*
X118542Y36222D01*
X118494Y36251D01*
X118454Y36275D01*
X118422Y36296D01*
X118397Y36312D01*
X118384Y36323D01*
X118379Y36326D01*
X118304Y36390D01*
X118235Y36462D01*
X118171Y36537D01*
X118112Y36614D01*
X118061Y36691D01*
X118013Y36772D01*
X117970Y36849D01*
X117933Y36926D01*
X117901Y36999D01*
X117874Y37065D01*
X117853Y37124D01*
X117834Y37178D01*
X117821Y37220D01*
X117815Y37236D01*
X117810Y37252D01*
X117807Y37263D01*
X117805Y37271D01*
X117802Y37276D01*
Y37279D01*
X118309Y37407D01*
X118331Y37319D01*
X118358Y37236D01*
X118387Y37161D01*
X118416Y37089D01*
X118451Y37025D01*
X118483Y36964D01*
X118518Y36911D01*
X118550Y36862D01*
X118582Y36820D01*
X118614Y36782D01*
X118640Y36750D01*
X118665Y36724D01*
X118683Y36705D01*
X118699Y36689D01*
X118710Y36681D01*
X118713Y36678D01*
X118769Y36636D01*
X118827Y36598D01*
X118889Y36566D01*
X118948Y36537D01*
X119009Y36515D01*
X119068Y36494D01*
X119126Y36478D01*
X119183Y36465D01*
X119233Y36457D01*
X119281Y36449D01*
X119324Y36443D01*
X119359Y36438D01*
X119391D01*
X119412Y36435D01*
X119431D01*
X119495Y36438D01*
X119559Y36443D01*
X119623Y36451D01*
X119682Y36465D01*
X119738Y36478D01*
X119791Y36491D01*
X119842Y36507D01*
X119890Y36526D01*
X119933Y36542D01*
X119970Y36558D01*
X120005Y36571D01*
X120032Y36587D01*
X120056Y36598D01*
X120072Y36606D01*
X120082Y36611D01*
X120085Y36614D01*
X120138Y36649D01*
X120189Y36689D01*
X120237Y36732D01*
X120280Y36774D01*
X120320Y36820D01*
X120355Y36865D01*
X120389Y36908D01*
X120416Y36953D01*
X120443Y36993D01*
X120464Y37031D01*
X120483Y37065D01*
X120499Y37097D01*
X120510Y37121D01*
X120518Y37140D01*
X120523Y37151D01*
X120526Y37156D01*
X120550Y37225D01*
X120571Y37298D01*
X120592Y37370D01*
X120608Y37444D01*
X120632Y37586D01*
X120643Y37655D01*
X120648Y37720D01*
X120656Y37781D01*
X120659Y37837D01*
X120662Y37885D01*
X120664Y37928D01*
X120667Y37962D01*
Y37989D01*
Y38005D01*
Y38010D01*
X120664Y38083D01*
X120662Y38152D01*
X120648Y38285D01*
X120640Y38350D01*
X120630Y38408D01*
X120619Y38467D01*
X120606Y38521D01*
X120595Y38568D01*
X120584Y38611D01*
X120574Y38651D01*
X120566Y38683D01*
X120558Y38710D01*
X120552Y38729D01*
X120547Y38742D01*
Y38745D01*
X120523Y38811D01*
X120493Y38873D01*
X120464Y38929D01*
X120432Y38985D01*
X120397Y39036D01*
X120363Y39081D01*
X120328Y39124D01*
X120293Y39164D01*
X120261Y39199D01*
X120229Y39228D01*
X120203Y39255D01*
X120178Y39276D01*
X120160Y39292D01*
X120144Y39303D01*
X120133Y39311D01*
X120130Y39314D01*
X120074Y39351D01*
X120013Y39383D01*
X119951Y39412D01*
X119890Y39436D01*
X119829Y39458D01*
X119767Y39476D01*
X119706Y39490D01*
X119650Y39500D01*
X119596Y39508D01*
X119546Y39516D01*
X119503Y39522D01*
X119465Y39524D01*
X119433Y39527D01*
X119391D01*
X119321Y39524D01*
X119252Y39519D01*
X119188Y39508D01*
X119129Y39498D01*
X119073Y39482D01*
X119020Y39466D01*
X118972Y39450D01*
X118926Y39431D01*
X118889Y39412D01*
X118854Y39396D01*
X118822Y39380D01*
X118798Y39364D01*
X118779Y39353D01*
X118763Y39343D01*
X118755Y39338D01*
X118753Y39335D01*
X118707Y39297D01*
X118662Y39255D01*
X118622Y39209D01*
X118584Y39159D01*
X118550Y39111D01*
X118518Y39060D01*
X118491Y39009D01*
X118464Y38958D01*
X118440Y38913D01*
X118422Y38868D01*
X118403Y38830D01*
X118389Y38796D01*
X118379Y38766D01*
X118371Y38745D01*
X118368Y38731D01*
X118366Y38726D01*
X117866Y38844D01*
X117898Y38940D01*
X117933Y39031D01*
X117973Y39116D01*
X118016Y39196D01*
X118061Y39271D01*
X118106Y39338D01*
X118152Y39399D01*
X118197Y39455D01*
X118240Y39506D01*
X118280Y39548D01*
X118317Y39583D01*
X118350Y39615D01*
X118376Y39639D01*
X118397Y39655D01*
X118408Y39666D01*
X118414Y39669D01*
X118488Y39719D01*
X118568Y39765D01*
X118649Y39805D01*
X118731Y39840D01*
X118811Y39866D01*
X118892Y39890D01*
X118972Y39909D01*
X119046Y39925D01*
X119116Y39938D01*
X119180Y39946D01*
X119236Y39954D01*
X119287Y39957D01*
X119327Y39960D01*
X119343Y39962D01*
X119383D01*
X119476Y39960D01*
D02*
G37*
G36*
X109955Y39960D02*
X110046Y39952D01*
X110137Y39941D01*
X110219Y39925D01*
X110302Y39909D01*
X110380Y39890D01*
X110449Y39869D01*
X110516Y39847D01*
X110577Y39823D01*
X110631Y39805D01*
X110679Y39783D01*
X110716Y39767D01*
X110748Y39751D01*
X110772Y39741D01*
X110785Y39733D01*
X110791Y39730D01*
X110868Y39685D01*
X110940Y39634D01*
X111007Y39581D01*
X111071Y39527D01*
X111130Y39471D01*
X111183Y39412D01*
X111231Y39359D01*
X111274Y39303D01*
X111314Y39252D01*
X111346Y39204D01*
X111375Y39161D01*
X111399Y39124D01*
X111418Y39094D01*
X111432Y39070D01*
X111440Y39057D01*
X111442Y39052D01*
X111482Y38966D01*
X111517Y38878D01*
X111546Y38790D01*
X111573Y38699D01*
X111594Y38611D01*
X111613Y38526D01*
X111629Y38443D01*
X111640Y38363D01*
X111651Y38288D01*
X111656Y38221D01*
X111661Y38160D01*
X111667Y38109D01*
Y38085D01*
Y38067D01*
X111669Y38048D01*
Y38034D01*
Y38024D01*
Y38016D01*
Y38010D01*
Y38008D01*
X111667Y37906D01*
X111661Y37808D01*
X111651Y37709D01*
X111637Y37615D01*
X111624Y37527D01*
X111605Y37442D01*
X111586Y37362D01*
X111568Y37290D01*
X111549Y37220D01*
X111533Y37161D01*
X111514Y37108D01*
X111501Y37063D01*
X111488Y37028D01*
X111477Y37001D01*
X111472Y36985D01*
X111469Y36983D01*
Y36980D01*
X111429Y36892D01*
X111386Y36812D01*
X111338Y36734D01*
X111290Y36665D01*
X111242Y36598D01*
X111194Y36539D01*
X111146Y36486D01*
X111098Y36435D01*
X111052Y36393D01*
X111012Y36355D01*
X110975Y36323D01*
X110943Y36299D01*
X110916Y36278D01*
X110895Y36262D01*
X110884Y36254D01*
X110879Y36251D01*
X110804Y36206D01*
X110724Y36168D01*
X110641Y36134D01*
X110556Y36107D01*
X110473Y36083D01*
X110388Y36061D01*
X110307Y36045D01*
X110227Y36032D01*
X110155Y36021D01*
X110086Y36013D01*
X110024Y36008D01*
X109971Y36005D01*
X109950Y36003D01*
X109928D01*
X109912Y36000D01*
X109870D01*
X109760Y36003D01*
X109653Y36013D01*
X109555Y36029D01*
X109458Y36051D01*
X109370Y36075D01*
X109288Y36104D01*
X109210Y36134D01*
X109138Y36163D01*
X109077Y36192D01*
X109020Y36222D01*
X108972Y36251D01*
X108932Y36275D01*
X108900Y36296D01*
X108876Y36312D01*
X108863Y36323D01*
X108858Y36326D01*
X108783Y36390D01*
X108713Y36462D01*
X108649Y36537D01*
X108591Y36614D01*
X108540Y36691D01*
X108492Y36772D01*
X108449Y36849D01*
X108412Y36926D01*
X108380Y36999D01*
X108353Y37065D01*
X108332Y37124D01*
X108313Y37178D01*
X108300Y37220D01*
X108294Y37236D01*
X108289Y37252D01*
X108286Y37263D01*
X108284Y37271D01*
X108281Y37276D01*
Y37279D01*
X108788Y37407D01*
X108810Y37319D01*
X108836Y37236D01*
X108866Y37161D01*
X108895Y37089D01*
X108930Y37025D01*
X108962Y36964D01*
X108996Y36911D01*
X109028Y36862D01*
X109061Y36820D01*
X109093Y36782D01*
X109119Y36750D01*
X109143Y36724D01*
X109162Y36705D01*
X109178Y36689D01*
X109189Y36681D01*
X109191Y36678D01*
X109248Y36635D01*
X109306Y36598D01*
X109368Y36566D01*
X109426Y36537D01*
X109488Y36515D01*
X109546Y36494D01*
X109605Y36478D01*
X109661Y36465D01*
X109712Y36457D01*
X109760Y36449D01*
X109803Y36443D01*
X109837Y36438D01*
X109870D01*
X109891Y36435D01*
X109910D01*
X109974Y36438D01*
X110038Y36443D01*
X110102Y36451D01*
X110161Y36465D01*
X110217Y36478D01*
X110270Y36491D01*
X110321Y36507D01*
X110369Y36526D01*
X110412Y36542D01*
X110449Y36558D01*
X110484Y36571D01*
X110510Y36587D01*
X110534Y36598D01*
X110550Y36606D01*
X110561Y36611D01*
X110564Y36614D01*
X110617Y36649D01*
X110668Y36689D01*
X110716Y36732D01*
X110759Y36774D01*
X110799Y36820D01*
X110833Y36865D01*
X110868Y36908D01*
X110895Y36953D01*
X110922Y36993D01*
X110943Y37031D01*
X110962Y37065D01*
X110978Y37097D01*
X110988Y37121D01*
X110996Y37140D01*
X111002Y37151D01*
X111004Y37156D01*
X111028Y37225D01*
X111050Y37298D01*
X111071Y37370D01*
X111087Y37444D01*
X111111Y37586D01*
X111122Y37655D01*
X111127Y37720D01*
X111135Y37781D01*
X111138Y37837D01*
X111141Y37885D01*
X111143Y37928D01*
X111146Y37962D01*
Y37989D01*
Y38005D01*
Y38010D01*
X111143Y38083D01*
X111141Y38152D01*
X111127Y38285D01*
X111119Y38350D01*
X111108Y38408D01*
X111098Y38467D01*
X111084Y38521D01*
X111074Y38568D01*
X111063Y38611D01*
X111052Y38651D01*
X111044Y38683D01*
X111036Y38710D01*
X111031Y38729D01*
X111026Y38742D01*
Y38745D01*
X111002Y38811D01*
X110972Y38873D01*
X110943Y38929D01*
X110911Y38985D01*
X110876Y39036D01*
X110841Y39081D01*
X110807Y39124D01*
X110772Y39164D01*
X110740Y39199D01*
X110708Y39228D01*
X110681Y39255D01*
X110657Y39276D01*
X110638Y39292D01*
X110623Y39303D01*
X110612Y39311D01*
X110609Y39314D01*
X110553Y39351D01*
X110492Y39383D01*
X110430Y39412D01*
X110369Y39436D01*
X110307Y39458D01*
X110246Y39476D01*
X110185Y39490D01*
X110128Y39500D01*
X110075Y39508D01*
X110024Y39516D01*
X109982Y39522D01*
X109944Y39524D01*
X109912Y39527D01*
X109870D01*
X109800Y39524D01*
X109731Y39519D01*
X109667Y39508D01*
X109608Y39498D01*
X109552Y39482D01*
X109498Y39466D01*
X109450Y39450D01*
X109405Y39431D01*
X109368Y39412D01*
X109333Y39396D01*
X109301Y39380D01*
X109277Y39364D01*
X109258Y39353D01*
X109242Y39343D01*
X109234Y39338D01*
X109231Y39335D01*
X109186Y39297D01*
X109141Y39255D01*
X109101Y39209D01*
X109063Y39159D01*
X109028Y39110D01*
X108996Y39060D01*
X108970Y39009D01*
X108943Y38958D01*
X108919Y38913D01*
X108900Y38868D01*
X108882Y38830D01*
X108868Y38796D01*
X108858Y38766D01*
X108850Y38745D01*
X108847Y38731D01*
X108844Y38726D01*
X108345Y38844D01*
X108377Y38940D01*
X108412Y39030D01*
X108452Y39116D01*
X108494Y39196D01*
X108540Y39271D01*
X108585Y39338D01*
X108631Y39399D01*
X108676Y39455D01*
X108719Y39506D01*
X108759Y39548D01*
X108796Y39583D01*
X108828Y39615D01*
X108855Y39639D01*
X108876Y39655D01*
X108887Y39666D01*
X108892Y39669D01*
X108967Y39719D01*
X109047Y39765D01*
X109127Y39805D01*
X109210Y39839D01*
X109290Y39866D01*
X109370Y39890D01*
X109450Y39909D01*
X109525Y39925D01*
X109595Y39938D01*
X109659Y39946D01*
X109715Y39954D01*
X109765Y39957D01*
X109806Y39960D01*
X109821Y39962D01*
X109862D01*
X109955Y39960D01*
D02*
G37*
G36*
X100434D02*
X100525Y39952D01*
X100615Y39941D01*
X100698Y39925D01*
X100781Y39909D01*
X100858Y39890D01*
X100928Y39869D01*
X100995Y39847D01*
X101056Y39823D01*
X101109Y39805D01*
X101157Y39783D01*
X101195Y39767D01*
X101227Y39751D01*
X101251Y39741D01*
X101264Y39733D01*
X101269Y39730D01*
X101347Y39685D01*
X101419Y39634D01*
X101486Y39581D01*
X101550Y39527D01*
X101609Y39471D01*
X101662Y39412D01*
X101710Y39359D01*
X101753Y39303D01*
X101793Y39252D01*
X101825Y39204D01*
X101854Y39161D01*
X101878Y39124D01*
X101897Y39094D01*
X101910Y39070D01*
X101918Y39057D01*
X101921Y39052D01*
X101961Y38966D01*
X101996Y38878D01*
X102025Y38790D01*
X102052Y38699D01*
X102073Y38611D01*
X102092Y38526D01*
X102108Y38443D01*
X102119Y38363D01*
X102129Y38288D01*
X102135Y38221D01*
X102140Y38160D01*
X102145Y38109D01*
Y38085D01*
Y38067D01*
X102148Y38048D01*
Y38034D01*
Y38024D01*
Y38016D01*
Y38010D01*
Y38008D01*
X102145Y37906D01*
X102140Y37808D01*
X102129Y37709D01*
X102116Y37615D01*
X102102Y37527D01*
X102084Y37442D01*
X102065Y37362D01*
X102047Y37290D01*
X102028Y37220D01*
X102012Y37161D01*
X101993Y37108D01*
X101980Y37063D01*
X101966Y37028D01*
X101956Y37001D01*
X101950Y36985D01*
X101948Y36983D01*
Y36980D01*
X101908Y36892D01*
X101865Y36812D01*
X101817Y36734D01*
X101769Y36665D01*
X101721Y36598D01*
X101673Y36539D01*
X101625Y36486D01*
X101576Y36435D01*
X101531Y36393D01*
X101491Y36355D01*
X101454Y36323D01*
X101422Y36299D01*
X101395Y36278D01*
X101374Y36262D01*
X101363Y36254D01*
X101358Y36251D01*
X101283Y36206D01*
X101203Y36168D01*
X101120Y36134D01*
X101034Y36107D01*
X100952Y36083D01*
X100866Y36061D01*
X100786Y36045D01*
X100706Y36032D01*
X100634Y36021D01*
X100565Y36013D01*
X100503Y36008D01*
X100450Y36005D01*
X100428Y36003D01*
X100407D01*
X100391Y36000D01*
X100348D01*
X100239Y36003D01*
X100132Y36013D01*
X100033Y36029D01*
X99937Y36051D01*
X99849Y36075D01*
X99766Y36104D01*
X99689Y36134D01*
X99617Y36163D01*
X99555Y36192D01*
X99499Y36222D01*
X99451Y36251D01*
X99411Y36275D01*
X99379Y36296D01*
X99355Y36312D01*
X99342Y36323D01*
X99336Y36326D01*
X99262Y36390D01*
X99192Y36462D01*
X99128Y36537D01*
X99069Y36614D01*
X99019Y36691D01*
X98971Y36772D01*
X98928Y36849D01*
X98891Y36926D01*
X98858Y36999D01*
X98832Y37065D01*
X98810Y37124D01*
X98792Y37178D01*
X98778Y37220D01*
X98773Y37236D01*
X98768Y37252D01*
X98765Y37263D01*
X98762Y37271D01*
X98760Y37276D01*
Y37279D01*
X99267Y37407D01*
X99288Y37319D01*
X99315Y37236D01*
X99344Y37161D01*
X99374Y37089D01*
X99409Y37025D01*
X99440Y36964D01*
X99475Y36911D01*
X99507Y36862D01*
X99539Y36820D01*
X99571Y36782D01*
X99598Y36750D01*
X99622Y36724D01*
X99641Y36705D01*
X99657Y36689D01*
X99668Y36681D01*
X99670Y36678D01*
X99726Y36635D01*
X99785Y36598D01*
X99846Y36566D01*
X99905Y36537D01*
X99967Y36515D01*
X100025Y36494D01*
X100084Y36478D01*
X100140Y36465D01*
X100191Y36457D01*
X100239Y36449D01*
X100282Y36443D01*
X100316Y36438D01*
X100348D01*
X100370Y36435D01*
X100388D01*
X100452Y36438D01*
X100516Y36443D01*
X100581Y36451D01*
X100639Y36465D01*
X100695Y36478D01*
X100749Y36491D01*
X100800Y36507D01*
X100848Y36526D01*
X100890Y36542D01*
X100928Y36558D01*
X100962Y36571D01*
X100989Y36587D01*
X101013Y36598D01*
X101029Y36606D01*
X101040Y36611D01*
X101042Y36614D01*
X101096Y36649D01*
X101147Y36689D01*
X101195Y36732D01*
X101237Y36774D01*
X101277Y36820D01*
X101312Y36865D01*
X101347Y36908D01*
X101374Y36953D01*
X101400Y36993D01*
X101422Y37031D01*
X101440Y37065D01*
X101456Y37097D01*
X101467Y37121D01*
X101475Y37140D01*
X101480Y37151D01*
X101483Y37156D01*
X101507Y37225D01*
X101529Y37298D01*
X101550Y37370D01*
X101566Y37444D01*
X101590Y37586D01*
X101601Y37655D01*
X101606Y37720D01*
X101614Y37781D01*
X101617Y37837D01*
X101619Y37885D01*
X101622Y37928D01*
X101625Y37962D01*
Y37989D01*
Y38005D01*
Y38010D01*
X101622Y38083D01*
X101619Y38152D01*
X101606Y38285D01*
X101598Y38350D01*
X101587Y38408D01*
X101576Y38467D01*
X101563Y38521D01*
X101552Y38568D01*
X101542Y38611D01*
X101531Y38651D01*
X101523Y38683D01*
X101515Y38710D01*
X101510Y38729D01*
X101504Y38742D01*
Y38745D01*
X101480Y38811D01*
X101451Y38873D01*
X101422Y38929D01*
X101390Y38985D01*
X101355Y39036D01*
X101320Y39081D01*
X101286Y39124D01*
X101251Y39164D01*
X101219Y39199D01*
X101187Y39228D01*
X101160Y39255D01*
X101136Y39276D01*
X101117Y39292D01*
X101101Y39303D01*
X101091Y39311D01*
X101088Y39314D01*
X101032Y39351D01*
X100970Y39383D01*
X100909Y39412D01*
X100848Y39436D01*
X100786Y39458D01*
X100725Y39476D01*
X100663Y39490D01*
X100607Y39500D01*
X100554Y39508D01*
X100503Y39516D01*
X100461Y39522D01*
X100423Y39524D01*
X100391Y39527D01*
X100348D01*
X100279Y39524D01*
X100209Y39519D01*
X100145Y39508D01*
X100087Y39498D01*
X100031Y39482D01*
X99977Y39466D01*
X99929Y39450D01*
X99884Y39431D01*
X99846Y39412D01*
X99812Y39396D01*
X99780Y39380D01*
X99756Y39364D01*
X99737Y39353D01*
X99721Y39343D01*
X99713Y39338D01*
X99710Y39335D01*
X99665Y39297D01*
X99619Y39255D01*
X99579Y39209D01*
X99542Y39159D01*
X99507Y39110D01*
X99475Y39060D01*
X99449Y39009D01*
X99422Y38958D01*
X99398Y38913D01*
X99379Y38868D01*
X99360Y38830D01*
X99347Y38796D01*
X99336Y38766D01*
X99328Y38745D01*
X99326Y38731D01*
X99323Y38726D01*
X98824Y38844D01*
X98856Y38940D01*
X98891Y39030D01*
X98931Y39116D01*
X98973Y39196D01*
X99019Y39271D01*
X99064Y39338D01*
X99110Y39399D01*
X99155Y39455D01*
X99198Y39506D01*
X99238Y39548D01*
X99275Y39583D01*
X99307Y39615D01*
X99334Y39639D01*
X99355Y39655D01*
X99366Y39666D01*
X99371Y39669D01*
X99446Y39719D01*
X99526Y39765D01*
X99606Y39805D01*
X99689Y39839D01*
X99769Y39866D01*
X99849Y39890D01*
X99929Y39909D01*
X100004Y39925D01*
X100073Y39938D01*
X100137Y39946D01*
X100194Y39954D01*
X100244Y39957D01*
X100284Y39960D01*
X100300Y39962D01*
X100340D01*
X100434Y39960D01*
D02*
G37*
G36*
X90913D02*
X91003Y39952D01*
X91094Y39941D01*
X91177Y39925D01*
X91260Y39909D01*
X91337Y39890D01*
X91407Y39869D01*
X91473Y39847D01*
X91535Y39823D01*
X91588Y39805D01*
X91636Y39783D01*
X91673Y39767D01*
X91706Y39751D01*
X91730Y39741D01*
X91743Y39733D01*
X91748Y39730D01*
X91826Y39685D01*
X91898Y39634D01*
X91965Y39581D01*
X92029Y39527D01*
X92087Y39471D01*
X92141Y39412D01*
X92189Y39359D01*
X92232Y39303D01*
X92272Y39252D01*
X92304Y39204D01*
X92333Y39161D01*
X92357Y39124D01*
X92376Y39094D01*
X92389Y39070D01*
X92397Y39057D01*
X92400Y39052D01*
X92440Y38966D01*
X92475Y38878D01*
X92504Y38790D01*
X92531Y38699D01*
X92552Y38611D01*
X92571Y38526D01*
X92587Y38443D01*
X92597Y38363D01*
X92608Y38288D01*
X92613Y38221D01*
X92619Y38160D01*
X92624Y38109D01*
Y38085D01*
Y38067D01*
X92627Y38048D01*
Y38034D01*
Y38024D01*
Y38016D01*
Y38010D01*
Y38008D01*
X92624Y37906D01*
X92619Y37808D01*
X92608Y37709D01*
X92595Y37615D01*
X92581Y37527D01*
X92563Y37442D01*
X92544Y37362D01*
X92525Y37290D01*
X92507Y37220D01*
X92491Y37161D01*
X92472Y37108D01*
X92458Y37063D01*
X92445Y37028D01*
X92435Y37001D01*
X92429Y36985D01*
X92426Y36983D01*
Y36980D01*
X92386Y36892D01*
X92344Y36812D01*
X92296Y36734D01*
X92248Y36665D01*
X92199Y36598D01*
X92151Y36539D01*
X92103Y36486D01*
X92055Y36435D01*
X92010Y36393D01*
X91970Y36355D01*
X91932Y36323D01*
X91900Y36299D01*
X91874Y36278D01*
X91852Y36262D01*
X91842Y36254D01*
X91836Y36251D01*
X91762Y36206D01*
X91681Y36168D01*
X91599Y36134D01*
X91513Y36107D01*
X91430Y36083D01*
X91345Y36061D01*
X91265Y36045D01*
X91185Y36032D01*
X91113Y36021D01*
X91043Y36013D01*
X90982Y36008D01*
X90929Y36005D01*
X90907Y36003D01*
X90886D01*
X90870Y36000D01*
X90827D01*
X90718Y36003D01*
X90611Y36013D01*
X90512Y36029D01*
X90416Y36051D01*
X90328Y36075D01*
X90245Y36104D01*
X90168Y36134D01*
X90096Y36163D01*
X90034Y36192D01*
X89978Y36222D01*
X89930Y36251D01*
X89890Y36275D01*
X89858Y36296D01*
X89834Y36312D01*
X89820Y36323D01*
X89815Y36326D01*
X89740Y36390D01*
X89671Y36462D01*
X89607Y36537D01*
X89548Y36614D01*
X89498Y36691D01*
X89449Y36772D01*
X89407Y36849D01*
X89369Y36926D01*
X89337Y36999D01*
X89311Y37065D01*
X89289Y37124D01*
X89271Y37178D01*
X89257Y37220D01*
X89252Y37236D01*
X89246Y37252D01*
X89244Y37263D01*
X89241Y37271D01*
X89239Y37276D01*
Y37279D01*
X89746Y37407D01*
X89767Y37319D01*
X89794Y37236D01*
X89823Y37161D01*
X89853Y37089D01*
X89887Y37025D01*
X89919Y36964D01*
X89954Y36911D01*
X89986Y36862D01*
X90018Y36820D01*
X90050Y36782D01*
X90077Y36750D01*
X90101Y36724D01*
X90120Y36705D01*
X90136Y36689D01*
X90146Y36681D01*
X90149Y36678D01*
X90205Y36635D01*
X90264Y36598D01*
X90325Y36566D01*
X90384Y36537D01*
X90445Y36515D01*
X90504Y36494D01*
X90563Y36478D01*
X90619Y36465D01*
X90670Y36457D01*
X90718Y36449D01*
X90760Y36443D01*
X90795Y36438D01*
X90827D01*
X90848Y36435D01*
X90867D01*
X90931Y36438D01*
X90995Y36443D01*
X91059Y36451D01*
X91118Y36465D01*
X91174Y36478D01*
X91228Y36491D01*
X91278Y36507D01*
X91326Y36526D01*
X91369Y36542D01*
X91407Y36558D01*
X91441Y36571D01*
X91468Y36587D01*
X91492Y36598D01*
X91508Y36606D01*
X91519Y36611D01*
X91521Y36614D01*
X91575Y36649D01*
X91625Y36689D01*
X91673Y36732D01*
X91716Y36774D01*
X91756Y36820D01*
X91791Y36865D01*
X91826Y36908D01*
X91852Y36953D01*
X91879Y36993D01*
X91900Y37031D01*
X91919Y37065D01*
X91935Y37097D01*
X91946Y37121D01*
X91954Y37140D01*
X91959Y37151D01*
X91962Y37156D01*
X91986Y37225D01*
X92007Y37298D01*
X92029Y37370D01*
X92045Y37444D01*
X92069Y37586D01*
X92079Y37655D01*
X92085Y37720D01*
X92093Y37781D01*
X92095Y37837D01*
X92098Y37885D01*
X92101Y37928D01*
X92103Y37962D01*
Y37989D01*
Y38005D01*
Y38010D01*
X92101Y38083D01*
X92098Y38152D01*
X92085Y38285D01*
X92077Y38350D01*
X92066Y38408D01*
X92055Y38467D01*
X92042Y38521D01*
X92031Y38568D01*
X92021Y38611D01*
X92010Y38651D01*
X92002Y38683D01*
X91994Y38710D01*
X91989Y38729D01*
X91983Y38742D01*
Y38745D01*
X91959Y38811D01*
X91930Y38873D01*
X91900Y38929D01*
X91868Y38985D01*
X91834Y39036D01*
X91799Y39081D01*
X91764Y39124D01*
X91730Y39164D01*
X91698Y39199D01*
X91666Y39228D01*
X91639Y39255D01*
X91615Y39276D01*
X91596Y39292D01*
X91580Y39303D01*
X91569Y39311D01*
X91567Y39314D01*
X91511Y39351D01*
X91449Y39383D01*
X91388Y39412D01*
X91326Y39436D01*
X91265Y39458D01*
X91204Y39476D01*
X91142Y39490D01*
X91086Y39500D01*
X91033Y39508D01*
X90982Y39516D01*
X90939Y39522D01*
X90902Y39524D01*
X90870Y39527D01*
X90827D01*
X90758Y39524D01*
X90688Y39519D01*
X90624Y39508D01*
X90566Y39498D01*
X90509Y39482D01*
X90456Y39466D01*
X90408Y39450D01*
X90363Y39431D01*
X90325Y39412D01*
X90290Y39396D01*
X90258Y39380D01*
X90234Y39364D01*
X90216Y39353D01*
X90200Y39343D01*
X90192Y39338D01*
X90189Y39335D01*
X90144Y39297D01*
X90098Y39255D01*
X90058Y39209D01*
X90021Y39159D01*
X89986Y39110D01*
X89954Y39060D01*
X89927Y39009D01*
X89901Y38958D01*
X89877Y38913D01*
X89858Y38868D01*
X89839Y38830D01*
X89826Y38796D01*
X89815Y38766D01*
X89807Y38745D01*
X89805Y38731D01*
X89802Y38726D01*
X89302Y38844D01*
X89335Y38940D01*
X89369Y39030D01*
X89409Y39116D01*
X89452Y39196D01*
X89498Y39271D01*
X89543Y39338D01*
X89588Y39399D01*
X89634Y39455D01*
X89676Y39506D01*
X89716Y39548D01*
X89754Y39583D01*
X89786Y39615D01*
X89812Y39639D01*
X89834Y39655D01*
X89845Y39666D01*
X89850Y39669D01*
X89925Y39719D01*
X90005Y39765D01*
X90085Y39805D01*
X90168Y39839D01*
X90248Y39866D01*
X90328Y39890D01*
X90408Y39909D01*
X90483Y39925D01*
X90552Y39938D01*
X90616Y39946D01*
X90672Y39954D01*
X90723Y39957D01*
X90763Y39960D01*
X90779Y39962D01*
X90819D01*
X90913Y39960D01*
D02*
G37*
G36*
X81391D02*
X81482Y39952D01*
X81573Y39941D01*
X81656Y39925D01*
X81738Y39909D01*
X81816Y39890D01*
X81885Y39869D01*
X81952Y39847D01*
X82013Y39823D01*
X82067Y39805D01*
X82115Y39783D01*
X82152Y39767D01*
X82184Y39751D01*
X82208Y39741D01*
X82222Y39733D01*
X82227Y39730D01*
X82305Y39685D01*
X82377Y39634D01*
X82443Y39581D01*
X82507Y39527D01*
X82566Y39471D01*
X82620Y39412D01*
X82668Y39359D01*
X82710Y39303D01*
X82750Y39252D01*
X82782Y39204D01*
X82812Y39161D01*
X82836Y39124D01*
X82854Y39094D01*
X82868Y39070D01*
X82876Y39057D01*
X82879Y39052D01*
X82919Y38966D01*
X82953Y38878D01*
X82983Y38790D01*
X83009Y38699D01*
X83031Y38611D01*
X83049Y38526D01*
X83065Y38443D01*
X83076Y38363D01*
X83087Y38288D01*
X83092Y38221D01*
X83097Y38160D01*
X83103Y38109D01*
Y38085D01*
Y38067D01*
X83105Y38048D01*
Y38034D01*
Y38024D01*
Y38016D01*
Y38010D01*
Y38008D01*
X83103Y37906D01*
X83097Y37808D01*
X83087Y37709D01*
X83073Y37615D01*
X83060Y37527D01*
X83041Y37442D01*
X83023Y37362D01*
X83004Y37290D01*
X82985Y37220D01*
X82969Y37161D01*
X82951Y37108D01*
X82937Y37063D01*
X82924Y37028D01*
X82913Y37001D01*
X82908Y36985D01*
X82905Y36983D01*
Y36980D01*
X82865Y36892D01*
X82823Y36812D01*
X82774Y36734D01*
X82726Y36665D01*
X82678Y36598D01*
X82630Y36539D01*
X82582Y36486D01*
X82534Y36435D01*
X82489Y36393D01*
X82449Y36355D01*
X82411Y36323D01*
X82379Y36299D01*
X82353Y36278D01*
X82331Y36262D01*
X82320Y36254D01*
X82315Y36251D01*
X82240Y36206D01*
X82160Y36168D01*
X82077Y36134D01*
X81992Y36107D01*
X81909Y36083D01*
X81824Y36061D01*
X81744Y36045D01*
X81664Y36032D01*
X81592Y36021D01*
X81522Y36013D01*
X81461Y36008D01*
X81407Y36005D01*
X81386Y36003D01*
X81365D01*
X81349Y36000D01*
X81306D01*
X81196Y36003D01*
X81090Y36013D01*
X80991Y36029D01*
X80895Y36051D01*
X80807Y36075D01*
X80724Y36104D01*
X80646Y36134D01*
X80574Y36163D01*
X80513Y36192D01*
X80457Y36222D01*
X80409Y36251D01*
X80369Y36275D01*
X80337Y36296D01*
X80313Y36312D01*
X80299Y36323D01*
X80294Y36326D01*
X80219Y36390D01*
X80150Y36462D01*
X80086Y36537D01*
X80027Y36614D01*
X79976Y36691D01*
X79928Y36772D01*
X79886Y36849D01*
X79848Y36926D01*
X79816Y36999D01*
X79789Y37065D01*
X79768Y37124D01*
X79749Y37178D01*
X79736Y37220D01*
X79731Y37236D01*
X79725Y37252D01*
X79723Y37263D01*
X79720Y37271D01*
X79717Y37276D01*
Y37279D01*
X80225Y37407D01*
X80246Y37319D01*
X80273Y37236D01*
X80302Y37161D01*
X80331Y37089D01*
X80366Y37025D01*
X80398Y36964D01*
X80433Y36911D01*
X80465Y36862D01*
X80497Y36820D01*
X80529Y36782D01*
X80556Y36750D01*
X80580Y36724D01*
X80598Y36705D01*
X80614Y36689D01*
X80625Y36681D01*
X80628Y36678D01*
X80684Y36635D01*
X80743Y36598D01*
X80804Y36566D01*
X80863Y36537D01*
X80924Y36515D01*
X80983Y36494D01*
X81042Y36478D01*
X81098Y36465D01*
X81148Y36457D01*
X81196Y36449D01*
X81239Y36443D01*
X81274Y36438D01*
X81306D01*
X81327Y36435D01*
X81346D01*
X81410Y36438D01*
X81474Y36443D01*
X81538Y36451D01*
X81597Y36465D01*
X81653Y36478D01*
X81706Y36491D01*
X81757Y36507D01*
X81805Y36526D01*
X81848Y36542D01*
X81885Y36558D01*
X81920Y36571D01*
X81947Y36587D01*
X81971Y36598D01*
X81987Y36606D01*
X81997Y36611D01*
X82000Y36614D01*
X82054Y36649D01*
X82104Y36689D01*
X82152Y36732D01*
X82195Y36774D01*
X82235Y36820D01*
X82270Y36865D01*
X82305Y36908D01*
X82331Y36953D01*
X82358Y36993D01*
X82379Y37031D01*
X82398Y37065D01*
X82414Y37097D01*
X82425Y37121D01*
X82433Y37140D01*
X82438Y37151D01*
X82441Y37156D01*
X82465Y37225D01*
X82486Y37298D01*
X82507Y37370D01*
X82523Y37444D01*
X82547Y37586D01*
X82558Y37655D01*
X82564Y37720D01*
X82572Y37781D01*
X82574Y37837D01*
X82577Y37885D01*
X82579Y37928D01*
X82582Y37962D01*
Y37989D01*
Y38005D01*
Y38010D01*
X82579Y38083D01*
X82577Y38152D01*
X82564Y38285D01*
X82556Y38350D01*
X82545Y38408D01*
X82534Y38467D01*
X82521Y38521D01*
X82510Y38568D01*
X82499Y38611D01*
X82489Y38651D01*
X82481Y38683D01*
X82473Y38710D01*
X82467Y38729D01*
X82462Y38742D01*
Y38745D01*
X82438Y38811D01*
X82409Y38873D01*
X82379Y38929D01*
X82347Y38985D01*
X82313Y39036D01*
X82278Y39081D01*
X82243Y39124D01*
X82208Y39164D01*
X82176Y39199D01*
X82144Y39228D01*
X82118Y39255D01*
X82094Y39276D01*
X82075Y39292D01*
X82059Y39303D01*
X82048Y39311D01*
X82046Y39314D01*
X81989Y39351D01*
X81928Y39383D01*
X81867Y39412D01*
X81805Y39436D01*
X81744Y39458D01*
X81682Y39476D01*
X81621Y39490D01*
X81565Y39500D01*
X81511Y39508D01*
X81461Y39516D01*
X81418Y39522D01*
X81381Y39524D01*
X81349Y39527D01*
X81306D01*
X81236Y39524D01*
X81167Y39519D01*
X81103Y39508D01*
X81044Y39498D01*
X80988Y39482D01*
X80935Y39466D01*
X80887Y39450D01*
X80841Y39431D01*
X80804Y39412D01*
X80769Y39396D01*
X80737Y39380D01*
X80713Y39364D01*
X80695Y39353D01*
X80678Y39343D01*
X80670Y39338D01*
X80668Y39335D01*
X80622Y39297D01*
X80577Y39255D01*
X80537Y39209D01*
X80500Y39159D01*
X80465Y39110D01*
X80433Y39060D01*
X80406Y39009D01*
X80379Y38958D01*
X80355Y38913D01*
X80337Y38868D01*
X80318Y38830D01*
X80305Y38796D01*
X80294Y38766D01*
X80286Y38745D01*
X80283Y38731D01*
X80281Y38726D01*
X79781Y38844D01*
X79813Y38940D01*
X79848Y39030D01*
X79888Y39116D01*
X79931Y39196D01*
X79976Y39271D01*
X80022Y39338D01*
X80067Y39399D01*
X80112Y39455D01*
X80155Y39506D01*
X80195Y39548D01*
X80233Y39583D01*
X80265Y39615D01*
X80291Y39639D01*
X80313Y39655D01*
X80323Y39666D01*
X80329Y39669D01*
X80403Y39719D01*
X80484Y39765D01*
X80564Y39805D01*
X80646Y39839D01*
X80726Y39866D01*
X80807Y39890D01*
X80887Y39909D01*
X80962Y39925D01*
X81031Y39938D01*
X81095Y39946D01*
X81151Y39954D01*
X81202Y39957D01*
X81242Y39960D01*
X81258Y39962D01*
X81298D01*
X81391Y39960D01*
D02*
G37*
G36*
X71870D02*
X71961Y39952D01*
X72052Y39941D01*
X72135Y39925D01*
X72217Y39909D01*
X72295Y39890D01*
X72364Y39869D01*
X72431Y39847D01*
X72492Y39823D01*
X72546Y39805D01*
X72594Y39783D01*
X72631Y39767D01*
X72663Y39751D01*
X72687Y39741D01*
X72701Y39733D01*
X72706Y39730D01*
X72783Y39685D01*
X72855Y39634D01*
X72922Y39581D01*
X72986Y39527D01*
X73045Y39471D01*
X73098Y39412D01*
X73146Y39359D01*
X73189Y39303D01*
X73229Y39252D01*
X73261Y39204D01*
X73291Y39161D01*
X73315Y39124D01*
X73333Y39094D01*
X73347Y39070D01*
X73355Y39057D01*
X73357Y39052D01*
X73397Y38966D01*
X73432Y38878D01*
X73461Y38790D01*
X73488Y38699D01*
X73510Y38611D01*
X73528Y38526D01*
X73544Y38443D01*
X73555Y38363D01*
X73566Y38288D01*
X73571Y38221D01*
X73576Y38160D01*
X73582Y38109D01*
Y38085D01*
Y38067D01*
X73584Y38048D01*
Y38034D01*
Y38024D01*
Y38016D01*
Y38010D01*
Y38008D01*
X73582Y37906D01*
X73576Y37808D01*
X73566Y37709D01*
X73552Y37615D01*
X73539Y37527D01*
X73520Y37442D01*
X73501Y37362D01*
X73483Y37290D01*
X73464Y37220D01*
X73448Y37161D01*
X73429Y37108D01*
X73416Y37063D01*
X73403Y37028D01*
X73392Y37001D01*
X73387Y36985D01*
X73384Y36983D01*
Y36980D01*
X73344Y36892D01*
X73301Y36812D01*
X73253Y36734D01*
X73205Y36665D01*
X73157Y36598D01*
X73109Y36539D01*
X73061Y36486D01*
X73013Y36435D01*
X72967Y36393D01*
X72927Y36355D01*
X72890Y36323D01*
X72858Y36299D01*
X72831Y36278D01*
X72810Y36262D01*
X72799Y36254D01*
X72794Y36251D01*
X72719Y36206D01*
X72639Y36168D01*
X72556Y36134D01*
X72471Y36107D01*
X72388Y36083D01*
X72303Y36061D01*
X72223Y36045D01*
X72142Y36032D01*
X72070Y36021D01*
X72001Y36013D01*
X71939Y36008D01*
X71886Y36005D01*
X71865Y36003D01*
X71843D01*
X71827Y36000D01*
X71785D01*
X71675Y36003D01*
X71568Y36013D01*
X71470Y36029D01*
X71373Y36051D01*
X71285Y36075D01*
X71203Y36104D01*
X71125Y36134D01*
X71053Y36163D01*
X70992Y36192D01*
X70936Y36222D01*
X70888Y36251D01*
X70847Y36275D01*
X70815Y36296D01*
X70791Y36312D01*
X70778Y36323D01*
X70773Y36326D01*
X70698Y36390D01*
X70629Y36462D01*
X70565Y36537D01*
X70506Y36614D01*
X70455Y36691D01*
X70407Y36772D01*
X70364Y36849D01*
X70327Y36926D01*
X70295Y36999D01*
X70268Y37065D01*
X70247Y37124D01*
X70228Y37178D01*
X70215Y37220D01*
X70209Y37236D01*
X70204Y37252D01*
X70201Y37263D01*
X70199Y37271D01*
X70196Y37276D01*
Y37279D01*
X70703Y37407D01*
X70725Y37319D01*
X70751Y37236D01*
X70781Y37161D01*
X70810Y37089D01*
X70845Y37025D01*
X70877Y36964D01*
X70912Y36911D01*
X70944Y36862D01*
X70976Y36820D01*
X71008Y36782D01*
X71034Y36750D01*
X71058Y36724D01*
X71077Y36705D01*
X71093Y36689D01*
X71104Y36681D01*
X71106Y36678D01*
X71163Y36635D01*
X71221Y36598D01*
X71283Y36566D01*
X71342Y36537D01*
X71403Y36515D01*
X71462Y36494D01*
X71520Y36478D01*
X71576Y36465D01*
X71627Y36457D01*
X71675Y36449D01*
X71718Y36443D01*
X71753Y36438D01*
X71785D01*
X71806Y36435D01*
X71825D01*
X71889Y36438D01*
X71953Y36443D01*
X72017Y36451D01*
X72076Y36465D01*
X72132Y36478D01*
X72185Y36491D01*
X72236Y36507D01*
X72284Y36526D01*
X72327Y36542D01*
X72364Y36558D01*
X72399Y36571D01*
X72426Y36587D01*
X72449Y36598D01*
X72465Y36606D01*
X72476Y36611D01*
X72479Y36614D01*
X72532Y36649D01*
X72583Y36689D01*
X72631Y36732D01*
X72674Y36774D01*
X72714Y36820D01*
X72749Y36865D01*
X72783Y36908D01*
X72810Y36953D01*
X72837Y36993D01*
X72858Y37031D01*
X72877Y37065D01*
X72893Y37097D01*
X72903Y37121D01*
X72911Y37140D01*
X72917Y37151D01*
X72919Y37156D01*
X72944Y37225D01*
X72965Y37298D01*
X72986Y37370D01*
X73002Y37444D01*
X73026Y37586D01*
X73037Y37655D01*
X73042Y37720D01*
X73050Y37781D01*
X73053Y37837D01*
X73056Y37885D01*
X73058Y37928D01*
X73061Y37962D01*
Y37989D01*
Y38005D01*
Y38010D01*
X73058Y38083D01*
X73056Y38152D01*
X73042Y38285D01*
X73034Y38350D01*
X73024Y38408D01*
X73013Y38467D01*
X73000Y38521D01*
X72989Y38568D01*
X72978Y38611D01*
X72967Y38651D01*
X72960Y38683D01*
X72952Y38710D01*
X72946Y38729D01*
X72941Y38742D01*
Y38745D01*
X72917Y38811D01*
X72887Y38873D01*
X72858Y38929D01*
X72826Y38985D01*
X72791Y39036D01*
X72757Y39081D01*
X72722Y39124D01*
X72687Y39164D01*
X72655Y39199D01*
X72623Y39228D01*
X72596Y39255D01*
X72572Y39276D01*
X72554Y39292D01*
X72538Y39303D01*
X72527Y39311D01*
X72524Y39314D01*
X72468Y39351D01*
X72407Y39383D01*
X72345Y39412D01*
X72284Y39436D01*
X72223Y39458D01*
X72161Y39476D01*
X72100Y39490D01*
X72044Y39500D01*
X71990Y39508D01*
X71939Y39516D01*
X71897Y39522D01*
X71859Y39524D01*
X71827Y39527D01*
X71785D01*
X71715Y39524D01*
X71646Y39519D01*
X71582Y39508D01*
X71523Y39498D01*
X71467Y39482D01*
X71413Y39466D01*
X71365Y39450D01*
X71320Y39431D01*
X71283Y39412D01*
X71248Y39396D01*
X71216Y39380D01*
X71192Y39364D01*
X71173Y39353D01*
X71157Y39343D01*
X71149Y39338D01*
X71147Y39335D01*
X71101Y39297D01*
X71056Y39255D01*
X71016Y39209D01*
X70978Y39159D01*
X70944Y39110D01*
X70912Y39060D01*
X70885Y39009D01*
X70858Y38958D01*
X70834Y38913D01*
X70815Y38868D01*
X70797Y38830D01*
X70783Y38796D01*
X70773Y38766D01*
X70765Y38745D01*
X70762Y38731D01*
X70759Y38726D01*
X70260Y38844D01*
X70292Y38940D01*
X70327Y39030D01*
X70367Y39116D01*
X70410Y39196D01*
X70455Y39271D01*
X70500Y39338D01*
X70546Y39399D01*
X70591Y39455D01*
X70634Y39506D01*
X70674Y39548D01*
X70711Y39583D01*
X70743Y39615D01*
X70770Y39639D01*
X70791Y39655D01*
X70802Y39666D01*
X70807Y39669D01*
X70882Y39719D01*
X70962Y39765D01*
X71042Y39805D01*
X71125Y39839D01*
X71205Y39866D01*
X71285Y39890D01*
X71365Y39909D01*
X71440Y39925D01*
X71510Y39938D01*
X71574Y39946D01*
X71630Y39954D01*
X71681Y39957D01*
X71721Y39960D01*
X71737Y39962D01*
X71777D01*
X71870Y39960D01*
D02*
G37*
G36*
X143084Y36064D02*
X140689D01*
Y36515D01*
X142577D01*
Y39895D01*
X143084D01*
Y36064D01*
D02*
G37*
G36*
X133563D02*
X131168D01*
Y36515D01*
X133056D01*
Y39895D01*
X133563D01*
Y36064D01*
D02*
G37*
G36*
X124042D02*
X121647D01*
Y36515D01*
X123535D01*
Y39895D01*
X124042D01*
Y36064D01*
D02*
G37*
G36*
X114521Y36064D02*
X112126D01*
Y36515D01*
X114013D01*
Y39895D01*
X114521D01*
Y36064D01*
D02*
G37*
G36*
X104999D02*
X102604D01*
Y36515D01*
X104492D01*
Y39895D01*
X104999D01*
Y36064D01*
D02*
G37*
G36*
X95478D02*
X93083D01*
Y36515D01*
X94971D01*
Y39895D01*
X95478D01*
Y36064D01*
D02*
G37*
G36*
X85957D02*
X83562D01*
Y36515D01*
X85450D01*
Y39895D01*
X85957D01*
Y36064D01*
D02*
G37*
G36*
X76436D02*
X74041D01*
Y36515D01*
X75928D01*
Y39895D01*
X76436D01*
Y36064D01*
D02*
G37*
G36*
X144401Y37255D02*
Y37196D01*
X144403Y37140D01*
X144406Y37089D01*
X144409Y37041D01*
X144414Y36999D01*
X144417Y36959D01*
X144422Y36924D01*
X144427Y36892D01*
X144433Y36865D01*
X144438Y36841D01*
X144441Y36820D01*
X144446Y36804D01*
X144449Y36790D01*
X144451Y36782D01*
X144454Y36777D01*
Y36774D01*
X144478Y36721D01*
X144508Y36676D01*
X144539Y36633D01*
X144569Y36601D01*
X144598Y36571D01*
X144625Y36553D01*
X144641Y36542D01*
X144644Y36537D01*
X144646D01*
X144700Y36507D01*
X144756Y36489D01*
X144809Y36473D01*
X144863Y36462D01*
X144905Y36457D01*
X144927Y36454D01*
X144943D01*
X144956Y36451D01*
X144975D01*
X145023Y36454D01*
X145065Y36459D01*
X145108Y36467D01*
X145148Y36475D01*
X145183Y36489D01*
X145218Y36502D01*
X145247Y36515D01*
X145274Y36531D01*
X145298Y36547D01*
X145319Y36561D01*
X145338Y36574D01*
X145354Y36587D01*
X145364Y36595D01*
X145373Y36603D01*
X145378Y36609D01*
X145381Y36611D01*
X145407Y36646D01*
X145429Y36683D01*
X145450Y36726D01*
X145469Y36774D01*
X145495Y36873D01*
X145517Y36972D01*
X145525Y37020D01*
X145530Y37065D01*
X145535Y37105D01*
X145538Y37140D01*
X145541Y37170D01*
X145543Y37194D01*
Y37207D01*
Y37212D01*
X146000Y37148D01*
Y37044D01*
X145992Y36948D01*
X145981Y36857D01*
X145965Y36772D01*
X145944Y36697D01*
X145923Y36625D01*
X145901Y36561D01*
X145875Y36505D01*
X145851Y36454D01*
X145826Y36408D01*
X145805Y36374D01*
X145786Y36342D01*
X145768Y36318D01*
X145754Y36302D01*
X145746Y36291D01*
X145744Y36288D01*
X145690Y36238D01*
X145634Y36192D01*
X145573Y36155D01*
X145511Y36123D01*
X145447Y36094D01*
X145383Y36069D01*
X145319Y36051D01*
X145258Y36037D01*
X145199Y36024D01*
X145146Y36016D01*
X145097Y36008D01*
X145055Y36005D01*
X145020Y36003D01*
X144993Y36000D01*
X144972D01*
X144911Y36003D01*
X144849Y36005D01*
X144790Y36013D01*
X144737Y36021D01*
X144684Y36032D01*
X144636Y36043D01*
X144590Y36056D01*
X144550Y36069D01*
X144513Y36080D01*
X144478Y36094D01*
X144451Y36104D01*
X144427Y36115D01*
X144406Y36123D01*
X144393Y36131D01*
X144385Y36134D01*
X144382Y36136D01*
X144337Y36163D01*
X144294Y36192D01*
X144254Y36224D01*
X144216Y36259D01*
X144184Y36291D01*
X144152Y36326D01*
X144126Y36358D01*
X144102Y36390D01*
X144080Y36419D01*
X144062Y36449D01*
X144046Y36473D01*
X144032Y36497D01*
X144024Y36515D01*
X144016Y36529D01*
X144011Y36537D01*
Y36539D01*
X143990Y36590D01*
X143971Y36646D01*
X143957Y36707D01*
X143944Y36766D01*
X143923Y36892D01*
X143915Y36953D01*
X143907Y37012D01*
X143904Y37068D01*
X143899Y37119D01*
X143896Y37164D01*
Y37204D01*
X143893Y37239D01*
Y37263D01*
Y37279D01*
Y37284D01*
Y39895D01*
X144401D01*
Y37255D01*
D02*
G37*
G36*
X134879D02*
Y37196D01*
X134882Y37140D01*
X134885Y37089D01*
X134888Y37041D01*
X134893Y36999D01*
X134896Y36959D01*
X134901Y36924D01*
X134906Y36892D01*
X134912Y36865D01*
X134917Y36841D01*
X134920Y36820D01*
X134925Y36804D01*
X134927Y36790D01*
X134930Y36782D01*
X134933Y36777D01*
Y36774D01*
X134957Y36721D01*
X134986Y36676D01*
X135018Y36633D01*
X135048Y36601D01*
X135077Y36571D01*
X135104Y36553D01*
X135120Y36542D01*
X135122Y36537D01*
X135125D01*
X135178Y36507D01*
X135235Y36489D01*
X135288Y36473D01*
X135341Y36462D01*
X135384Y36457D01*
X135405Y36454D01*
X135422D01*
X135435Y36451D01*
X135453D01*
X135502Y36454D01*
X135544Y36459D01*
X135587Y36467D01*
X135627Y36475D01*
X135662Y36489D01*
X135696Y36502D01*
X135726Y36515D01*
X135752Y36531D01*
X135777Y36547D01*
X135798Y36561D01*
X135817Y36574D01*
X135833Y36587D01*
X135843Y36595D01*
X135851Y36603D01*
X135857Y36609D01*
X135859Y36611D01*
X135886Y36646D01*
X135907Y36683D01*
X135929Y36726D01*
X135948Y36774D01*
X135974Y36873D01*
X135995Y36972D01*
X136003Y37020D01*
X136009Y37065D01*
X136014Y37105D01*
X136017Y37140D01*
X136020Y37170D01*
X136022Y37194D01*
Y37207D01*
Y37212D01*
X136479Y37148D01*
Y37044D01*
X136471Y36948D01*
X136460Y36857D01*
X136444Y36772D01*
X136423Y36697D01*
X136401Y36625D01*
X136380Y36561D01*
X136353Y36505D01*
X136329Y36454D01*
X136305Y36408D01*
X136284Y36374D01*
X136265Y36342D01*
X136247Y36318D01*
X136233Y36302D01*
X136225Y36291D01*
X136223Y36288D01*
X136169Y36238D01*
X136113Y36192D01*
X136052Y36155D01*
X135990Y36123D01*
X135926Y36094D01*
X135862Y36069D01*
X135798Y36051D01*
X135737Y36037D01*
X135678Y36024D01*
X135624Y36016D01*
X135576Y36008D01*
X135534Y36005D01*
X135499Y36003D01*
X135472Y36000D01*
X135451D01*
X135389Y36003D01*
X135328Y36005D01*
X135269Y36013D01*
X135216Y36021D01*
X135162Y36032D01*
X135114Y36043D01*
X135069Y36056D01*
X135029Y36069D01*
X134992Y36080D01*
X134957Y36094D01*
X134930Y36104D01*
X134906Y36115D01*
X134885Y36123D01*
X134871Y36131D01*
X134863Y36134D01*
X134861Y36136D01*
X134815Y36163D01*
X134773Y36192D01*
X134733Y36224D01*
X134695Y36259D01*
X134663Y36291D01*
X134631Y36326D01*
X134604Y36358D01*
X134580Y36390D01*
X134559Y36419D01*
X134540Y36449D01*
X134524Y36473D01*
X134511Y36497D01*
X134503Y36515D01*
X134495Y36529D01*
X134490Y36537D01*
Y36539D01*
X134468Y36590D01*
X134450Y36646D01*
X134436Y36707D01*
X134423Y36766D01*
X134402Y36892D01*
X134394Y36953D01*
X134386Y37012D01*
X134383Y37068D01*
X134378Y37119D01*
X134375Y37164D01*
Y37204D01*
X134372Y37239D01*
Y37263D01*
Y37279D01*
Y37284D01*
Y39895D01*
X134879D01*
Y37255D01*
D02*
G37*
G36*
X125358D02*
Y37196D01*
X125361Y37140D01*
X125364Y37089D01*
X125366Y37041D01*
X125372Y36999D01*
X125374Y36959D01*
X125380Y36924D01*
X125385Y36892D01*
X125390Y36865D01*
X125396Y36841D01*
X125398Y36820D01*
X125404Y36804D01*
X125406Y36790D01*
X125409Y36782D01*
X125412Y36777D01*
Y36774D01*
X125436Y36721D01*
X125465Y36676D01*
X125497Y36633D01*
X125526Y36601D01*
X125556Y36571D01*
X125583Y36553D01*
X125599Y36542D01*
X125601Y36537D01*
X125604D01*
X125657Y36507D01*
X125713Y36489D01*
X125767Y36473D01*
X125820Y36462D01*
X125863Y36457D01*
X125884Y36454D01*
X125900D01*
X125914Y36451D01*
X125932D01*
X125980Y36454D01*
X126023Y36459D01*
X126066Y36467D01*
X126106Y36475D01*
X126140Y36489D01*
X126175Y36502D01*
X126205Y36515D01*
X126231Y36531D01*
X126255Y36547D01*
X126277Y36561D01*
X126295Y36574D01*
X126311Y36587D01*
X126322Y36595D01*
X126330Y36603D01*
X126335Y36609D01*
X126338Y36611D01*
X126365Y36646D01*
X126386Y36683D01*
X126408Y36726D01*
X126426Y36774D01*
X126453Y36873D01*
X126474Y36972D01*
X126482Y37020D01*
X126488Y37065D01*
X126493Y37105D01*
X126496Y37140D01*
X126498Y37170D01*
X126501Y37194D01*
Y37207D01*
Y37212D01*
X126958Y37148D01*
Y37044D01*
X126950Y36948D01*
X126939Y36857D01*
X126923Y36772D01*
X126901Y36697D01*
X126880Y36625D01*
X126859Y36561D01*
X126832Y36505D01*
X126808Y36454D01*
X126784Y36408D01*
X126763Y36374D01*
X126744Y36342D01*
X126725Y36318D01*
X126712Y36302D01*
X126704Y36291D01*
X126701Y36288D01*
X126648Y36238D01*
X126592Y36192D01*
X126530Y36155D01*
X126469Y36123D01*
X126405Y36094D01*
X126341Y36069D01*
X126277Y36051D01*
X126215Y36037D01*
X126157Y36024D01*
X126103Y36016D01*
X126055Y36008D01*
X126012Y36005D01*
X125978Y36003D01*
X125951Y36000D01*
X125930D01*
X125868Y36003D01*
X125807Y36005D01*
X125748Y36013D01*
X125695Y36021D01*
X125641Y36032D01*
X125593Y36043D01*
X125548Y36056D01*
X125508Y36069D01*
X125470Y36080D01*
X125436Y36094D01*
X125409Y36104D01*
X125385Y36115D01*
X125364Y36123D01*
X125350Y36131D01*
X125342Y36134D01*
X125339Y36136D01*
X125294Y36163D01*
X125251Y36192D01*
X125211Y36224D01*
X125174Y36259D01*
X125142Y36291D01*
X125110Y36326D01*
X125083Y36358D01*
X125059Y36390D01*
X125038Y36419D01*
X125019Y36449D01*
X125003Y36473D01*
X124990Y36497D01*
X124982Y36515D01*
X124974Y36529D01*
X124968Y36537D01*
Y36539D01*
X124947Y36590D01*
X124928Y36646D01*
X124915Y36707D01*
X124902Y36766D01*
X124880Y36892D01*
X124872Y36953D01*
X124864Y37012D01*
X124862Y37068D01*
X124856Y37119D01*
X124854Y37164D01*
Y37204D01*
X124851Y37239D01*
Y37263D01*
Y37279D01*
Y37284D01*
Y39895D01*
X125358D01*
Y37255D01*
D02*
G37*
G36*
X115837Y37255D02*
Y37196D01*
X115840Y37140D01*
X115842Y37089D01*
X115845Y37041D01*
X115850Y36999D01*
X115853Y36959D01*
X115858Y36924D01*
X115864Y36892D01*
X115869Y36865D01*
X115874Y36841D01*
X115877Y36820D01*
X115882Y36804D01*
X115885Y36790D01*
X115888Y36782D01*
X115890Y36777D01*
Y36774D01*
X115914Y36721D01*
X115944Y36676D01*
X115976Y36633D01*
X116005Y36601D01*
X116035Y36571D01*
X116061Y36553D01*
X116077Y36542D01*
X116080Y36537D01*
X116083D01*
X116136Y36507D01*
X116192Y36489D01*
X116245Y36473D01*
X116299Y36462D01*
X116342Y36457D01*
X116363Y36454D01*
X116379D01*
X116392Y36451D01*
X116411D01*
X116459Y36454D01*
X116502Y36459D01*
X116545Y36467D01*
X116585Y36475D01*
X116619Y36489D01*
X116654Y36502D01*
X116683Y36515D01*
X116710Y36531D01*
X116734Y36547D01*
X116755Y36561D01*
X116774Y36574D01*
X116790Y36587D01*
X116801Y36595D01*
X116809Y36603D01*
X116814Y36609D01*
X116817Y36611D01*
X116844Y36646D01*
X116865Y36683D01*
X116886Y36726D01*
X116905Y36774D01*
X116932Y36873D01*
X116953Y36972D01*
X116961Y37020D01*
X116966Y37065D01*
X116972Y37105D01*
X116974Y37140D01*
X116977Y37170D01*
X116980Y37194D01*
Y37207D01*
Y37212D01*
X117436Y37148D01*
Y37044D01*
X117428Y36948D01*
X117418Y36857D01*
X117402Y36772D01*
X117380Y36697D01*
X117359Y36625D01*
X117338Y36561D01*
X117311Y36505D01*
X117287Y36454D01*
X117263Y36408D01*
X117241Y36374D01*
X117223Y36342D01*
X117204Y36318D01*
X117191Y36302D01*
X117183Y36291D01*
X117180Y36288D01*
X117127Y36238D01*
X117071Y36192D01*
X117009Y36155D01*
X116948Y36123D01*
X116884Y36093D01*
X116820Y36069D01*
X116755Y36051D01*
X116694Y36037D01*
X116635Y36024D01*
X116582Y36016D01*
X116534Y36008D01*
X116491Y36005D01*
X116456Y36003D01*
X116430Y36000D01*
X116408D01*
X116347Y36003D01*
X116286Y36005D01*
X116227Y36013D01*
X116173Y36021D01*
X116120Y36032D01*
X116072Y36043D01*
X116027Y36056D01*
X115987Y36069D01*
X115949Y36080D01*
X115914Y36093D01*
X115888Y36104D01*
X115864Y36115D01*
X115842Y36123D01*
X115829Y36131D01*
X115821Y36134D01*
X115818Y36136D01*
X115773Y36163D01*
X115730Y36192D01*
X115690Y36224D01*
X115653Y36259D01*
X115621Y36291D01*
X115589Y36326D01*
X115562Y36358D01*
X115538Y36390D01*
X115517Y36419D01*
X115498Y36449D01*
X115482Y36473D01*
X115469Y36497D01*
X115461Y36515D01*
X115453Y36529D01*
X115447Y36537D01*
Y36539D01*
X115426Y36590D01*
X115407Y36646D01*
X115394Y36707D01*
X115380Y36766D01*
X115359Y36892D01*
X115351Y36953D01*
X115343Y37012D01*
X115340Y37068D01*
X115335Y37119D01*
X115332Y37164D01*
Y37204D01*
X115330Y37239D01*
Y37263D01*
Y37279D01*
Y37284D01*
Y39895D01*
X115837D01*
Y37255D01*
D02*
G37*
G36*
X106316D02*
Y37196D01*
X106318Y37140D01*
X106321Y37089D01*
X106324Y37041D01*
X106329Y36999D01*
X106332Y36959D01*
X106337Y36924D01*
X106342Y36892D01*
X106348Y36865D01*
X106353Y36841D01*
X106356Y36820D01*
X106361Y36804D01*
X106364Y36790D01*
X106367Y36782D01*
X106369Y36777D01*
Y36774D01*
X106393Y36721D01*
X106423Y36676D01*
X106455Y36633D01*
X106484Y36601D01*
X106513Y36571D01*
X106540Y36553D01*
X106556Y36542D01*
X106559Y36537D01*
X106561D01*
X106615Y36507D01*
X106671Y36489D01*
X106724Y36473D01*
X106778Y36462D01*
X106820Y36457D01*
X106842Y36454D01*
X106858D01*
X106871Y36451D01*
X106890D01*
X106938Y36454D01*
X106981Y36459D01*
X107023Y36467D01*
X107063Y36475D01*
X107098Y36489D01*
X107133Y36502D01*
X107162Y36515D01*
X107189Y36531D01*
X107213Y36547D01*
X107234Y36561D01*
X107253Y36574D01*
X107269Y36587D01*
X107280Y36595D01*
X107288Y36603D01*
X107293Y36609D01*
X107296Y36611D01*
X107322Y36646D01*
X107344Y36683D01*
X107365Y36726D01*
X107384Y36774D01*
X107411Y36873D01*
X107432Y36972D01*
X107440Y37020D01*
X107445Y37065D01*
X107450Y37105D01*
X107453Y37140D01*
X107456Y37170D01*
X107458Y37194D01*
Y37207D01*
Y37212D01*
X107915Y37148D01*
Y37044D01*
X107907Y36948D01*
X107896Y36857D01*
X107880Y36772D01*
X107859Y36697D01*
X107838Y36625D01*
X107816Y36561D01*
X107790Y36505D01*
X107766Y36454D01*
X107742Y36408D01*
X107720Y36374D01*
X107702Y36342D01*
X107683Y36318D01*
X107669Y36302D01*
X107661Y36291D01*
X107659Y36288D01*
X107605Y36238D01*
X107549Y36192D01*
X107488Y36155D01*
X107427Y36123D01*
X107362Y36093D01*
X107298Y36069D01*
X107234Y36051D01*
X107173Y36037D01*
X107114Y36024D01*
X107061Y36016D01*
X107013Y36008D01*
X106970Y36005D01*
X106935Y36003D01*
X106909Y36000D01*
X106887D01*
X106826Y36003D01*
X106764Y36005D01*
X106706Y36013D01*
X106652Y36021D01*
X106599Y36032D01*
X106551Y36043D01*
X106505Y36056D01*
X106465Y36069D01*
X106428Y36080D01*
X106393Y36093D01*
X106367Y36104D01*
X106342Y36115D01*
X106321Y36123D01*
X106308Y36131D01*
X106300Y36134D01*
X106297Y36136D01*
X106252Y36163D01*
X106209Y36192D01*
X106169Y36224D01*
X106132Y36259D01*
X106099Y36291D01*
X106068Y36326D01*
X106041Y36358D01*
X106017Y36390D01*
X105995Y36419D01*
X105977Y36449D01*
X105961Y36473D01*
X105947Y36497D01*
X105939Y36515D01*
X105931Y36529D01*
X105926Y36537D01*
Y36539D01*
X105905Y36590D01*
X105886Y36646D01*
X105873Y36707D01*
X105859Y36766D01*
X105838Y36892D01*
X105830Y36953D01*
X105822Y37012D01*
X105819Y37068D01*
X105814Y37119D01*
X105811Y37164D01*
Y37204D01*
X105808Y37239D01*
Y37263D01*
Y37279D01*
Y37284D01*
Y39895D01*
X106316D01*
Y37255D01*
D02*
G37*
G36*
X96795D02*
Y37196D01*
X96797Y37140D01*
X96800Y37089D01*
X96803Y37041D01*
X96808Y36999D01*
X96811Y36959D01*
X96816Y36924D01*
X96821Y36892D01*
X96827Y36865D01*
X96832Y36841D01*
X96835Y36820D01*
X96840Y36804D01*
X96843Y36790D01*
X96845Y36782D01*
X96848Y36777D01*
Y36774D01*
X96872Y36721D01*
X96901Y36676D01*
X96933Y36633D01*
X96963Y36601D01*
X96992Y36571D01*
X97019Y36553D01*
X97035Y36542D01*
X97038Y36537D01*
X97040D01*
X97094Y36507D01*
X97150Y36489D01*
X97203Y36473D01*
X97256Y36462D01*
X97299Y36457D01*
X97321Y36454D01*
X97337D01*
X97350Y36451D01*
X97369D01*
X97417Y36454D01*
X97459Y36459D01*
X97502Y36467D01*
X97542Y36475D01*
X97577Y36489D01*
X97612Y36502D01*
X97641Y36515D01*
X97668Y36531D01*
X97692Y36547D01*
X97713Y36561D01*
X97732Y36574D01*
X97748Y36587D01*
X97758Y36595D01*
X97766Y36603D01*
X97772Y36609D01*
X97774Y36611D01*
X97801Y36646D01*
X97822Y36683D01*
X97844Y36726D01*
X97863Y36774D01*
X97889Y36873D01*
X97911Y36972D01*
X97919Y37020D01*
X97924Y37065D01*
X97929Y37105D01*
X97932Y37140D01*
X97935Y37170D01*
X97937Y37194D01*
Y37207D01*
Y37212D01*
X98394Y37148D01*
Y37044D01*
X98386Y36948D01*
X98375Y36857D01*
X98359Y36772D01*
X98338Y36697D01*
X98317Y36625D01*
X98295Y36561D01*
X98268Y36505D01*
X98244Y36454D01*
X98220Y36408D01*
X98199Y36374D01*
X98180Y36342D01*
X98162Y36318D01*
X98148Y36302D01*
X98140Y36291D01*
X98138Y36288D01*
X98084Y36238D01*
X98028Y36192D01*
X97967Y36155D01*
X97905Y36123D01*
X97841Y36093D01*
X97777Y36069D01*
X97713Y36051D01*
X97652Y36037D01*
X97593Y36024D01*
X97540Y36016D01*
X97491Y36008D01*
X97449Y36005D01*
X97414Y36003D01*
X97387Y36000D01*
X97366D01*
X97304Y36003D01*
X97243Y36005D01*
X97184Y36013D01*
X97131Y36021D01*
X97078Y36032D01*
X97030Y36043D01*
X96984Y36056D01*
X96944Y36069D01*
X96907Y36080D01*
X96872Y36093D01*
X96845Y36104D01*
X96821Y36115D01*
X96800Y36123D01*
X96787Y36131D01*
X96779Y36134D01*
X96776Y36136D01*
X96731Y36163D01*
X96688Y36192D01*
X96648Y36224D01*
X96610Y36259D01*
X96578Y36291D01*
X96546Y36326D01*
X96520Y36358D01*
X96495Y36390D01*
X96474Y36419D01*
X96456Y36449D01*
X96439Y36473D01*
X96426Y36497D01*
X96418Y36515D01*
X96410Y36529D01*
X96405Y36537D01*
Y36539D01*
X96383Y36590D01*
X96365Y36646D01*
X96351Y36707D01*
X96338Y36766D01*
X96317Y36892D01*
X96309Y36953D01*
X96301Y37012D01*
X96298Y37068D01*
X96293Y37119D01*
X96290Y37164D01*
Y37204D01*
X96287Y37239D01*
Y37263D01*
Y37279D01*
Y37284D01*
Y39895D01*
X96795D01*
Y37255D01*
D02*
G37*
G36*
X87273D02*
Y37196D01*
X87276Y37140D01*
X87279Y37089D01*
X87281Y37041D01*
X87287Y36999D01*
X87289Y36959D01*
X87295Y36924D01*
X87300Y36892D01*
X87305Y36865D01*
X87311Y36841D01*
X87313Y36820D01*
X87319Y36804D01*
X87321Y36790D01*
X87324Y36782D01*
X87327Y36777D01*
Y36774D01*
X87351Y36721D01*
X87380Y36676D01*
X87412Y36633D01*
X87442Y36601D01*
X87471Y36571D01*
X87498Y36553D01*
X87514Y36542D01*
X87516Y36537D01*
X87519D01*
X87572Y36507D01*
X87629Y36489D01*
X87682Y36473D01*
X87735Y36462D01*
X87778Y36457D01*
X87799Y36454D01*
X87815D01*
X87829Y36451D01*
X87847D01*
X87896Y36454D01*
X87938Y36459D01*
X87981Y36467D01*
X88021Y36475D01*
X88056Y36489D01*
X88090Y36502D01*
X88120Y36515D01*
X88146Y36531D01*
X88170Y36547D01*
X88192Y36561D01*
X88210Y36574D01*
X88226Y36587D01*
X88237Y36595D01*
X88245Y36603D01*
X88251Y36609D01*
X88253Y36611D01*
X88280Y36646D01*
X88301Y36683D01*
X88323Y36726D01*
X88341Y36774D01*
X88368Y36873D01*
X88389Y36972D01*
X88397Y37020D01*
X88403Y37065D01*
X88408Y37105D01*
X88411Y37140D01*
X88413Y37170D01*
X88416Y37194D01*
Y37207D01*
Y37212D01*
X88873Y37148D01*
Y37044D01*
X88865Y36948D01*
X88854Y36857D01*
X88838Y36772D01*
X88817Y36697D01*
X88795Y36625D01*
X88774Y36561D01*
X88747Y36505D01*
X88723Y36454D01*
X88699Y36408D01*
X88678Y36374D01*
X88659Y36342D01*
X88640Y36318D01*
X88627Y36302D01*
X88619Y36291D01*
X88616Y36288D01*
X88563Y36238D01*
X88507Y36192D01*
X88446Y36155D01*
X88384Y36123D01*
X88320Y36093D01*
X88256Y36069D01*
X88192Y36051D01*
X88130Y36037D01*
X88072Y36024D01*
X88018Y36016D01*
X87970Y36008D01*
X87928Y36005D01*
X87893Y36003D01*
X87866Y36000D01*
X87845D01*
X87783Y36003D01*
X87722Y36005D01*
X87663Y36013D01*
X87610Y36021D01*
X87556Y36032D01*
X87508Y36043D01*
X87463Y36056D01*
X87423Y36069D01*
X87385Y36080D01*
X87351Y36093D01*
X87324Y36104D01*
X87300Y36115D01*
X87279Y36123D01*
X87265Y36131D01*
X87257Y36134D01*
X87255Y36136D01*
X87209Y36163D01*
X87167Y36192D01*
X87126Y36224D01*
X87089Y36259D01*
X87057Y36291D01*
X87025Y36326D01*
X86998Y36358D01*
X86974Y36390D01*
X86953Y36419D01*
X86934Y36449D01*
X86918Y36473D01*
X86905Y36497D01*
X86897Y36515D01*
X86889Y36529D01*
X86883Y36537D01*
Y36539D01*
X86862Y36590D01*
X86844Y36646D01*
X86830Y36707D01*
X86817Y36766D01*
X86795Y36892D01*
X86787Y36953D01*
X86779Y37012D01*
X86777Y37068D01*
X86771Y37119D01*
X86769Y37164D01*
Y37204D01*
X86766Y37239D01*
Y37263D01*
Y37279D01*
Y37284D01*
Y39895D01*
X87273D01*
Y37255D01*
D02*
G37*
G36*
X77752D02*
Y37196D01*
X77755Y37140D01*
X77758Y37089D01*
X77760Y37041D01*
X77766Y36999D01*
X77768Y36959D01*
X77773Y36924D01*
X77779Y36892D01*
X77784Y36865D01*
X77789Y36841D01*
X77792Y36820D01*
X77798Y36804D01*
X77800Y36790D01*
X77803Y36782D01*
X77806Y36777D01*
Y36774D01*
X77830Y36721D01*
X77859Y36676D01*
X77891Y36633D01*
X77920Y36601D01*
X77950Y36571D01*
X77976Y36553D01*
X77992Y36542D01*
X77995Y36537D01*
X77998D01*
X78051Y36507D01*
X78107Y36489D01*
X78161Y36473D01*
X78214Y36462D01*
X78257Y36457D01*
X78278Y36454D01*
X78294D01*
X78307Y36451D01*
X78326D01*
X78374Y36454D01*
X78417Y36459D01*
X78460Y36467D01*
X78500Y36475D01*
X78534Y36489D01*
X78569Y36502D01*
X78598Y36515D01*
X78625Y36531D01*
X78649Y36547D01*
X78671Y36561D01*
X78689Y36574D01*
X78705Y36587D01*
X78716Y36595D01*
X78724Y36603D01*
X78729Y36609D01*
X78732Y36611D01*
X78759Y36646D01*
X78780Y36683D01*
X78801Y36726D01*
X78820Y36774D01*
X78847Y36873D01*
X78868Y36972D01*
X78876Y37020D01*
X78882Y37065D01*
X78887Y37105D01*
X78890Y37140D01*
X78892Y37170D01*
X78895Y37194D01*
Y37207D01*
Y37212D01*
X79352Y37148D01*
Y37044D01*
X79343Y36948D01*
X79333Y36857D01*
X79317Y36772D01*
X79295Y36697D01*
X79274Y36625D01*
X79253Y36561D01*
X79226Y36505D01*
X79202Y36454D01*
X79178Y36408D01*
X79157Y36374D01*
X79138Y36342D01*
X79119Y36318D01*
X79106Y36302D01*
X79098Y36291D01*
X79095Y36288D01*
X79042Y36238D01*
X78986Y36192D01*
X78924Y36155D01*
X78863Y36123D01*
X78799Y36093D01*
X78735Y36069D01*
X78671Y36051D01*
X78609Y36037D01*
X78550Y36024D01*
X78497Y36016D01*
X78449Y36008D01*
X78406Y36005D01*
X78372Y36003D01*
X78345Y36000D01*
X78324D01*
X78262Y36003D01*
X78201Y36005D01*
X78142Y36013D01*
X78088Y36021D01*
X78035Y36032D01*
X77987Y36043D01*
X77942Y36056D01*
X77902Y36069D01*
X77864Y36080D01*
X77830Y36093D01*
X77803Y36104D01*
X77779Y36115D01*
X77758Y36123D01*
X77744Y36131D01*
X77736Y36134D01*
X77733Y36136D01*
X77688Y36163D01*
X77645Y36192D01*
X77605Y36224D01*
X77568Y36259D01*
X77536Y36291D01*
X77504Y36326D01*
X77477Y36358D01*
X77453Y36390D01*
X77432Y36419D01*
X77413Y36449D01*
X77397Y36473D01*
X77384Y36497D01*
X77376Y36515D01*
X77368Y36529D01*
X77362Y36537D01*
Y36539D01*
X77341Y36590D01*
X77322Y36646D01*
X77309Y36707D01*
X77296Y36766D01*
X77274Y36892D01*
X77266Y36953D01*
X77258Y37012D01*
X77255Y37068D01*
X77250Y37119D01*
X77248Y37164D01*
Y37204D01*
X77245Y37239D01*
Y37263D01*
Y37279D01*
Y37284D01*
Y39895D01*
X77752D01*
Y37255D01*
D02*
G37*
D10*
X315500Y54500D02*
Y60498D01*
X312501D01*
X311501Y59498D01*
Y57499D01*
X312501Y56499D01*
X315500D01*
X313501D02*
X311501Y54500D01*
X305503Y59498D02*
X306503Y60498D01*
X308502D01*
X309502Y59498D01*
Y58499D01*
X308502Y57499D01*
X306503D01*
X305503Y56499D01*
Y55500D01*
X306503Y54500D01*
X308502D01*
X309502Y55500D01*
X303504Y60498D02*
X299505D01*
X301504D01*
Y54500D01*
X315500Y80498D02*
Y74500D01*
X312501D01*
X311501Y75500D01*
Y79498D01*
X312501Y80498D01*
X315500D01*
X309502Y74500D02*
Y78499D01*
X307503Y80498D01*
X305503Y78499D01*
Y74500D01*
Y77499D01*
X309502D01*
X303504Y80498D02*
X299505D01*
X301504D01*
Y74500D01*
X311501Y69498D02*
X312501Y70498D01*
X314500D01*
X315500Y69498D01*
Y65500D01*
X314500Y64500D01*
X312501D01*
X311501Y65500D01*
X309502Y70498D02*
Y64500D01*
X305503D01*
X303504Y70498D02*
Y64500D01*
Y66499D01*
X299505Y70498D01*
X302504Y67499D01*
X299505Y64500D01*
X311501Y49498D02*
X312501Y50498D01*
X314500D01*
X315500Y49498D01*
Y45500D01*
X314500Y44500D01*
X312501D01*
X311501Y45500D01*
Y47499D01*
X313501D01*
X309502Y44500D02*
Y50498D01*
X305503Y44500D01*
Y50498D01*
X303504D02*
Y44500D01*
X300505D01*
X299505Y45500D01*
Y49498D01*
X300505Y50498D01*
X303504D01*
D13*
X273900Y55365D02*
Y52166D01*
X272301D01*
X271767Y52700D01*
Y54832D01*
X272301Y55365D01*
X273900D01*
X269102Y52166D02*
X270168D01*
X270701Y52700D01*
Y53766D01*
X270168Y54299D01*
X269102D01*
X268568Y53766D01*
Y53233D01*
X270701D01*
X267502Y51100D02*
Y54299D01*
X265903D01*
X265369Y53766D01*
Y52700D01*
X265903Y52166D01*
X267502D01*
X263770Y54299D02*
X262704D01*
X262170Y53766D01*
Y52166D01*
X263770D01*
X264303Y52700D01*
X263770Y53233D01*
X262170D01*
X261104Y54299D02*
Y52166D01*
Y53233D01*
X260571Y53766D01*
X260038Y54299D01*
X259505D01*
X257372Y54832D02*
Y54299D01*
X257905D01*
X256839D01*
X257372D01*
Y52700D01*
X256839Y52166D01*
X255239D02*
Y54299D01*
X254706D01*
X254173Y53766D01*
Y52166D01*
Y53766D01*
X253640Y54299D01*
X253107Y53766D01*
Y52166D01*
X250441D02*
X251507D01*
X252040Y52700D01*
Y53766D01*
X251507Y54299D01*
X250441D01*
X249908Y53766D01*
Y53233D01*
X252040D01*
X248841Y52166D02*
Y54299D01*
X247242D01*
X246709Y53766D01*
Y52166D01*
X245109Y54832D02*
Y54299D01*
X245642D01*
X244576D01*
X245109D01*
Y52700D01*
X244576Y52166D01*
X239245D02*
X238178D01*
X237645Y52700D01*
Y53766D01*
X238178Y54299D01*
X239245D01*
X239778Y53766D01*
Y52700D01*
X239245Y52166D01*
X236046D02*
Y54832D01*
Y53766D01*
X236579D01*
X235512D01*
X236046D01*
Y54832D01*
X235512Y55365D01*
X228581D02*
X230714D01*
Y52166D01*
X228581D01*
X230714Y53766D02*
X229648D01*
X227515Y52166D02*
X226449D01*
X226982D01*
Y55365D01*
X227515D01*
X223250Y52166D02*
X224316D01*
X224849Y52700D01*
Y53766D01*
X224316Y54299D01*
X223250D01*
X222716Y53766D01*
Y53233D01*
X224849D01*
X219517Y54299D02*
X221117D01*
X221650Y53766D01*
Y52700D01*
X221117Y52166D01*
X219517D01*
X217918Y54832D02*
Y54299D01*
X218451D01*
X217385D01*
X217918D01*
Y52700D01*
X217385Y52166D01*
X215785Y54299D02*
Y52166D01*
Y53233D01*
X215252Y53766D01*
X214719Y54299D01*
X214186D01*
X212586Y52166D02*
X211520D01*
X212053D01*
Y54299D01*
X212586D01*
X207788D02*
X209387D01*
X209921Y53766D01*
Y52700D01*
X209387Y52166D01*
X207788D01*
X206189Y54299D02*
X205122D01*
X204589Y53766D01*
Y52166D01*
X206189D01*
X206722Y52700D01*
X206189Y53233D01*
X204589D01*
X203523Y52166D02*
X202456D01*
X202990D01*
Y55365D01*
X203523D01*
X195525D02*
X197658D01*
Y52166D01*
X195525D01*
X197658Y53766D02*
X196592D01*
X194459Y52166D02*
Y54299D01*
X192859D01*
X192326Y53766D01*
Y52166D01*
X190194Y51100D02*
X189661D01*
X189127Y51633D01*
Y54299D01*
X190727D01*
X191260Y53766D01*
Y52700D01*
X190727Y52166D01*
X189127D01*
X188061D02*
X186995D01*
X187528D01*
Y54299D01*
X188061D01*
X185395Y52166D02*
Y54299D01*
X183796D01*
X183263Y53766D01*
Y52166D01*
X180597D02*
X181663D01*
X182196Y52700D01*
Y53766D01*
X181663Y54299D01*
X180597D01*
X180064Y53766D01*
Y53233D01*
X182196D01*
X177398Y52166D02*
X178464D01*
X178997Y52700D01*
Y53766D01*
X178464Y54299D01*
X177398D01*
X176865Y53766D01*
Y53233D01*
X178997D01*
X175798Y54299D02*
Y52166D01*
Y53233D01*
X175265Y53766D01*
X174732Y54299D01*
X174199D01*
X172599Y52166D02*
X171533D01*
X172066D01*
Y54299D01*
X172599D01*
X169933Y52166D02*
Y54299D01*
X168334D01*
X167801Y53766D01*
Y52166D01*
X165668Y51100D02*
X165135D01*
X164602Y51633D01*
Y54299D01*
X166201D01*
X166735Y53766D01*
Y52700D01*
X166201Y52166D01*
X164602D01*
X273900Y49365D02*
Y46700D01*
X273367Y46166D01*
X272301D01*
X271767Y46700D01*
Y49365D01*
X270701Y46166D02*
Y48299D01*
X269102D01*
X268568Y47766D01*
Y46166D01*
X267502D02*
X266436D01*
X266969D01*
Y48299D01*
X267502D01*
X264836D02*
X263770Y46166D01*
X262704Y48299D01*
X260038Y46166D02*
X261104D01*
X261637Y46700D01*
Y47766D01*
X261104Y48299D01*
X260038D01*
X259505Y47766D01*
Y47233D01*
X261637D01*
X258438Y48299D02*
Y46166D01*
Y47233D01*
X257905Y47766D01*
X257372Y48299D01*
X256839D01*
X255239Y46166D02*
X253640D01*
X253107Y46700D01*
X253640Y47233D01*
X254706D01*
X255239Y47766D01*
X254706Y48299D01*
X253107D01*
X252040Y46166D02*
X250974D01*
X251507D01*
Y48299D01*
X252040D01*
X248841Y48832D02*
Y48299D01*
X249375D01*
X248308D01*
X248841D01*
Y46700D01*
X248308Y46166D01*
X246709Y48299D02*
Y46700D01*
X246176Y46166D01*
X244576D01*
Y45633D01*
X245109Y45100D01*
X245642D01*
X244576Y46166D02*
Y48299D01*
X239778Y46166D02*
X238711D01*
X238178Y46700D01*
Y47766D01*
X238711Y48299D01*
X239778D01*
X240311Y47766D01*
Y46700D01*
X239778Y46166D01*
X236579D02*
Y48832D01*
Y47766D01*
X237112D01*
X236046D01*
X236579D01*
Y48832D01*
X236046Y49365D01*
X229115Y48832D02*
X229648Y49365D01*
X230714D01*
X231247Y48832D01*
Y46700D01*
X230714Y46166D01*
X229648D01*
X229115Y46700D01*
X227515Y48299D02*
X226449D01*
X225916Y47766D01*
Y46166D01*
X227515D01*
X228048Y46700D01*
X227515Y47233D01*
X225916D01*
X224849Y45100D02*
Y48299D01*
X223250D01*
X222716Y47766D01*
Y46700D01*
X223250Y46166D01*
X224849D01*
X220051D02*
X221117D01*
X221650Y46700D01*
Y47766D01*
X221117Y48299D01*
X220051D01*
X219517Y47766D01*
Y47233D01*
X221650D01*
X215252Y49365D02*
X213120D01*
X214186D01*
Y46166D01*
X211520D02*
X210454D01*
X209921Y46700D01*
Y47766D01*
X210454Y48299D01*
X211520D01*
X212053Y47766D01*
Y46700D01*
X211520Y46166D01*
X208854Y48299D02*
Y46700D01*
X208321Y46166D01*
X207788Y46700D01*
X207255Y46166D01*
X206722Y46700D01*
Y48299D01*
X205655Y46166D02*
Y48299D01*
X204056D01*
X203523Y47766D01*
Y46166D01*
X273900Y64365D02*
Y61166D01*
Y62766D01*
X273367Y63299D01*
X272301D01*
X271767Y62766D01*
Y61166D01*
X270168Y63832D02*
Y63299D01*
X270701D01*
X269635D01*
X270168D01*
Y61699D01*
X269635Y61166D01*
X267502Y63832D02*
Y63299D01*
X268035D01*
X266969D01*
X267502D01*
Y61699D01*
X266969Y61166D01*
X265369Y60100D02*
Y63299D01*
X263770D01*
X263237Y62766D01*
Y61699D01*
X263770Y61166D01*
X265369D01*
X262171D02*
X260571D01*
X260038Y61699D01*
X260571Y62233D01*
X261637D01*
X262171Y62766D01*
X261637Y63299D01*
X260038D01*
X258972D02*
X258438D01*
Y62766D01*
X258972D01*
Y63299D01*
Y61699D02*
X258438D01*
Y61166D01*
X258972D01*
Y61699D01*
X256306Y61166D02*
X254173Y63299D01*
X253107Y61166D02*
X250974Y63299D01*
X248841Y60100D02*
X248308D01*
X247775Y60633D01*
Y63299D01*
X249375D01*
X249908Y62766D01*
Y61699D01*
X249375Y61166D01*
X247775D01*
X246709D02*
X245642D01*
X246176D01*
Y63299D01*
X246709D01*
X243510Y63832D02*
Y63299D01*
X244043D01*
X242977D01*
X243510D01*
Y61699D01*
X242977Y61166D01*
X241377Y64365D02*
Y61166D01*
Y62766D01*
X240844Y63299D01*
X239778D01*
X239245Y62766D01*
Y61166D01*
X238178Y63299D02*
Y61699D01*
X237645Y61166D01*
X236046D01*
Y63299D01*
X234979Y64365D02*
Y61166D01*
X233380D01*
X232847Y61699D01*
Y62233D01*
Y62766D01*
X233380Y63299D01*
X234979D01*
X231780Y61166D02*
Y61699D01*
X231247D01*
Y61166D01*
X231780D01*
X226982Y63299D02*
X228581D01*
X229115Y62766D01*
Y61699D01*
X228581Y61166D01*
X226982D01*
X225382D02*
X224316D01*
X223783Y61699D01*
Y62766D01*
X224316Y63299D01*
X225382D01*
X225916Y62766D01*
Y61699D01*
X225382Y61166D01*
X222716D02*
Y63299D01*
X222183D01*
X221650Y62766D01*
Y61166D01*
Y62766D01*
X221117Y63299D01*
X220584Y62766D01*
Y61166D01*
X219518D02*
X217385Y63299D01*
X216319Y64365D02*
Y61166D01*
X214186D01*
X212586Y63299D02*
X211520D01*
X210987Y62766D01*
Y61166D01*
X212586D01*
X213120Y61699D01*
X212586Y62233D01*
X210987D01*
X209921Y63299D02*
Y61699D01*
X209387Y61166D01*
X208854Y61699D01*
X208321Y61166D01*
X207788Y61699D01*
Y63299D01*
X206722D02*
Y61166D01*
Y62233D01*
X206189Y62766D01*
X205655Y63299D01*
X205122D01*
X201923Y61166D02*
X202990D01*
X203523Y61699D01*
Y62766D01*
X202990Y63299D01*
X201923D01*
X201390Y62766D01*
Y62233D01*
X203523D01*
X200324Y61166D02*
Y63299D01*
X198724D01*
X198191Y62766D01*
Y61166D01*
X194992Y63299D02*
X196592D01*
X197125Y62766D01*
Y61699D01*
X196592Y61166D01*
X194992D01*
X192326D02*
X193393D01*
X193926Y61699D01*
Y62766D01*
X193393Y63299D01*
X192326D01*
X191793Y62766D01*
Y62233D01*
X193926D01*
X188594Y63832D02*
X189127Y64365D01*
X190194D01*
X190727Y63832D01*
Y63299D01*
X190194Y62766D01*
X189127D01*
X188594Y62233D01*
Y61699D01*
X189127Y61166D01*
X190194D01*
X190727Y61699D01*
X186995Y63832D02*
Y63299D01*
X187528D01*
X186461D01*
X186995D01*
Y61699D01*
X186461Y61166D01*
X184329Y63299D02*
X183263D01*
X182729Y62766D01*
Y61166D01*
X184329D01*
X184862Y61699D01*
X184329Y62233D01*
X182729D01*
X181663Y61166D02*
Y63299D01*
X180064D01*
X179530Y62766D01*
Y61166D01*
X177931Y63832D02*
Y63299D01*
X178464D01*
X177398D01*
X177931D01*
Y61699D01*
X177398Y61166D01*
X175265D02*
X174199D01*
X173666Y61699D01*
Y62766D01*
X174199Y63299D01*
X175265D01*
X175798Y62766D01*
Y61699D01*
X175265Y61166D01*
X172599D02*
Y63299D01*
X171000D01*
X170467Y62766D01*
Y61166D01*
X273900Y66600D02*
Y69799D01*
X272301D01*
X271767Y69266D01*
Y68199D01*
X272301Y67666D01*
X273900D01*
X272834D02*
X271767Y66600D01*
X269102D02*
X270168D01*
X270701Y67133D01*
Y68199D01*
X270168Y68733D01*
X269102D01*
X268568Y68199D01*
Y67666D01*
X270701D01*
X267502Y68733D02*
X266436Y66600D01*
X265369Y68733D01*
X264303Y66600D02*
X263237D01*
X263770D01*
Y68733D01*
X264303D01*
X261637Y66600D02*
X260038D01*
X259505Y67133D01*
X260038Y67666D01*
X261104D01*
X261637Y68199D01*
X261104Y68733D01*
X259505D01*
X258438Y66600D02*
X257372D01*
X257905D01*
Y68733D01*
X258438D01*
X255239Y66600D02*
X254173D01*
X253640Y67133D01*
Y68199D01*
X254173Y68733D01*
X255239D01*
X255772Y68199D01*
Y67133D01*
X255239Y66600D01*
X252573D02*
Y68733D01*
X250974D01*
X250441Y68199D01*
Y66600D01*
X246176D02*
X245109D01*
X245642D01*
Y69799D01*
X246176Y69266D01*
X243510Y66600D02*
Y67133D01*
X242977D01*
Y66600D01*
X243510D01*
X240844D02*
X239778D01*
X240311D01*
Y69799D01*
X240844Y69266D01*
X238178Y66600D02*
Y67133D01*
X237645D01*
Y66600D01*
X238178D01*
X274200Y101000D02*
X271001D01*
Y99401D01*
X271534Y98867D01*
X272601D01*
X273134Y99401D01*
Y101000D01*
X274200Y97801D02*
X272067D01*
X271001Y96735D01*
X272067Y95668D01*
X274200D01*
X272601D01*
Y97801D01*
X271534Y94602D02*
X271001Y94069D01*
Y93003D01*
X271534Y92469D01*
X272067D01*
X272601Y93003D01*
X273134Y92469D01*
X273667D01*
X274200Y93003D01*
Y94069D01*
X273667Y94602D01*
X273134D01*
X272601Y94069D01*
X272067Y94602D01*
X271534D01*
X272601Y94069D02*
Y93003D01*
X264200Y101000D02*
X261001D01*
Y99401D01*
X261534Y98867D01*
X262600D01*
X263134Y99401D01*
Y101000D01*
X264200Y97801D02*
X262067D01*
X261001Y96735D01*
X262067Y95668D01*
X264200D01*
X262600D01*
Y97801D01*
X263667Y94602D02*
X264200Y94069D01*
Y93003D01*
X263667Y92469D01*
X261534D01*
X261001Y93003D01*
Y94069D01*
X261534Y94602D01*
X262067D01*
X262600Y94069D01*
Y92469D01*
X221001Y101000D02*
X224200D01*
Y99401D01*
X223667Y98867D01*
X221534D01*
X221001Y99401D01*
Y101000D01*
X224200Y97801D02*
X222067D01*
X221001Y96735D01*
X222067Y95668D01*
X224200D01*
X222601D01*
Y97801D01*
X221001Y94602D02*
Y92469D01*
Y93536D01*
X224200D01*
X191534Y98867D02*
X191001Y99401D01*
Y100467D01*
X191534Y101000D01*
X193667D01*
X194200Y100467D01*
Y99401D01*
X193667Y98867D01*
X191001Y97801D02*
X194200D01*
Y95668D01*
X191001Y94602D02*
X194200D01*
X193134D01*
X191001Y92469D01*
X192601Y94069D01*
X194200Y92469D01*
X154200Y101000D02*
X151001D01*
Y99401D01*
X151534Y98867D01*
X152601D01*
X153134Y99401D01*
Y101000D01*
X151001Y97801D02*
X154200D01*
Y96201D01*
X153667Y95668D01*
X153134D01*
X152601Y96201D01*
Y97801D01*
Y96201D01*
X152067Y95668D01*
X151534D01*
X151001Y96201D01*
Y97801D01*
Y92469D02*
Y94602D01*
X152601D01*
X152067Y93536D01*
Y93003D01*
X152601Y92469D01*
X153667D01*
X154200Y93003D01*
Y94069D01*
X153667Y94602D01*
X144200Y101000D02*
X141001D01*
Y99401D01*
X141534Y98867D01*
X142601D01*
X143134Y99401D01*
Y101000D01*
X141001Y97801D02*
X144200D01*
Y96201D01*
X143667Y95668D01*
X143134D01*
X142601Y96201D01*
Y97801D01*
Y96201D01*
X142067Y95668D01*
X141534D01*
X141001Y96201D01*
Y97801D01*
Y92469D02*
X141534Y93536D01*
X142601Y94602D01*
X143667D01*
X144200Y94069D01*
Y93003D01*
X143667Y92469D01*
X143134D01*
X142601Y93003D01*
Y94602D01*
X104200Y101000D02*
X101001D01*
Y99401D01*
X101534Y98867D01*
X102601D01*
X103134Y99401D01*
Y101000D01*
X101001Y97801D02*
X104200D01*
Y96201D01*
X103667Y95668D01*
X103134D01*
X102601Y96201D01*
Y97801D01*
Y96201D01*
X102067Y95668D01*
X101534D01*
X101001Y96201D01*
Y97801D01*
X103667Y94602D02*
X104200Y94069D01*
Y93003D01*
X103667Y92469D01*
X101534D01*
X101001Y93003D01*
Y94069D01*
X101534Y94602D01*
X102067D01*
X102601Y94069D01*
Y92469D01*
X114200Y101000D02*
X111001D01*
Y99401D01*
X111534Y98867D01*
X112601D01*
X113134Y99401D01*
Y101000D01*
X111001Y97801D02*
X114200D01*
Y96201D01*
X113667Y95668D01*
X113134D01*
X112601Y96201D01*
Y97801D01*
Y96201D01*
X112067Y95668D01*
X111534D01*
X111001Y96201D01*
Y97801D01*
X111534Y94602D02*
X111001Y94069D01*
Y93003D01*
X111534Y92469D01*
X112067D01*
X112601Y93003D01*
X113134Y92469D01*
X113667D01*
X114200Y93003D01*
Y94069D01*
X113667Y94602D01*
X113134D01*
X112601Y94069D01*
X112067Y94602D01*
X111534D01*
X112601Y94069D02*
Y93003D01*
X301534Y18967D02*
X301001Y19500D01*
Y20567D01*
X301534Y21100D01*
X303667D01*
X304200Y20567D01*
Y19500D01*
X303667Y18967D01*
X302601D01*
Y20034D01*
X304200Y17901D02*
X301001D01*
X304200Y15768D01*
X301001D01*
Y14702D02*
X304200D01*
Y13103D01*
X303667Y12569D01*
X301534D01*
X301001Y13103D01*
Y14702D01*
X311534Y21100D02*
X311001Y20567D01*
Y19500D01*
X311534Y18967D01*
X312067D01*
X312600Y19500D01*
Y20034D01*
Y19500D01*
X313134Y18967D01*
X313667D01*
X314200Y19500D01*
Y20567D01*
X313667Y21100D01*
X311001Y17901D02*
X313134D01*
X314200Y16835D01*
X313134Y15768D01*
X311001D01*
X311534Y14702D02*
X311001Y14169D01*
Y13103D01*
X311534Y12569D01*
X312067D01*
X312600Y13103D01*
Y13636D01*
Y13103D01*
X313134Y12569D01*
X313667D01*
X314200Y13103D01*
Y14169D01*
X313667Y14702D01*
X311001Y101000D02*
X314200D01*
Y99401D01*
X313667Y98867D01*
X313134D01*
X312600Y99401D01*
Y101000D01*
Y99401D01*
X312067Y98867D01*
X311534D01*
X311001Y99401D01*
Y101000D01*
X314200Y97801D02*
Y96735D01*
Y97268D01*
X311001D01*
X311534Y97801D01*
X314200Y93003D02*
Y95135D01*
X312067Y93003D01*
X311534D01*
X311001Y93536D01*
Y94602D01*
X311534Y95135D01*
X301001Y101000D02*
X304200D01*
Y99401D01*
X303667Y98867D01*
X303134D01*
X302601Y99401D01*
Y101000D01*
Y99401D01*
X302067Y98867D01*
X301534D01*
X301001Y99401D01*
Y101000D01*
X304200Y97801D02*
Y96735D01*
Y97268D01*
X301001D01*
X301534Y97801D01*
Y95135D02*
X301001Y94602D01*
Y93536D01*
X301534Y93003D01*
X302067D01*
X302601Y93536D01*
Y94069D01*
Y93536D01*
X303134Y93003D01*
X303667D01*
X304200Y93536D01*
Y94602D01*
X303667Y95135D01*
X264200Y21100D02*
X261001D01*
Y19500D01*
X261534Y18967D01*
X262600D01*
X263134Y19500D01*
Y21100D01*
X261001Y17901D02*
X264200D01*
Y16302D01*
X263667Y15768D01*
X263134D01*
X262600Y16302D01*
Y17901D01*
Y16302D01*
X262067Y15768D01*
X261534D01*
X261001Y16302D01*
Y17901D01*
X264200Y14702D02*
Y13636D01*
Y14169D01*
X261001D01*
X261534Y14702D01*
X274200Y21100D02*
X271001D01*
Y19500D01*
X271534Y18967D01*
X272601D01*
X273134Y19500D01*
Y21100D01*
X271001Y17901D02*
X274200D01*
Y16302D01*
X273667Y15768D01*
X273134D01*
X272601Y16302D01*
Y17901D01*
Y16302D01*
X272067Y15768D01*
X271534D01*
X271001Y16302D01*
Y17901D01*
X274200Y12569D02*
Y14702D01*
X272067Y12569D01*
X271534D01*
X271001Y13103D01*
Y14169D01*
X271534Y14702D01*
X234200Y21100D02*
X231001D01*
Y19500D01*
X231534Y18967D01*
X232600D01*
X233134Y19500D01*
Y21100D01*
X234200Y17901D02*
X232067D01*
X231001Y16835D01*
X232067Y15768D01*
X234200D01*
X232600D01*
Y17901D01*
X231001Y12569D02*
X231534Y13636D01*
X232600Y14702D01*
X233667D01*
X234200Y14169D01*
Y13103D01*
X233667Y12569D01*
X233134D01*
X232600Y13103D01*
Y14702D01*
X234200Y101000D02*
X232067D01*
X231001Y99934D01*
X232067Y98867D01*
X234200D01*
X232600D01*
Y101000D01*
X234200Y97801D02*
Y96735D01*
Y97268D01*
X231001D01*
X231534Y97801D01*
X234200Y93003D02*
Y95135D01*
X232067Y93003D01*
X231534D01*
X231001Y93536D01*
Y94602D01*
X231534Y95135D01*
X224200Y21100D02*
X221001D01*
Y19500D01*
X221534Y18967D01*
X222601D01*
X223134Y19500D01*
Y21100D01*
X224200Y17901D02*
X222067D01*
X221001Y16835D01*
X222067Y15768D01*
X224200D01*
X222601D01*
Y17901D01*
X221001Y12569D02*
Y14702D01*
X222601D01*
X222067Y13636D01*
Y13103D01*
X222601Y12569D01*
X223667D01*
X224200Y13103D01*
Y14169D01*
X223667Y14702D01*
X184200Y21100D02*
X181001D01*
Y19500D01*
X181534Y18967D01*
X182600D01*
X183134Y19500D01*
Y21100D01*
X184200Y17901D02*
X182067D01*
X181001Y16835D01*
X182067Y15768D01*
X184200D01*
X182600D01*
Y17901D01*
X184200Y14702D02*
Y13636D01*
Y14169D01*
X181001D01*
X181534Y14702D01*
X194200Y21100D02*
X191001D01*
Y19500D01*
X191534Y18967D01*
X192601D01*
X193134Y19500D01*
Y21100D01*
X194200Y17901D02*
X192067D01*
X191001Y16835D01*
X192067Y15768D01*
X194200D01*
X192601D01*
Y17901D01*
X194200Y12569D02*
Y14702D01*
X192067Y12569D01*
X191534D01*
X191001Y13103D01*
Y14169D01*
X191534Y14702D01*
X184200Y101000D02*
X182067D01*
X181001Y99934D01*
X182067Y98867D01*
X184200D01*
X182600D01*
Y101000D01*
X184200Y97801D02*
Y96735D01*
Y97268D01*
X181001D01*
X181534Y97801D01*
X181001Y93003D02*
Y95135D01*
X182600D01*
X182067Y94069D01*
Y93536D01*
X182600Y93003D01*
X183667D01*
X184200Y93536D01*
Y94602D01*
X183667Y95135D01*
X144200Y21100D02*
X141001D01*
Y19500D01*
X141534Y18967D01*
X142601D01*
X143134Y19500D01*
Y21100D01*
Y20034D02*
X144200Y18967D01*
X141534Y15768D02*
X141001Y16301D01*
Y17368D01*
X141534Y17901D01*
X142067D01*
X142601Y17368D01*
Y16301D01*
X143134Y15768D01*
X143667D01*
X144200Y16301D01*
Y17368D01*
X143667Y17901D01*
X141001Y14702D02*
Y12569D01*
Y13636D01*
X144200D01*
X151534Y18967D02*
X151001Y19500D01*
Y20567D01*
X151534Y21100D01*
X153667D01*
X154200Y20567D01*
Y19500D01*
X153667Y18967D01*
X152601D01*
Y20034D01*
X154200Y17901D02*
X151001D01*
X154200Y15768D01*
X151001D01*
Y14702D02*
X154200D01*
Y13103D01*
X153667Y12569D01*
X151534D01*
X151001Y13103D01*
Y14702D01*
X111534Y18967D02*
X111001Y19500D01*
Y20567D01*
X111534Y21100D01*
X113667D01*
X114200Y20567D01*
Y19500D01*
X113667Y18967D01*
X114200Y17901D02*
Y16835D01*
Y17368D01*
X111001D01*
X111534Y17901D01*
X111001Y13103D02*
Y15235D01*
X112601D01*
X112067Y14169D01*
Y13636D01*
X112601Y13103D01*
X113667D01*
X114200Y13636D01*
Y14702D01*
X113667Y15235D01*
X101534Y18967D02*
X101001Y19500D01*
Y20567D01*
X101534Y21100D01*
X103667D01*
X104200Y20567D01*
Y19500D01*
X103667Y18967D01*
X104200Y17901D02*
Y16835D01*
Y17368D01*
X101001D01*
X101534Y17901D01*
X104200Y13636D02*
X101001D01*
X102601Y15235D01*
Y13103D01*
X214200Y101000D02*
X211001D01*
Y99401D01*
X211534Y98867D01*
X212600D01*
X213134Y99401D01*
Y101000D01*
X211001Y95668D02*
Y97801D01*
X212600D01*
Y96735D01*
Y97801D01*
X214200D01*
X211001Y92469D02*
X211534Y93536D01*
X212600Y94602D01*
X213667D01*
X214200Y94069D01*
Y93003D01*
X213667Y92469D01*
X213134D01*
X212600Y93003D01*
Y94602D01*
X204200Y101000D02*
X201001D01*
Y99401D01*
X201534Y98867D01*
X202601D01*
X203134Y99401D01*
Y101000D01*
X201001Y95668D02*
Y97801D01*
X202601D01*
Y96735D01*
Y97801D01*
X204200D01*
X201001Y94602D02*
Y92469D01*
X201534D01*
X203667Y94602D01*
X204200D01*
X174200Y101000D02*
X171001D01*
Y99401D01*
X171534Y98867D01*
X172600D01*
X173134Y99401D01*
Y101000D01*
X171001Y97801D02*
X174200D01*
Y96201D01*
X173667Y95668D01*
X173134D01*
X172600Y96201D01*
Y97801D01*
Y96201D01*
X172067Y95668D01*
X171534D01*
X171001Y96201D01*
Y97801D01*
X171534Y94602D02*
X171001Y94069D01*
Y93003D01*
X171534Y92469D01*
X172067D01*
X172600Y93003D01*
Y93536D01*
Y93003D01*
X173134Y92469D01*
X173667D01*
X174200Y93003D01*
Y94069D01*
X173667Y94602D01*
X164200Y101000D02*
X161001D01*
Y99401D01*
X161534Y98867D01*
X162601D01*
X163134Y99401D01*
Y101000D01*
X161001Y97801D02*
X164200D01*
Y96201D01*
X163667Y95668D01*
X163134D01*
X162601Y96201D01*
Y97801D01*
Y96201D01*
X162067Y95668D01*
X161534D01*
X161001Y96201D01*
Y97801D01*
X164200Y93003D02*
X161001D01*
X162601Y94602D01*
Y92469D01*
X134200Y101000D02*
X131001D01*
Y99401D01*
X131534Y98867D01*
X132600D01*
X133134Y99401D01*
Y101000D01*
X131001Y97801D02*
X134200D01*
Y96201D01*
X133667Y95668D01*
X133134D01*
X132600Y96201D01*
Y97801D01*
Y96201D01*
X132067Y95668D01*
X131534D01*
X131001Y96201D01*
Y97801D01*
Y94602D02*
Y92469D01*
X131534D01*
X133667Y94602D01*
X134200D01*
X121001Y101000D02*
X124200D01*
Y99401D01*
X123667Y98867D01*
X123134D01*
X122600Y99401D01*
Y101000D01*
Y99401D01*
X122067Y98867D01*
X121534D01*
X121001Y99401D01*
Y101000D01*
Y97801D02*
Y95668D01*
Y96735D01*
X124200D01*
X121534Y94602D02*
X121001Y94069D01*
Y93003D01*
X121534Y92469D01*
X123667D01*
X124200Y93003D01*
Y94069D01*
X123667Y94602D01*
X121534D01*
X91534Y98867D02*
X91001Y99401D01*
Y100467D01*
X91534Y101000D01*
X93667D01*
X94200Y100467D01*
Y99401D01*
X93667Y98867D01*
X92601D01*
Y99934D01*
X94200Y97801D02*
X91001D01*
X94200Y95668D01*
X91001D01*
Y94602D02*
X94200D01*
Y93003D01*
X93667Y92469D01*
X91534D01*
X91001Y93003D01*
Y94602D01*
X81534Y101000D02*
X81001Y100467D01*
Y99401D01*
X81534Y98867D01*
X82067D01*
X82600Y99401D01*
Y99934D01*
Y99401D01*
X83134Y98867D01*
X83667D01*
X84200Y99401D01*
Y100467D01*
X83667Y101000D01*
X81001Y97801D02*
X83134D01*
X84200Y96735D01*
X83134Y95668D01*
X81001D01*
X81534Y94602D02*
X81001Y94069D01*
Y93003D01*
X81534Y92469D01*
X82067D01*
X82600Y93003D01*
Y93536D01*
Y93003D01*
X83134Y92469D01*
X83667D01*
X84200Y93003D01*
Y94069D01*
X83667Y94602D01*
X291001Y21100D02*
X294200D01*
Y19500D01*
X293667Y18967D01*
X293134D01*
X292600Y19500D01*
Y21100D01*
Y19500D01*
X292067Y18967D01*
X291534D01*
X291001Y19500D01*
Y21100D01*
X294200Y17901D02*
Y16835D01*
Y17368D01*
X291001D01*
X291534Y17901D01*
X294200Y15235D02*
Y14169D01*
Y14702D01*
X291001D01*
X291534Y15235D01*
X291001Y101000D02*
X294200D01*
Y99401D01*
X293667Y98867D01*
X293134D01*
X292600Y99401D01*
Y101000D01*
Y99401D01*
X292067Y98867D01*
X291534D01*
X291001Y99401D01*
Y101000D01*
X294200Y97801D02*
Y96735D01*
Y97268D01*
X291001D01*
X291534Y97801D01*
X294200Y93536D02*
X291001D01*
X292600Y95135D01*
Y93003D01*
X281001Y21100D02*
X284200D01*
Y19500D01*
X283667Y18967D01*
X283134D01*
X282600Y19500D01*
Y21100D01*
Y19500D01*
X282067Y18967D01*
X281534D01*
X281001Y19500D01*
Y21100D01*
X284200Y17901D02*
Y16835D01*
Y17368D01*
X281001D01*
X281534Y17901D01*
Y15235D02*
X281001Y14702D01*
Y13636D01*
X281534Y13103D01*
X283667D01*
X284200Y13636D01*
Y14702D01*
X283667Y15235D01*
X281534D01*
X281001Y101000D02*
X284200D01*
Y99401D01*
X283667Y98867D01*
X283134D01*
X282600Y99401D01*
Y101000D01*
Y99401D01*
X282067Y98867D01*
X281534D01*
X281001Y99401D01*
Y101000D01*
X284200Y97801D02*
Y96735D01*
Y97268D01*
X281001D01*
X281534Y97801D01*
X281001Y93003D02*
Y95135D01*
X282600D01*
X282067Y94069D01*
Y93536D01*
X282600Y93003D01*
X283667D01*
X284200Y93536D01*
Y94602D01*
X283667Y95135D01*
X254200Y21100D02*
X251001D01*
Y19500D01*
X251534Y18967D01*
X252601D01*
X253134Y19500D01*
Y21100D01*
X251001Y17901D02*
X254200D01*
Y16302D01*
X253667Y15768D01*
X253134D01*
X252601Y16302D01*
Y17901D01*
Y16302D01*
X252067Y15768D01*
X251534D01*
X251001Y16302D01*
Y17901D01*
X251534Y14702D02*
X251001Y14169D01*
Y13103D01*
X251534Y12569D01*
X253667D01*
X254200Y13103D01*
Y14169D01*
X253667Y14702D01*
X251534D01*
X254200Y101000D02*
X252067D01*
X251001Y99934D01*
X252067Y98867D01*
X254200D01*
X252601D01*
Y101000D01*
X254200Y97801D02*
Y96735D01*
Y97268D01*
X251001D01*
X251534Y97801D01*
Y95135D02*
X251001Y94602D01*
Y93536D01*
X251534Y93003D01*
X253667D01*
X254200Y93536D01*
Y94602D01*
X253667Y95135D01*
X251534D01*
X244200Y21100D02*
X241001D01*
Y19500D01*
X241534Y18967D01*
X242600D01*
X243134Y19500D01*
Y21100D01*
X244200Y17901D02*
X242067D01*
X241001Y16835D01*
X242067Y15768D01*
X244200D01*
X242600D01*
Y17901D01*
X241001Y14702D02*
Y12569D01*
X241534D01*
X243667Y14702D01*
X244200D01*
X244200Y101000D02*
X242067D01*
X241001Y99934D01*
X242067Y98867D01*
X244200D01*
X242600D01*
Y101000D01*
X244200Y97801D02*
Y96735D01*
Y97268D01*
X241001D01*
X241534Y97801D01*
X244200Y95135D02*
Y94069D01*
Y94602D01*
X241001D01*
X241534Y95135D01*
X214200Y21100D02*
X211001D01*
Y19500D01*
X211534Y18967D01*
X212600D01*
X213134Y19500D01*
Y21100D01*
X214200Y17901D02*
X212067D01*
X211001Y16835D01*
X212067Y15768D01*
X214200D01*
X212600D01*
Y17901D01*
X214200Y13103D02*
X211001D01*
X212600Y14702D01*
Y12569D01*
X204200Y21100D02*
X201001D01*
Y19500D01*
X201534Y18967D01*
X202601D01*
X203134Y19500D01*
Y21100D01*
X204200Y17901D02*
X202067D01*
X201001Y16835D01*
X202067Y15768D01*
X204200D01*
X202601D01*
Y17901D01*
X201534Y14702D02*
X201001Y14169D01*
Y13103D01*
X201534Y12569D01*
X202067D01*
X202601Y13103D01*
Y13636D01*
Y13103D01*
X203134Y12569D01*
X203667D01*
X204200Y13103D01*
Y14169D01*
X203667Y14702D01*
X174200Y21100D02*
X171001D01*
Y19500D01*
X171534Y18967D01*
X172600D01*
X173134Y19500D01*
Y21100D01*
X174200Y17901D02*
X172067D01*
X171001Y16835D01*
X172067Y15768D01*
X174200D01*
X172600D01*
Y17901D01*
X171534Y14702D02*
X171001Y14169D01*
Y13103D01*
X171534Y12569D01*
X173667D01*
X174200Y13103D01*
Y14169D01*
X173667Y14702D01*
X171534D01*
X161534Y21100D02*
X161001Y20567D01*
Y19500D01*
X161534Y18967D01*
X162067D01*
X162601Y19500D01*
Y20034D01*
Y19500D01*
X163134Y18967D01*
X163667D01*
X164200Y19500D01*
Y20567D01*
X163667Y21100D01*
X161001Y17901D02*
X163134D01*
X164200Y16835D01*
X163134Y15768D01*
X161001D01*
X161534Y14702D02*
X161001Y14169D01*
Y13103D01*
X161534Y12569D01*
X162067D01*
X162601Y13103D01*
Y13636D01*
Y13103D01*
X163134Y12569D01*
X163667D01*
X164200Y13103D01*
Y14169D01*
X163667Y14702D01*
X134200Y19600D02*
X131001D01*
X134200Y17467D01*
X131001D01*
X131534Y14268D02*
X131001Y14802D01*
Y15868D01*
X131534Y16401D01*
X133667D01*
X134200Y15868D01*
Y14802D01*
X133667Y14268D01*
X124200Y19600D02*
X121001D01*
X124200Y17467D01*
X121001D01*
X121534Y14268D02*
X121001Y14802D01*
Y15868D01*
X121534Y16401D01*
X123667D01*
X124200Y15868D01*
Y14802D01*
X123667Y14268D01*
X91534Y18967D02*
X91001Y19500D01*
Y20567D01*
X91534Y21100D01*
X93667D01*
X94200Y20567D01*
Y19500D01*
X93667Y18967D01*
X94200Y17901D02*
Y16835D01*
Y17368D01*
X91001D01*
X91534Y17901D01*
Y15235D02*
X91001Y14702D01*
Y13636D01*
X91534Y13103D01*
X92067D01*
X92601Y13636D01*
Y14169D01*
Y13636D01*
X93134Y13103D01*
X93667D01*
X94200Y13636D01*
Y14702D01*
X93667Y15235D01*
X81534Y21100D02*
X81001Y20567D01*
Y19500D01*
X81534Y18967D01*
X82067D01*
X82600Y19500D01*
Y20034D01*
Y19500D01*
X83134Y18967D01*
X83667D01*
X84200Y19500D01*
Y20567D01*
X83667Y21100D01*
X81001Y17901D02*
X83134D01*
X84200Y16835D01*
X83134Y15768D01*
X81001D01*
X81534Y14702D02*
X81001Y14169D01*
Y13103D01*
X81534Y12569D01*
X82067D01*
X82600Y13103D01*
Y13636D01*
Y13103D01*
X83134Y12569D01*
X83667D01*
X84200Y13103D01*
Y14169D01*
X83667Y14702D01*
M02*
