G04*
G04 #@! TF.GenerationSoftware,Altium Limited,Altium Designer,20.0.10 (225)*
G04*
G04 Layer_Color=16711935*
%FSLAX25Y25*%
%MOIN*%
G70*
G01*
G75*
%ADD14C,0.06800*%
G04:AMPARAMS|DCode=15|XSize=68mil|YSize=68mil|CornerRadius=19mil|HoleSize=0mil|Usage=FLASHONLY|Rotation=0.000|XOffset=0mil|YOffset=0mil|HoleType=Round|Shape=RoundedRectangle|*
%AMROUNDEDRECTD15*
21,1,0.06800,0.03000,0,0,0.0*
21,1,0.03000,0.06800,0,0,0.0*
1,1,0.03800,0.01500,-0.01500*
1,1,0.03800,-0.01500,-0.01500*
1,1,0.03800,-0.01500,0.01500*
1,1,0.03800,0.01500,0.01500*
%
%ADD15ROUNDEDRECTD15*%
%ADD16O,0.04737X0.08674*%
%ADD17O,0.04737X0.08674*%
%ADD18C,0.11627*%
%ADD19C,0.06115*%
%ADD20R,0.06115X0.06115*%
%ADD21C,0.06706*%
%ADD22R,0.06706X0.06706*%
%ADD23R,0.06706X0.06706*%
%ADD24C,0.06312*%
D14*
X82500Y87500D02*
D03*
X92500D02*
D03*
X102500D02*
D03*
X112500D02*
D03*
X122500D02*
D03*
X132500D02*
D03*
X142500D02*
D03*
X152500D02*
D03*
X162500D02*
D03*
X172500D02*
D03*
X182500D02*
D03*
X192500D02*
D03*
X202500D02*
D03*
X212500D02*
D03*
X222500D02*
D03*
X232500D02*
D03*
X242500D02*
D03*
X252500D02*
D03*
X262500D02*
D03*
X272500D02*
D03*
X282500D02*
D03*
X292500D02*
D03*
X302500D02*
D03*
X312500D02*
D03*
Y27500D02*
D03*
X302500D02*
D03*
X292500D02*
D03*
X282500D02*
D03*
X272500D02*
D03*
X262500D02*
D03*
X252500D02*
D03*
X242500D02*
D03*
X232500D02*
D03*
X222500D02*
D03*
X212500D02*
D03*
X202500D02*
D03*
X192500D02*
D03*
X182500D02*
D03*
X172500D02*
D03*
X162500D02*
D03*
X152500D02*
D03*
X142500D02*
D03*
X132500D02*
D03*
X122500D02*
D03*
X112500D02*
D03*
X102500D02*
D03*
X92500D02*
D03*
X117000Y47500D02*
D03*
X137000D02*
D03*
X57500Y107500D02*
D03*
X37500D02*
D03*
X57500Y97500D02*
D03*
X37500D02*
D03*
X137000Y67500D02*
D03*
X127000D02*
D03*
X117000D02*
D03*
X107000D02*
D03*
X162500Y37500D02*
D03*
X152500D02*
D03*
X312500D02*
D03*
X302500D02*
D03*
X82500Y77500D02*
D03*
X92500D02*
D03*
X18000Y87500D02*
D03*
X28000D02*
D03*
X38000D02*
D03*
X48000D02*
D03*
X18000Y7500D02*
D03*
X28000D02*
D03*
X38000D02*
D03*
X48000D02*
D03*
D15*
X82500Y27500D02*
D03*
X8000Y87500D02*
D03*
D16*
X13000Y102500D02*
D03*
X18000Y102500D02*
D03*
D17*
X23000Y102500D02*
D03*
D18*
X42976Y23784D02*
D03*
Y71185D02*
D03*
D19*
X53646Y42563D02*
D03*
Y52406D02*
D03*
X61520D02*
D03*
D20*
Y42563D02*
D03*
D21*
X292500Y47500D02*
D03*
Y57500D02*
D03*
Y67500D02*
D03*
X82500Y107500D02*
D03*
X92500D02*
D03*
X102500D02*
D03*
X112500D02*
D03*
X122500D02*
D03*
X132500D02*
D03*
X142500D02*
D03*
X152500D02*
D03*
X162500D02*
D03*
X172500D02*
D03*
X182500D02*
D03*
X192500D02*
D03*
X202500D02*
D03*
X212500D02*
D03*
X222500D02*
D03*
X232500D02*
D03*
X242500D02*
D03*
X252500D02*
D03*
X262500D02*
D03*
X272500D02*
D03*
X282500D02*
D03*
X292500D02*
D03*
X302500D02*
D03*
X312500Y7500D02*
D03*
X302500D02*
D03*
X292500D02*
D03*
X282500D02*
D03*
X272500D02*
D03*
X262500D02*
D03*
X252500D02*
D03*
X242500D02*
D03*
X232500D02*
D03*
X222500D02*
D03*
X212500D02*
D03*
X202500D02*
D03*
X192500D02*
D03*
X182500D02*
D03*
X172500D02*
D03*
X162500D02*
D03*
X152500D02*
D03*
X142500D02*
D03*
X132500D02*
D03*
X122500D02*
D03*
X112500D02*
D03*
X102500D02*
D03*
X92500D02*
D03*
D22*
X292500Y77500D02*
D03*
D23*
X312500Y107500D02*
D03*
X82500Y7500D02*
D03*
D24*
X152500Y77500D02*
D03*
X122500D02*
D03*
M02*
