G04*
G04 #@! TF.GenerationSoftware,Altium Limited,Altium Designer,20.0.10 (225)*
G04*
G04 Layer_Color=16711935*
%FSLAX25Y25*%
%MOIN*%
G70*
G01*
G75*
%ADD40C,0.04724*%
D40*
X319004Y116858D02*
X318995Y116858D01*
X322362Y113505D02*
X322196Y114541D01*
X321719Y115476D01*
X320976Y116217D01*
X320041Y116694D01*
X319004Y116858D01*
X322362Y113500D02*
X322362Y113505D01*
X322362Y113500D02*
X322362Y113505D01*
X2004Y117359D02*
X2002D01*
X322362Y1000D02*
Y1001D01*
Y1000D02*
Y1000D01*
X322362Y988D02*
X322362Y1000D01*
X319000Y-2362D02*
X320037Y-2198D01*
X320972Y-1723D01*
X321716Y-982D01*
X322195Y-48D01*
X322362Y988D01*
X319000Y-2362D02*
X319000D01*
X322362Y988D02*
X322362Y1000D01*
X2004Y117359D02*
X1992Y117359D01*
X-2362Y113002D02*
Y113000D01*
Y113002D02*
Y113000D01*
X1992Y117359D02*
X1023Y117249D01*
X103Y116926D01*
X-722Y116406D01*
X-1412Y115717D01*
X-1930Y114891D01*
X-2252Y113971D01*
X-2362Y113002D01*
X2002Y117359D02*
X1992Y117359D01*
X-2362Y1000D02*
X-2198Y-39D01*
X-1720Y-976D01*
X-976Y-1720D01*
X-39Y-2198D01*
X1000Y-2362D01*
X319004Y116858D02*
X318995Y116858D01*
X322362Y113505D02*
X322196Y114541D01*
X321719Y115476D01*
X320976Y116217D01*
X320041Y116694D01*
X319004Y116858D01*
X322362Y113500D02*
X322362Y113505D01*
X322362Y113500D02*
X322362Y113505D01*
X2004Y117359D02*
X2002D01*
X322362Y1000D02*
Y1001D01*
Y1000D02*
Y1000D01*
X322362Y988D02*
X322362Y1000D01*
X319000Y-2362D02*
X320037Y-2198D01*
X320972Y-1723D01*
X321716Y-982D01*
X322195Y-48D01*
X322362Y988D01*
X319000Y-2362D02*
X319000D01*
X322362Y988D02*
X322362Y1000D01*
X2004Y117359D02*
X1992Y117359D01*
X-2362Y113002D02*
Y113000D01*
Y113002D02*
Y113000D01*
X1992Y117359D02*
X1023Y117249D01*
X103Y116926D01*
X-722Y116406D01*
X-1412Y115717D01*
X-1930Y114891D01*
X-2252Y113971D01*
X-2362Y113002D01*
X2002Y117359D02*
X1992Y117359D01*
X-2362Y1000D02*
X-2198Y-39D01*
X-1720Y-976D01*
X-976Y-1720D01*
X-39Y-2198D01*
X1000Y-2362D01*
X319012Y116862D02*
X319000Y116862D01*
X322362Y113513D02*
X322195Y114546D01*
X321719Y115478D01*
X320978Y116219D01*
X320046Y116695D01*
X319012Y116862D01*
X322362Y113500D02*
X322362Y113513D01*
X319012Y116862D02*
X318862Y116858D01*
X322362Y113500D02*
X322362Y113513D01*
X322362Y113500D02*
Y113500D01*
X319000Y116862D02*
X318862Y116858D01*
X322362Y1000D02*
Y1000D01*
Y1000D02*
Y1000D01*
X319000Y-2362D02*
X319000D01*
X322362Y988D02*
X322362Y1000D01*
X319000Y-2362D02*
X320037Y-2198D01*
X320972Y-1723D01*
X321716Y-982D01*
X322195Y-48D01*
X322362Y988D01*
X322362Y1000D01*
X319000Y-2362D02*
X319000D01*
X2612Y117359D02*
X1598Y117328D01*
X615Y117076D01*
X-289Y116616D01*
X-1072Y115970D01*
X-1694Y115168D01*
X-2126Y114250D01*
X-2348Y113260D01*
X-2362Y113000D01*
X-2348Y113260D02*
X-2362Y113000D01*
X-2362Y400D02*
X-2348Y139D01*
Y139D02*
X-2038Y-867D01*
X-1380Y-1689D01*
X-467Y-2212D01*
X575Y-2362D01*
X319004Y116858D02*
X319004D01*
X2004Y117359D02*
X319004Y116858D01*
X322362Y1000D02*
X322362Y113500D01*
X319000Y-2362D02*
X319000D01*
X1000D02*
X319000D01*
X-2362Y113000D02*
X-2362Y1000D01*
Y1000D02*
Y1000D01*
Y1000D02*
Y1000D01*
X319004Y116858D02*
X319004D01*
X2004Y117359D02*
X319004Y116858D01*
X322362Y1000D02*
X322362Y113500D01*
X319000Y-2362D02*
X319000D01*
X1000D02*
X319000D01*
X-2362Y113000D02*
X-2362Y1000D01*
Y1000D02*
Y1000D01*
Y1000D02*
Y1000D01*
X318862Y116858D02*
X318862Y116858D01*
X2612Y117359D02*
X318862Y116858D01*
X322362Y1000D02*
X322362Y113500D01*
X319000Y-2362D02*
X319000D01*
X575D02*
X319000D01*
X-2362Y113000D02*
X-2362Y400D01*
M02*
